{"glyphs":{"0":{"ha":766,"x_min":77,"x_max":730,"o":"m 619 479 l 619 515 q 571 696 619 624 q 460 753 532 753 q 280 636 359 753 q 215 490 241 579 q 189 329 189 401 l 189 283 q 231 118 189 182 q 339 54 274 54 l 348 54 q 532 178 454 54 q 594 321 568 235 q 619 479 619 407 m 730 506 l 730 482 l 730 471 q 696 289 730 382 q 494 31 630 109 q 336 -12 418 -12 l 324 -11 l 312 -11 q 218 16 266 -11 q 77 313 77 96 l 77 324 q 110 509 77 411 q 323 783 175 703 q 458 819 391 819 l 483 819 q 581 795 534 819 q 707 646 673 749 q 730 506 730 575 z "},"1":{"ha":569,"x_min":101,"x_max":471,"o":"m 189 0 q 101 28 101 0 q 155 70 101 38 q 223 141 210 102 q 269 399 236 181 q 301 646 301 616 q 289 686 301 675 q 233 697 277 697 q 189 712 189 697 q 224 744 189 727 q 441 814 375 814 q 471 785 471 814 q 454 724 471 764 q 428 647 437 684 q 384 393 418 610 q 351 149 351 175 q 387 77 351 101 q 440 34 440 43 q 346 3 440 3 l 320 1 l 294 1 l 241 1 l 215 0 l 189 0 z "},"2":{"ha":701,"x_min":61,"x_max":635,"o":"m 416 -1 l 255 6 q 190 5 216 6 l 170 3 q 132 1 140 1 q 61 35 61 1 q 124 131 61 68 q 269 259 151 158 q 430 415 386 359 q 511 586 511 517 q 475 692 511 654 q 381 731 438 731 q 233 634 283 731 q 178 570 199 570 q 157 606 157 570 q 178 681 157 642 q 237 749 200 721 q 415 810 314 810 q 575 760 515 810 q 635 628 635 710 l 635 609 q 566 439 635 524 q 359 250 497 354 q 220 112 220 145 q 328 98 220 98 q 472 108 436 98 q 549 144 509 117 q 596 172 589 172 q 604 142 604 172 q 585 69 604 113 q 549 12 566 25 q 457 -1 533 -1 l 437 -1 l 416 -1 z "},"3":{"ha":680,"x_min":54,"x_max":611,"o":"m 445 415 q 485 384 445 410 q 543 335 525 357 q 588 210 588 279 q 557 85 587 141 q 382 -70 500 -21 q 248 -98 314 -98 l 228 -98 q 103 -70 152 -98 q 54 -5 54 -42 q 91 32 54 32 q 166 6 117 32 q 252 -20 216 -20 q 402 40 340 -20 q 463 177 463 100 q 328 353 463 318 q 267 384 267 369 q 330 434 267 399 q 423 503 393 469 q 487 625 487 572 q 379 725 487 724 q 276 697 319 725 q 188 648 199 648 q 176 671 176 648 q 240 772 176 732 q 399 812 304 812 q 552 779 494 812 q 611 693 611 745 l 611 675 q 611 674 611 675 q 495 471 611 568 q 445 415 445 429 z "},"4":{"ha":729,"x_min":33,"x_max":657,"o":"m 370 245 q 424 272 416 245 q 439 347 434 306 l 449 424 l 453 448 q 479 633 479 603 l 479 638 l 477 641 l 475 641 q 398 560 473 641 l 382 541 q 337 490 345 499 q 319 469 329 480 q 138 252 138 273 q 272 246 138 246 l 284 245 l 309 245 l 315 246 l 334 245 l 370 245 m 536 24 q 491 -60 536 -22 q 393 -99 446 -99 l 380 -99 q 337 -64 337 -99 q 365 3 337 -49 q 393 99 393 55 q 353 159 393 142 q 217 164 339 164 q 83 167 95 164 q 33 208 33 179 q 440 692 33 244 q 579 791 530 791 q 608 736 608 791 q 588 596 608 725 q 568 391 568 468 q 576 298 568 313 q 621 269 584 282 q 657 231 657 255 l 657 222 q 595 146 657 214 q 534 53 534 79 q 536 24 536 35 z "},"5":{"ha":687,"x_min":65,"x_max":668,"o":"m 161 427 q 158 462 158 433 q 197 617 158 490 q 251 764 237 743 q 384 800 275 800 l 527 795 q 600 808 553 795 q 647 821 646 821 q 668 795 668 821 q 621 716 668 739 q 475 693 573 693 l 355 699 q 279 642 308 699 q 250 528 250 585 q 351 490 250 501 q 504 434 453 479 q 571 344 555 389 q 587 239 587 298 q 559 121 587 180 q 361 -56 503 -3 q 228 -80 296 -80 q 112 -60 159 -80 q 65 -13 65 -40 l 65 1 q 105 33 65 33 q 157 13 119 33 q 233 -8 195 -8 q 399 60 331 -8 q 467 224 467 128 q 413 367 467 319 q 269 415 359 415 l 196 412 q 161 427 168 412 z "},"6":{"ha":730,"x_min":75,"x_max":666,"o":"m 404 505 l 378 505 q 248 443 305 505 q 191 291 191 382 l 191 284 l 190 278 l 189 251 q 232 103 189 161 q 347 45 275 45 q 473 106 420 45 q 545 286 545 189 l 546 300 l 547 327 q 506 454 547 403 q 404 505 465 505 m 666 867 q 567 821 666 864 q 299 602 381 740 q 277 547 277 564 q 303 536 277 536 q 372 543 330 536 q 450 550 414 549 q 453 550 452 550 q 532 530 488 550 q 663 305 663 472 q 632 178 663 239 q 450 9 572 57 q 340 -11 397 -11 l 323 -11 q 150 60 220 -11 q 97 146 119 91 q 75 263 75 202 l 75 296 q 125 510 75 403 q 432 831 229 734 q 635 887 550 887 q 666 867 666 887 z "},"7":{"ha":689,"x_min":121,"x_max":686,"o":"m 686 779 q 277 -39 686 718 q 210 -90 250 -90 l 194 -90 q 162 -63 162 -90 q 351 316 162 -37 q 402 395 357 327 q 555 671 555 628 q 490 700 555 700 l 458 701 l 407 702 q 246 692 279 702 q 184 652 214 682 q 138 623 155 623 q 121 643 121 623 q 151 776 121 708 q 191 809 166 809 l 205 809 l 219 808 l 250 806 q 383 801 328 801 l 400 800 l 417 799 q 451 798 434 798 l 467 798 q 501 796 500 796 l 552 796 l 633 798 q 686 779 686 798 z "},"8":{"ha":719,"x_min":72,"x_max":684,"o":"m 281 709 l 281 694 q 326 596 281 641 q 432 531 391 531 l 441 531 q 542 607 485 531 q 583 729 583 661 l 583 739 q 547 834 583 794 q 456 873 511 873 l 439 873 q 330 825 378 873 q 281 709 281 776 m 323 44 l 342 44 q 476 98 417 44 q 535 229 535 153 l 535 253 q 498 348 535 304 q 414 416 461 391 q 356 441 368 441 l 351 441 q 236 367 294 441 q 178 228 178 293 l 176 216 l 176 204 l 177 198 q 220 91 177 137 q 323 44 262 44 m 526 489 q 563 449 526 486 q 646 269 646 366 q 555 68 646 151 q 336 -14 465 -14 l 305 -14 q 146 39 215 -14 q 93 104 115 64 q 72 184 72 144 l 72 213 q 207 426 72 331 q 264 484 264 467 q 218 550 264 486 q 173 671 173 614 q 254 855 173 782 q 448 928 334 928 l 463 928 q 624 876 564 928 q 684 751 684 823 q 655 632 684 678 q 576 546 626 587 q 526 489 526 506 z "},"9":{"ha":734,"x_min":103,"x_max":695,"o":"m 372 302 l 386 302 l 392 303 q 464 323 423 303 q 577 535 577 380 l 577 537 l 577 564 q 535 706 577 648 q 429 763 493 763 l 416 763 q 344 743 382 763 q 279 684 305 722 q 220 500 220 597 l 220 486 q 261 355 220 407 q 372 302 303 302 m 105 503 q 133 623 106 565 q 302 792 190 742 q 427 821 367 821 l 444 821 q 674 660 612 821 q 695 549 695 606 l 695 515 q 652 313 695 419 q 529 120 608 207 q 341 -21 450 33 q 149 -75 233 -75 l 137 -75 q 103 -56 103 -75 q 204 -9 103 -54 q 363 82 305 35 q 454 179 421 128 q 488 257 488 229 q 467 270 488 270 l 319 260 q 234 279 277 260 q 163 332 191 299 q 105 503 105 397 z "},"\u0000":{"ha":781,"x_min":36,"x_max":741,"o":"m 552 44 q 626 51 626 44 q 458 310 626 65 q 421 366 452 318 q 387 414 390 414 l 354 363 l 351 357 l 325 318 q 317 307 322 313 q 150 47 150 63 q 162 47 150 47 l 169 46 l 175 45 l 222 44 l 552 44 m 102 492 l 102 242 q 105 109 102 109 q 180 218 109 109 l 221 279 q 245 315 236 302 q 268 350 254 328 q 315 418 283 372 q 347 467 347 463 l 347 474 q 257 610 347 479 q 163 749 168 741 l 104 835 q 102 492 102 835 m 673 431 l 673 511 q 670 836 673 836 q 633 785 667 836 q 514 611 600 734 q 429 477 429 488 q 480 391 429 465 q 599 214 532 317 q 670 112 666 112 q 673 431 673 112 m 459 903 l 438 903 l 431 902 l 390 902 q 149 896 149 902 q 184 839 149 890 q 238 759 219 788 q 271 709 256 730 q 336 611 286 688 q 390 533 387 533 q 433 594 393 533 q 478 664 472 654 q 494 687 484 673 l 577 813 q 631 897 631 890 q 459 903 631 903 m 36 27 l 36 163 l 37 180 l 37 486 q 38 958 37 955 q 94 970 43 970 l 667 970 q 737 959 734 970 q 740 686 740 948 l 740 399 l 741 331 l 741 9 q 719 -17 741 -15 q 532 -20 698 -20 l 227 -20 q 43 -16 50 -20 q 36 27 36 -12 z "}," ":{"ha":352,"x_min":0,"x_max":0,"o":""},"!":{"ha":382,"x_min":75,"x_max":380,"o":"m 380 924 l 380 910 q 346 753 380 878 q 289 525 311 628 q 241 342 267 421 q 189 262 216 262 q 165 293 165 262 q 184 461 165 347 q 220 710 203 574 q 246 880 238 846 q 271 936 254 915 q 326 956 288 956 l 341 956 q 380 924 380 956 m 235 72 q 233 59 235 72 q 206 11 233 34 q 159 -12 178 -12 l 140 -12 q 97 9 118 -12 q 75 55 75 31 l 75 71 q 77 87 77 77 q 99 123 77 97 q 147 150 121 150 l 162 152 l 165 152 q 182 150 171 150 q 215 129 194 150 q 235 82 235 109 l 235 74 l 235 72 z "},"\"":{"ha":517,"x_min":153,"x_max":522,"o":"m 191 838 l 183 901 l 182 909 l 182 930 q 203 962 182 947 q 256 977 224 977 l 265 977 q 303 936 303 977 l 303 924 l 302 911 l 300 894 q 233 690 300 838 q 178 634 208 634 l 170 634 q 153 647 153 634 l 153 654 q 160 689 153 669 q 191 836 191 774 q 191 838 191 837 m 522 941 l 522 920 q 518 882 518 896 q 456 699 518 848 q 401 635 429 635 l 385 635 q 371 646 371 635 l 371 654 q 390 727 371 656 q 410 826 410 798 q 406 874 410 855 q 403 897 403 892 l 401 916 q 413 954 401 943 q 471 977 438 977 l 484 977 q 522 941 522 977 z "},"#":{"ha":827,"x_min":62,"x_max":783,"o":"m 523 553 l 491 553 l 487 552 l 455 552 q 357 543 366 552 l 332 471 q 297 355 297 365 q 311 348 297 348 l 375 348 l 379 349 l 419 348 l 455 348 q 486 362 479 348 q 540 540 540 471 l 540 547 q 523 553 540 553 m 666 349 q 720 318 720 349 q 648 279 720 283 q 547 242 576 275 q 500 165 517 209 q 484 111 500 163 q 463 52 469 60 q 417 24 446 24 q 403 56 403 24 q 424 160 403 87 q 446 256 446 232 q 327 277 446 277 q 271 254 286 277 q 241 165 262 241 q 212 71 219 89 q 157 26 193 26 q 137 44 137 26 q 155 128 137 62 q 172 197 172 193 q 155 254 172 237 q 106 270 149 260 q 62 296 62 280 q 83 335 62 323 q 168 346 104 346 q 222 372 202 346 q 266 503 266 432 q 248 544 266 538 q 191 550 239 547 q 139 554 142 553 q 125 581 125 560 q 196 619 125 612 q 294 651 267 626 q 351 775 321 675 q 406 875 380 875 q 439 848 439 875 q 415 743 439 825 q 390 646 390 660 q 528 622 390 622 q 566 636 555 622 q 597 729 568 639 l 604 753 q 619 800 614 785 l 627 823 q 676 867 644 867 q 696 836 696 867 q 683 773 696 824 q 669 692 669 722 q 686 644 669 663 q 739 627 694 635 q 783 593 783 618 q 713 553 783 553 q 625 539 643 553 q 587 456 608 525 q 566 373 566 387 q 575 354 566 359 q 666 349 583 349 z "},"$":{"ha":713,"x_min":52,"x_max":676,"o":"m 437 840 l 437 846 q 433 850 437 850 l 418 850 q 406 849 410 849 q 310 802 351 849 q 269 698 269 755 l 269 686 q 304 601 269 645 q 364 556 338 556 l 370 556 q 378 567 375 556 q 437 840 437 742 m 328 51 q 337 43 328 43 l 346 43 q 461 93 406 43 q 517 201 517 142 l 519 224 l 519 237 q 482 330 519 277 q 407 382 446 382 l 404 382 q 391 363 395 382 q 329 65 329 137 l 328 58 l 328 51 m 656 855 q 676 795 676 835 q 654 734 676 756 q 634 724 644 724 q 578 765 625 724 q 521 807 532 807 q 468 702 491 807 q 446 558 446 597 q 465 498 446 519 q 492 477 468 495 q 527 449 515 458 q 597 369 571 413 q 623 255 623 325 q 554 85 623 161 q 396 -5 503 30 q 329 -36 344 -23 q 301 -82 313 -49 q 259 -127 285 -127 q 239 -81 239 -127 q 202 -8 239 -35 q 128 23 179 8 q 65 55 77 39 q 52 126 52 71 q 78 210 52 182 q 100 222 89 222 q 137 169 106 222 q 180 101 168 115 q 240 69 211 69 q 276 108 264 69 q 337 393 337 305 q 278 467 337 419 q 195 557 219 514 q 171 651 171 600 q 238 822 171 748 q 310 873 269 856 q 389 905 350 891 q 438 925 428 919 q 463 961 448 930 q 497 991 479 991 q 520 956 512 991 q 545 907 528 920 q 605 880 562 895 q 656 855 648 864 z "},"%":{"ha":1031,"x_min":123,"x_max":952,"o":"m 349 848 l 340 848 q 251 788 292 848 q 209 660 209 729 l 209 637 q 211 614 211 623 q 234 550 211 581 q 290 520 258 520 l 299 520 l 303 521 q 393 578 351 521 q 435 718 435 636 l 434 722 l 434 727 q 411 815 434 783 q 349 848 389 848 m 784 394 l 771 394 q 682 336 723 394 q 642 220 642 278 l 641 216 l 640 211 l 640 193 l 640 188 q 663 101 640 134 q 716 68 686 68 l 725 66 l 730 66 l 734 67 q 814 113 781 67 q 863 236 863 180 l 865 245 l 865 264 l 865 273 q 843 359 865 325 q 784 394 821 394 m 340 898 l 366 898 q 475 851 429 898 q 522 725 522 805 l 521 718 q 457 549 521 623 q 380 490 423 511 q 305 470 337 470 l 278 470 q 170 517 217 470 q 123 631 123 564 l 123 657 q 192 824 123 751 q 340 898 260 898 m 897 899 q 920 886 920 899 q 893 838 920 874 q 277 92 644 506 q 184 20 214 20 q 154 32 154 20 q 181 79 154 45 q 806 836 538 534 q 897 899 861 899 m 554 182 l 554 202 q 626 374 554 292 q 695 425 652 404 q 775 445 739 445 l 789 445 l 795 444 q 907 396 863 444 q 952 279 952 347 l 952 260 q 889 97 952 170 q 809 36 853 56 q 731 16 764 16 l 711 16 q 601 63 648 16 q 554 182 554 110 z "},"&":{"ha":1034,"x_min":85,"x_max":986,"o":"m 576 888 l 559 888 q 472 844 512 888 q 433 741 433 800 l 433 716 q 457 623 433 658 q 488 587 482 587 l 492 587 q 613 670 540 587 q 659 785 659 721 l 659 794 q 635 863 659 837 q 576 888 612 888 m 376 64 l 408 64 q 529 99 465 64 q 594 161 594 134 l 594 165 q 547 240 594 174 q 453 384 500 306 q 385 461 407 461 q 269 367 343 461 q 227 243 227 313 l 227 224 q 271 112 227 159 q 376 64 314 64 m 791 176 q 890 64 791 64 q 897 56 897 64 q 747 23 838 23 q 680 42 726 23 q 623 61 633 61 q 578 47 613 61 l 558 39 q 517 22 520 23 q 409 1 458 1 l 387 1 l 366 3 l 343 3 q 151 56 217 3 q 85 197 85 110 q 229 450 85 344 q 319 552 319 517 q 313 598 319 562 q 306 686 306 635 q 385 878 306 801 q 577 955 463 955 q 693 912 651 955 q 735 800 735 869 q 664 651 735 730 q 593 529 593 571 q 631 380 593 454 q 695 334 654 334 q 756 384 713 334 q 798 469 798 433 l 790 522 q 846 545 790 545 q 897 552 850 545 q 976 559 945 559 q 986 541 986 559 q 942 480 986 538 l 913 433 q 791 176 791 248 z "},"'":{"ha":300,"x_min":152,"x_max":304,"o":"m 304 949 l 304 920 q 302 907 302 912 q 245 722 302 847 q 177 640 208 640 l 169 640 q 152 650 152 640 l 152 658 q 159 692 152 673 q 177 755 166 711 q 188 803 188 800 l 189 808 l 189 812 l 191 828 l 191 841 l 186 890 q 183 909 183 903 l 182 917 l 182 929 q 196 962 182 951 q 255 983 223 983 l 268 983 q 304 949 304 983 z "},"(":{"ha":454,"x_min":102,"x_max":505,"o":"m 505 998 q 459 928 505 975 q 278 638 338 802 q 203 233 203 433 q 229 16 203 105 q 269 -101 255 -73 q 311 -182 282 -130 q 339 -239 339 -235 q 313 -263 339 -263 l 302 -263 q 271 -237 295 -263 q 153 -38 204 -165 q 102 236 102 89 l 102 265 l 103 280 q 133 500 103 385 q 350 908 195 737 q 481 1017 448 1017 q 505 998 505 1017 z "},")":{"ha":456,"x_min":-21,"x_max":383,"o":"m 7 -264 q -21 -246 -21 -264 q 40 -159 -21 -228 q 140 -22 100 -90 q 216 140 180 45 q 283 522 283 319 q 204 882 283 724 q 175 934 202 887 q 147 991 147 981 q 180 1017 147 1017 q 213 994 191 1017 q 329 805 275 932 q 383 522 383 677 l 383 478 q 269 42 383 271 q 156 -128 229 -40 q 7 -264 45 -264 z "},"*":{"ha":610,"x_min":151,"x_max":578,"o":"m 420 918 q 406 838 420 903 q 395 776 395 789 q 396 771 395 771 q 457 806 401 771 q 535 840 513 840 q 578 805 578 840 q 523 745 578 782 q 482 722 506 734 q 458 706 458 711 q 489 672 458 702 q 521 609 521 643 q 500 574 521 574 q 481 578 496 574 l 466 583 q 428 595 446 589 q 404 602 411 602 q 382 560 393 602 q 332 519 372 519 q 299 564 299 519 q 288 610 299 610 q 246 595 281 610 q 186 580 211 580 q 167 610 167 580 q 207 669 167 641 q 247 718 247 698 q 225 734 247 723 q 151 811 151 772 q 184 850 151 850 q 262 812 205 850 q 323 774 319 774 q 332 825 332 774 l 330 855 q 330 903 330 870 q 343 953 330 937 q 377 969 357 969 q 420 918 420 969 z "},"+":{"ha":742,"x_min":87,"x_max":689,"o":"m 342 283 q 344 296 342 283 q 345 328 345 308 q 330 350 345 347 l 213 350 q 87 373 87 350 l 87 385 q 115 424 87 418 q 233 426 124 426 q 348 431 342 426 q 359 542 353 437 q 369 664 366 647 q 406 692 375 692 l 418 692 q 445 644 445 692 q 438 564 445 643 q 431 444 431 485 q 560 427 431 427 q 689 404 689 427 q 673 359 689 366 q 546 352 657 352 q 428 346 434 352 q 415 228 421 339 q 408 113 408 117 q 372 83 402 83 l 359 83 q 332 118 332 83 l 337 214 q 342 283 340 259 z "},",":{"ha":338,"x_min":12,"x_max":232,"o":"m 37 -206 l 28 -206 q 12 -183 12 -206 q 77 -111 12 -181 q 117 -23 117 -66 q 93 26 117 -1 q 68 80 68 54 q 93 131 68 106 q 153 155 118 155 l 158 155 q 232 73 232 155 l 232 58 q 231 42 231 47 q 160 -112 231 -18 q 37 -206 90 -206 z "},"-":{"ha":528,"x_min":89,"x_max":463,"o":"m 438 397 q 463 385 463 397 l 463 372 q 428 315 463 315 l 420 313 l 380 311 l 367 311 l 358 310 l 345 310 l 323 309 l 313 309 l 300 308 l 291 308 l 286 307 l 277 307 l 268 307 l 254 307 l 217 304 l 204 304 l 195 304 l 168 304 l 151 303 l 108 303 q 89 321 89 303 l 89 325 l 90 330 l 91 347 q 111 385 91 379 q 292 393 138 393 l 404 397 l 438 397 z "},".":{"ha":323,"x_min":58,"x_max":221,"o":"m 138 -13 l 128 -13 q 78 12 98 -13 q 58 58 58 36 l 58 73 q 60 91 60 79 q 85 127 60 102 q 131 153 110 153 l 146 155 l 151 155 q 199 133 178 155 q 221 84 221 111 l 221 71 l 218 56 q 195 15 218 42 q 138 -13 172 -13 z "},"/":{"ha":537,"x_min":-12,"x_max":596,"o":"m 557 994 l 568 994 q 596 982 596 994 q 85 -71 596 952 q 21 -132 54 -132 q -12 -123 -12 -132 q 18 -47 -12 -109 q 502 940 435 815 q 557 994 531 994 z "},":":{"ha":363,"x_min":76,"x_max":326,"o":"m 229 444 q 183 467 203 444 q 163 514 163 491 l 163 522 q 188 580 163 551 q 242 609 212 609 l 260 609 q 304 587 282 609 q 326 543 326 566 l 326 526 l 323 511 q 299 470 323 494 q 254 446 275 446 l 242 444 l 229 444 m 239 86 l 239 81 l 239 79 q 212 18 239 45 q 159 -8 186 -8 l 144 -8 q 101 11 123 -8 q 78 52 78 30 l 76 64 l 76 75 q 100 129 76 100 q 148 157 123 157 l 163 159 l 169 159 q 219 134 199 159 q 239 86 239 110 z "},";":{"ha":372,"x_min":24,"x_max":329,"o":"m 329 535 l 329 523 q 300 462 329 486 q 243 438 272 438 l 238 438 q 191 458 215 438 q 168 510 168 478 l 168 519 l 168 522 l 168 527 q 170 540 170 532 q 192 574 170 547 q 237 602 215 602 l 254 604 l 261 604 q 309 580 289 604 q 329 535 329 556 m 170 157 l 180 157 q 228 136 210 157 q 246 80 246 116 l 246 59 q 245 43 245 50 q 173 -107 245 -12 q 47 -202 102 -202 q 24 -182 24 -202 l 24 -179 q 49 -146 24 -168 q 128 -18 128 -75 q 106 28 128 1 q 85 83 85 55 q 112 134 85 111 q 170 157 139 157 z "},"<":{"ha":754,"x_min":98,"x_max":713,"o":"m 606 55 q 235 277 594 55 q 98 383 98 361 q 125 429 98 412 q 381 564 127 430 q 661 712 635 699 q 694 726 686 726 q 713 699 713 726 q 661 639 713 672 q 437 518 644 627 q 230 393 230 408 q 324 323 230 385 q 425 258 418 262 l 503 209 q 599 146 583 159 q 633 87 633 119 q 606 55 633 55 z "},"=":{"ha":771,"x_min":103,"x_max":724,"o":"m 282 548 l 315 548 l 322 547 l 435 547 q 724 528 724 547 l 724 522 q 692 473 724 479 q 414 471 676 471 l 308 471 l 281 470 l 175 470 q 125 490 125 470 l 125 496 q 143 541 125 534 q 282 548 161 548 m 659 315 q 702 296 702 315 l 702 290 q 684 246 702 254 q 591 237 666 237 l 519 237 l 513 238 l 312 238 l 292 237 l 140 237 q 103 256 103 237 l 103 269 q 129 311 103 303 q 254 315 145 315 l 327 315 l 333 315 l 366 315 l 393 315 l 399 315 l 633 315 l 659 315 z "},">":{"ha":751,"x_min":70,"x_max":684,"o":"m 629 453 q 684 392 684 417 q 658 350 684 366 q 451 240 632 333 q 185 100 270 146 q 93 54 101 54 l 83 54 q 70 90 70 54 q 125 149 70 115 q 342 264 129 151 q 555 394 555 377 q 448 474 555 404 q 287 577 342 544 q 196 637 233 610 q 159 696 159 665 q 177 727 159 727 q 629 453 211 727 z "},"?":{"ha":603,"x_min":166,"x_max":616,"o":"m 483 768 q 386 863 483 863 q 299 826 338 863 q 216 765 235 765 q 185 806 185 765 q 203 861 185 827 q 248 911 222 894 q 393 954 313 954 l 406 954 q 550 907 490 954 q 598 845 580 884 q 616 771 616 806 q 577 639 616 697 q 465 520 538 581 q 361 420 391 458 q 330 330 330 382 l 334 287 q 300 255 334 255 q 263 279 281 255 q 246 351 246 303 q 285 455 246 398 q 358 542 289 461 q 455 670 428 622 q 483 768 483 719 m 328 83 l 328 70 q 298 11 328 36 q 247 -14 269 -14 l 234 -14 l 218 -12 q 185 11 203 -12 q 166 54 166 33 l 166 70 q 189 121 166 93 q 234 149 212 149 l 252 151 l 257 151 q 306 129 284 151 q 328 83 328 107 z "},"@":{"ha":1198,"x_min":83,"x_max":1133,"o":"m 507 152 l 518 152 q 587 179 541 152 q 728 397 681 235 q 750 501 750 473 l 751 512 l 752 529 l 752 534 q 685 584 752 584 l 673 584 q 597 562 639 584 q 461 385 507 513 q 439 285 439 323 l 438 273 l 438 249 q 457 179 438 207 q 507 152 476 152 m 699 144 q 666 174 671 174 q 587 133 661 174 q 477 91 513 91 q 376 125 409 91 l 354 157 q 335 234 335 194 q 469 534 335 411 q 606 616 534 594 q 741 627 641 627 q 853 611 841 627 q 865 553 865 595 l 859 514 l 827 389 q 804 244 804 289 q 824 181 804 199 l 848 170 q 993 264 930 170 q 1055 456 1055 357 q 957 726 1055 628 q 669 836 849 836 q 492 798 582 836 q 331 684 403 761 q 186 302 186 527 q 217 143 186 222 q 438 -73 281 -16 q 589 -100 512 -100 q 708 -90 667 -100 q 799 -61 749 -79 q 869 -43 848 -43 q 891 -60 891 -43 q 784 -127 891 -90 q 577 -164 677 -164 q 225 -45 355 -164 q 92 203 121 51 q 83 286 83 249 q 240 707 83 539 q 446 850 325 798 q 673 902 568 902 q 1000 795 878 902 q 1098 663 1063 740 q 1133 504 1133 585 l 1133 462 q 1108 339 1133 403 q 1042 221 1084 275 q 928 130 999 167 q 808 94 857 94 q 721 125 760 94 l 699 144 z "},"A":{"ha":972,"x_min":-36,"x_max":881,"o":"m 421 404 l 535 404 l 541 405 l 586 406 q 597 407 591 407 q 648 432 648 407 l 648 437 l 647 443 l 645 469 l 643 484 q 642 500 642 495 l 640 517 q 637 538 637 533 q 602 772 637 692 q 595 784 596 784 l 593 784 q 569 752 586 784 q 527 682 551 720 q 370 417 370 437 l 370 413 q 421 404 370 404 m 235 204 q 214 163 235 204 q 193 102 193 122 q 207 58 193 82 q 222 33 222 35 q 199 5 222 10 q 93 -2 170 -2 l 10 -2 q -36 24 -36 -2 q 11 64 -36 43 q 84 118 58 84 q 192 283 110 152 q 311 471 274 415 q 412 637 347 527 q 566 871 476 747 q 652 936 613 936 q 690 916 676 936 q 738 801 728 864 q 743 725 741 784 q 747 640 745 667 l 763 475 q 801 121 794 152 q 844 64 807 90 q 881 26 881 39 q 731 0 881 0 q 582 17 582 0 q 601 50 582 34 l 614 59 l 627 67 q 651 93 644 79 q 659 160 659 106 q 634 330 659 309 q 477 342 621 342 q 298 307 333 342 q 235 204 278 287 z "},"B":{"ha":856,"x_min":11,"x_max":821,"o":"m 374 518 l 427 518 q 614 565 555 518 q 695 720 695 629 l 695 739 q 645 846 695 807 q 511 884 594 884 l 498 884 q 408 856 422 884 q 384 766 395 827 q 371 694 373 704 l 366 667 l 363 654 l 359 630 l 356 618 l 354 606 l 350 588 q 345 564 348 575 q 342 547 342 553 l 342 530 q 374 518 342 518 m 429 464 l 393 464 q 319 432 333 464 q 295 331 305 401 q 269 184 284 260 q 254 99 254 108 l 254 86 q 339 54 254 54 l 397 54 q 418 56 412 56 q 587 119 513 56 q 636 190 616 146 q 656 278 656 233 l 656 292 q 597 417 656 370 q 429 464 538 464 m 265 846 q 238 883 265 870 q 189 912 189 907 q 227 938 189 933 q 412 943 264 943 l 518 943 q 796 836 732 943 q 821 731 821 795 q 694 533 821 617 q 638 494 639 496 q 650 482 638 490 l 663 475 q 755 394 726 437 q 785 281 785 350 q 659 60 785 140 q 537 11 607 26 q 354 -5 467 -5 l 318 -5 l 300 -4 l 212 -4 q 11 16 11 -4 q 62 52 11 31 q 128 118 113 73 q 172 324 137 144 q 213 530 208 504 q 265 846 265 777 z "},"C":{"ha":897,"x_min":90,"x_max":916,"o":"m 632 951 q 745 935 675 951 q 851 913 814 920 q 895 903 888 907 q 916 835 916 892 q 888 703 916 733 l 878 696 q 830 754 857 696 q 615 887 770 887 q 447 832 534 887 q 337 726 390 796 q 254 562 283 655 q 225 387 225 469 q 297 146 225 230 q 494 63 368 63 q 726 168 601 63 q 788 214 781 214 q 812 188 812 214 q 779 106 812 163 q 720 37 745 50 q 606 6 695 24 q 477 -12 516 -12 l 454 -12 q 192 95 295 -12 q 90 363 90 202 q 250 782 90 604 q 422 906 321 861 q 632 951 523 951 z "},"D":{"ha":1000,"x_min":33,"x_max":977,"o":"m 545 885 l 522 885 q 412 838 429 885 q 339 481 412 836 q 266 99 266 127 q 284 64 266 71 q 353 58 302 58 l 400 58 q 715 201 588 58 q 810 368 778 272 q 842 549 842 463 l 842 562 q 840 597 840 585 q 817 712 840 655 q 673 861 772 821 q 545 885 612 885 m 189 898 q 523 945 189 945 q 946 723 857 945 q 977 568 977 648 l 977 551 q 927 322 977 436 q 786 132 878 209 q 588 26 695 54 q 323 -3 481 -3 l 305 -3 l 288 -2 l 218 -2 l 148 -1 l 130 0 l 114 1 l 70 1 q 33 17 33 1 q 70 55 33 37 q 123 89 107 72 q 161 191 139 106 q 237 574 184 275 q 260 833 260 698 q 233 871 260 860 q 189 898 189 890 z "},"E":{"ha":857,"x_min":28,"x_max":855,"o":"m 855 861 l 855 833 q 828 768 855 768 q 802 803 823 768 q 727 858 781 837 q 547 878 674 878 q 440 829 475 878 q 396 720 423 804 q 370 622 370 636 q 385 561 370 578 q 468 526 415 526 q 557 547 522 526 q 635 585 622 585 q 671 512 671 585 q 651 405 671 439 q 612 370 632 370 q 581 385 593 370 q 539 436 543 434 q 453 453 510 453 q 329 395 358 453 q 302 290 317 372 q 286 148 286 208 q 323 75 286 89 q 453 64 349 64 q 633 95 557 64 q 719 150 672 111 q 771 190 765 190 q 778 170 778 190 q 758 101 778 151 q 713 25 738 51 q 620 -1 688 -1 l 591 0 l 348 1 q 54 3 64 1 q 28 26 28 9 q 64 52 28 38 q 106 71 100 65 q 142 142 126 87 l 151 171 q 170 259 155 189 l 193 376 q 245 630 214 481 q 276 836 276 778 q 243 880 276 858 q 210 922 210 901 q 441 942 210 942 l 684 944 l 744 945 l 773 945 q 839 924 823 945 q 855 861 855 903 z "},"F":{"ha":802,"x_min":38,"x_max":854,"o":"m 213 468 q 243 623 213 468 q 273 822 273 777 q 256 880 273 866 l 241 888 l 223 896 q 204 918 204 906 q 581 945 204 945 l 707 945 l 804 945 q 841 934 827 945 q 854 882 854 923 l 854 839 q 819 754 854 754 q 793 800 813 754 q 722 864 772 846 q 536 883 672 883 q 469 865 499 883 q 410 788 438 847 q 363 588 363 692 q 394 540 363 563 q 473 517 425 517 q 557 537 522 517 q 594 564 569 543 q 640 584 619 584 q 668 534 668 584 q 605 370 668 370 q 553 414 590 370 q 475 441 530 441 q 361 416 420 441 q 332 392 342 408 q 306 291 321 376 q 292 152 292 206 q 300 75 292 98 q 330 40 309 52 q 350 20 350 28 q 189 0 350 0 l 140 0 q 38 22 38 0 q 96 68 38 31 q 146 136 132 91 q 213 468 153 159 z "},"G":{"ha":964,"x_min":84,"x_max":932,"o":"m 638 952 q 751 937 680 952 q 861 919 822 921 q 910 909 900 916 q 932 835 932 892 q 913 747 932 778 q 877 717 893 717 q 825 762 847 717 q 750 848 793 825 q 609 880 690 880 q 454 838 528 880 q 257 583 317 760 q 225 405 225 489 q 301 147 225 237 q 515 57 377 57 q 652 115 600 57 q 691 183 673 138 q 709 278 709 229 q 692 352 709 328 l 680 366 l 665 379 q 648 404 648 397 q 782 429 648 429 q 915 401 915 429 q 890 372 915 393 q 856 317 866 350 q 825 180 846 285 q 787 60 804 75 q 705 29 771 45 q 494 -12 532 -12 l 466 -12 q 193 90 298 -12 q 115 207 145 136 q 84 360 84 279 l 84 388 q 128 605 84 498 q 248 789 172 712 q 638 952 408 952 z "},"H":{"ha":1064,"x_min":24,"x_max":1114,"o":"m 852 687 q 865 752 852 687 q 878 836 878 817 q 862 871 878 855 l 841 886 q 810 916 810 907 q 990 943 810 943 l 1024 943 q 1114 917 1114 943 q 1067 885 1114 905 q 1010 840 1019 864 q 933 473 1000 815 q 866 104 866 131 q 882 64 866 77 l 907 52 q 951 29 951 35 q 889 1 951 1 l 822 2 l 756 1 q 639 23 639 1 q 680 63 639 34 q 730 110 721 92 q 766 257 739 128 q 792 403 792 387 q 750 454 792 447 l 718 454 l 549 454 q 334 428 355 454 q 293 276 321 412 q 266 114 266 141 q 290 68 266 87 q 334 22 334 35 q 182 0 334 0 l 116 -1 l 82 -1 l 49 -1 l 24 6 q 74 53 24 35 q 138 118 123 72 q 200 406 153 163 q 261 721 246 648 q 277 806 275 793 l 281 836 q 259 878 281 865 l 233 889 q 191 918 191 905 q 227 943 191 943 l 260 943 l 294 942 l 362 942 q 504 918 504 942 q 461 879 504 906 q 410 833 418 852 l 401 802 q 377 689 398 788 q 356 571 356 589 q 395 519 356 527 l 426 517 l 595 518 q 810 538 794 518 q 852 687 825 558 z "},"I":{"ha":492,"x_min":30,"x_max":539,"o":"m 224 481 q 256 641 224 481 q 289 834 289 800 q 255 882 289 868 q 198 917 198 905 q 361 941 198 941 l 466 942 q 497 943 496 943 q 539 920 539 943 q 475 884 539 911 q 427 834 439 869 q 348 470 415 800 q 280 105 280 140 q 324 53 280 70 q 368 15 368 37 q 180 -1 368 -1 l 75 -3 l 59 -3 q 30 11 30 -3 q 96 56 30 31 q 145 117 132 71 q 224 481 159 163 z "},"J":{"ha":573,"x_min":-17,"x_max":545,"o":"m 260 856 q 223 876 223 856 q 286 919 223 896 q 427 943 348 943 q 545 896 545 943 q 532 864 545 890 q 520 827 520 838 l 526 753 q 509 683 526 726 q 471 553 492 640 q 449 429 449 467 l 454 368 q 434 305 454 338 q 395 197 414 271 q 305 -30 357 46 q 66 -185 200 -185 q 65 -185 66 -185 l 50 -185 q 4 -172 26 -185 q -17 -148 -17 -159 q 63 -96 -17 -123 q 163 -41 144 -68 q 265 235 265 104 q 314 390 265 241 q 362 589 362 538 q 321 799 362 640 q 277 857 307 857 l 260 856 z "},"K":{"ha":965,"x_min":37,"x_max":987,"o":"m 894 23 q 724 -16 894 -16 q 663 8 682 -16 q 642 58 658 16 q 487 338 608 147 q 392 431 429 431 q 332 374 355 431 q 281 127 281 250 q 294 85 281 107 l 308 68 q 322 40 322 49 q 271 9 322 19 q 97 0 220 0 q 37 23 37 0 q 94 57 37 31 q 140 115 129 73 q 212 469 151 158 q 273 820 273 779 q 252 883 273 861 l 235 895 q 213 917 213 909 q 328 944 213 944 l 359 944 l 390 943 q 454 942 410 942 q 498 925 498 942 q 461 877 498 912 q 406 791 423 841 q 362 554 362 665 q 378 532 362 532 q 603 690 435 532 q 770 881 770 847 l 768 893 l 760 911 q 873 939 760 939 q 987 911 987 939 q 912 863 987 909 q 795 777 838 816 q 564 561 587 587 q 541 510 541 535 q 742 154 541 433 q 818 75 781 99 q 894 23 894 24 z "},"L":{"ha":823,"x_min":31,"x_max":785,"o":"m 317 73 q 459 62 350 62 q 620 92 569 62 q 713 174 671 121 q 778 227 756 227 q 785 205 785 227 q 732 39 785 125 q 642 -1 709 -1 l 519 -1 l 499 -1 l 437 -1 l 394 0 l 352 0 q 31 14 31 0 q 70 54 31 35 q 122 91 109 73 q 143 136 136 110 q 215 484 150 163 q 281 838 281 805 q 251 886 281 871 q 195 926 195 915 q 238 945 195 945 l 258 944 l 443 944 l 463 945 q 533 928 533 945 q 481 885 533 907 q 414 818 429 864 q 337 457 400 772 q 274 124 274 142 q 317 73 274 86 z "},"M":{"ha":1247,"x_min":45,"x_max":1272,"o":"m 944 0 q 861 31 861 0 l 906 93 q 943 195 929 132 q 1037 720 1037 611 q 1025 737 1037 737 q 830 443 1013 737 q 627 123 647 149 q 549 74 589 74 q 450 398 526 74 q 359 722 374 722 q 309 564 338 722 q 254 300 281 406 q 228 90 228 195 l 233 67 l 245 31 q 188 3 245 3 q 64 16 98 3 l 45 28 q 86 87 45 52 q 155 223 127 123 q 265 824 265 632 q 252 872 265 845 q 239 917 239 900 q 334 939 239 939 q 408 923 377 939 q 466 843 439 907 q 531 619 493 778 q 581 403 568 460 q 601 318 594 346 l 611 280 l 624 259 q 825 557 639 259 q 1056 898 1010 855 q 1187 941 1102 941 q 1272 918 1272 941 l 1257 903 l 1230 886 q 1177 804 1192 855 q 1097 367 1162 752 l 1062 163 l 1059 126 q 1088 71 1059 98 l 1131 32 q 944 0 1131 0 z "},"N":{"ha":1069,"x_min":36,"x_max":1122,"o":"m 201 925 q 250 941 201 941 q 355 922 299 941 q 439 875 412 904 q 627 537 467 846 q 813 227 787 227 l 823 245 q 851 367 829 260 l 865 433 q 895 580 871 471 q 919 748 919 688 q 912 831 919 808 q 893 880 905 855 q 881 912 881 905 q 938 942 881 942 l 968 942 q 1122 923 1122 942 q 1076 886 1122 910 q 1007 793 1030 861 q 868 44 958 646 q 835 5 863 5 q 785 31 814 5 q 694 146 755 56 q 529 456 686 159 q 353 752 372 752 l 343 733 q 317 610 336 715 q 267 355 298 506 q 236 150 236 203 q 258 74 236 97 l 277 60 q 303 29 303 39 q 262 -3 303 -3 l 201 -3 q 36 16 36 -3 q 54 47 36 35 q 118 95 112 87 q 149 162 137 119 q 218 472 161 205 l 245 605 q 277 825 277 751 q 239 875 277 847 q 201 925 201 903 z "},"O":{"ha":1004,"x_min":86,"x_max":987,"o":"m 854 557 l 854 581 q 836 707 854 646 q 610 890 780 889 q 341 745 458 890 q 252 578 286 678 q 218 393 218 478 l 218 358 q 283 138 218 227 q 361 71 316 94 q 452 49 406 49 l 475 49 q 736 201 622 49 q 823 369 791 273 q 854 557 854 465 m 616 954 l 631 954 q 775 923 705 954 q 968 699 916 861 q 987 566 987 640 l 987 536 q 943 333 987 437 q 672 35 854 123 q 473 -16 568 -16 l 442 -16 q 181 99 288 -16 q 111 220 136 146 q 86 371 86 294 l 86 386 q 127 596 86 491 q 239 780 168 701 q 408 906 310 858 q 616 954 506 954 z "},"P":{"ha":857,"x_min":39,"x_max":865,"o":"m 349 486 l 349 474 q 402 458 349 458 l 445 458 q 657 526 572 458 q 714 598 689 551 q 739 701 739 645 l 739 722 q 681 847 739 805 q 538 889 624 889 l 509 889 q 426 856 439 889 q 384 663 418 838 q 349 486 349 489 m 39 26 q 74 61 39 43 q 126 100 109 78 q 222 477 166 149 q 241 680 241 589 q 252 802 241 770 q 262 835 262 833 q 222 867 262 857 q 182 899 182 877 q 236 930 182 921 q 488 950 361 950 l 526 950 q 842 814 771 950 q 865 704 865 768 q 747 475 865 564 q 626 417 695 435 q 448 399 557 399 l 392 401 q 326 366 347 401 q 301 265 318 352 q 285 137 285 178 q 300 74 285 96 q 338 44 316 52 q 361 24 361 35 q 284 -7 361 -7 l 266 -7 q 177 -3 250 -7 l 101 0 q 39 26 39 0 z "},"Q":{"ha":1002,"x_min":90,"x_max":991,"o":"m 880 519 l 880 544 q 859 673 880 610 q 714 853 816 804 q 597 880 659 880 l 585 880 q 583 880 585 880 q 444 842 511 880 q 239 591 302 765 q 203 401 203 490 l 203 377 q 224 251 203 315 q 369 67 267 120 q 473 41 420 41 l 498 41 q 640 79 570 41 q 852 353 788 160 q 880 519 880 438 m 926 -106 q 956 -122 956 -106 q 930 -154 956 -138 q 801 -196 865 -196 q 686 -173 737 -196 q 227 62 297 1 q 123 205 156 123 q 90 384 90 287 q 124 582 90 480 q 231 765 158 683 q 401 896 304 848 q 601 943 498 943 l 621 943 q 880 838 778 943 q 962 708 932 785 q 991 543 991 631 l 991 523 q 966 365 991 448 q 762 77 909 182 q 655 -8 655 1 q 693 -41 655 -18 q 860 -111 807 -111 l 926 -106 z "},"R":{"ha":898,"x_min":14,"x_max":847,"o":"m 513 888 l 486 888 q 401 857 416 888 q 374 748 387 826 q 347 598 361 669 q 332 511 332 527 q 378 491 332 491 l 405 491 l 411 492 q 618 552 541 492 q 695 723 695 612 l 694 730 q 646 843 694 798 q 513 888 597 888 m 14 26 q 39 44 14 31 l 56 53 q 92 71 87 67 q 132 142 119 93 q 211 535 164 268 q 258 846 258 802 q 224 885 258 867 q 191 918 191 904 q 433 945 191 945 l 479 946 q 734 891 654 946 q 814 738 814 837 q 663 475 814 573 q 596 406 596 433 q 650 271 596 400 q 728 107 703 142 q 800 58 752 72 q 847 31 847 45 q 821 5 847 18 q 723 -7 794 -7 q 613 41 651 -7 q 542 209 574 90 q 477 374 509 328 q 371 420 446 420 q 315 382 332 420 q 263 132 263 265 q 292 71 263 97 q 320 26 320 45 q 165 1 320 1 l 71 -1 q 14 26 14 -1 z "},"S":{"ha":731,"x_min":47,"x_max":724,"o":"m 724 882 l 724 862 q 699 736 724 786 q 675 717 689 717 q 634 767 655 717 q 576 853 614 818 q 471 888 540 888 l 469 888 q 357 859 399 888 q 294 743 294 814 q 357 612 294 671 q 475 532 373 597 q 622 412 578 467 q 666 285 666 358 q 572 69 666 149 q 339 -9 477 -9 l 315 -9 q 81 35 224 -9 q 47 89 47 45 l 47 110 q 75 237 47 187 q 94 254 84 254 q 142 191 119 254 q 215 91 164 127 q 347 56 265 56 q 486 100 428 56 q 544 216 544 145 q 507 329 544 286 q 370 435 470 372 q 224 555 270 499 q 178 681 178 610 q 263 880 178 805 q 470 954 348 954 l 493 954 q 583 938 520 954 q 647 922 646 922 l 666 924 l 684 928 q 724 882 724 928 z "},"T":{"ha":886,"x_min":123,"x_max":962,"o":"m 962 920 l 962 903 q 948 777 962 808 q 924 747 935 747 q 891 789 907 747 q 837 852 875 832 q 695 871 800 871 q 640 858 658 871 q 610 810 621 844 q 541 469 599 777 q 483 127 483 161 q 496 80 483 94 q 541 53 509 66 q 572 24 572 41 q 380 1 572 1 l 287 -1 l 263 -1 q 220 17 220 -1 q 251 49 220 35 q 324 88 313 77 q 347 138 335 99 q 420 488 359 178 q 481 836 481 798 q 392 875 481 875 q 262 853 303 875 q 193 780 221 831 q 139 728 164 728 q 123 772 123 728 q 153 896 123 817 q 188 940 167 932 q 573 943 195 943 l 852 942 l 937 945 q 962 920 962 945 z "},"U":{"ha":1017,"x_min":172,"x_max":1082,"o":"m 254 821 q 226 868 254 852 q 173 914 173 898 q 412 939 173 939 q 477 918 477 939 q 438 886 477 911 q 388 822 399 861 q 361 675 385 810 q 315 437 338 541 q 292 256 292 334 q 349 123 292 178 q 496 68 406 68 q 755 224 673 68 q 835 505 789 288 q 881 770 881 722 q 863 846 881 818 q 817 919 817 918 q 949 943 817 943 q 1082 916 1082 943 q 1040 871 1082 895 q 981 806 997 848 q 933 594 976 794 q 865 297 891 394 q 802 148 839 199 q 461 -5 690 -5 q 255 61 338 -5 q 172 239 172 128 l 172 267 q 192 439 172 320 q 224 643 211 559 q 245 768 237 728 q 254 821 254 808 z "},"V":{"ha":979,"x_min":151,"x_max":1072,"o":"m 962 942 q 1072 916 1072 942 q 1023 872 1072 899 q 958 825 974 845 q 750 502 943 806 q 521 145 557 197 q 380 5 422 5 q 311 106 333 5 q 278 447 305 129 q 241 812 252 765 q 201 877 230 859 q 151 924 151 909 q 303 939 151 939 q 454 910 454 939 q 436 887 454 903 l 411 866 q 391 797 391 842 q 414 487 391 751 q 443 203 437 223 q 456 183 449 183 q 775 676 492 183 q 842 851 842 793 q 826 878 842 857 q 809 904 809 899 q 962 942 809 942 z "},"W":{"ha":1365,"x_min":201,"x_max":1423,"o":"m 1208 814 q 1245 899 1208 867 q 1333 930 1283 930 q 1398 925 1382 930 q 1423 887 1423 916 q 1397 848 1423 882 q 1154 463 1301 721 q 968 145 1008 205 q 845 50 903 50 q 768 157 786 50 q 751 375 760 205 q 740 566 743 546 l 734 593 q 603 392 724 593 q 425 113 481 191 q 327 35 370 35 q 272 90 285 35 l 268 126 q 258 391 267 145 q 243 695 250 637 q 219 807 237 754 q 201 867 201 859 l 201 887 q 220 917 201 902 q 294 932 240 932 q 386 912 347 932 q 425 860 425 892 q 401 770 425 827 q 378 633 378 712 q 387 357 378 480 q 422 274 393 274 q 484 304 456 274 q 608 500 511 334 q 670 644 648 570 q 692 754 692 718 l 692 786 l 677 841 q 727 902 677 878 q 822 927 776 927 q 906 863 906 927 l 899 840 q 881 772 887 804 q 875 676 875 741 q 897 292 875 389 q 926 262 904 262 q 1172 660 962 262 q 1208 814 1208 728 z "},"X":{"ha":956,"x_min":16,"x_max":1002,"o":"m 203 1 q 16 22 16 1 q 73 66 16 39 q 196 165 131 93 q 383 382 330 311 q 436 489 436 454 q 403 597 436 525 q 299 804 328 760 q 244 861 269 847 l 222 869 l 201 874 q 180 890 180 881 l 186 899 q 232 907 191 903 q 335 921 272 911 q 426 931 397 931 q 454 922 454 931 q 438 890 454 908 q 421 857 421 873 q 516 644 421 808 q 559 600 542 600 q 692 726 591 600 q 758 860 758 808 l 754 876 q 749 902 749 894 q 859 942 749 942 q 1002 922 1002 942 l 1002 911 q 952 882 1002 901 q 874 834 903 862 q 616 535 692 655 q 597 487 597 507 q 623 408 597 467 q 749 129 728 168 q 804 73 771 91 q 876 31 876 33 l 869 21 q 656 0 836 0 q 577 20 577 0 q 593 52 577 32 q 610 98 610 72 q 515 345 610 151 q 488 382 498 382 q 313 194 452 382 q 257 81 257 118 l 266 26 q 203 1 266 1 z "},"Y":{"ha":897,"x_min":159,"x_max":959,"o":"m 357 907 q 376 890 376 907 q 366 873 376 885 q 356 849 356 861 q 480 599 356 838 q 519 542 510 542 q 656 693 534 542 q 777 862 777 844 q 774 879 777 872 l 766 893 q 790 913 766 913 l 804 913 l 835 911 q 865 909 855 909 q 959 895 959 909 q 893 864 959 886 q 814 802 856 851 q 563 439 694 660 q 516 295 541 404 q 490 113 490 186 q 532 57 490 83 q 574 20 574 32 q 404 0 574 0 l 313 -1 l 290 -2 q 237 20 237 -2 q 284 58 237 30 q 345 115 332 86 q 393 379 393 214 q 358 557 393 425 q 285 764 322 690 q 223 852 248 838 l 206 860 l 189 867 q 159 888 159 880 q 174 895 159 895 l 286 900 q 315 901 300 900 l 329 903 q 357 907 353 907 z "},"Z":{"ha":863,"x_min":43,"x_max":878,"o":"m 817 939 q 878 903 878 939 q 723 698 878 880 q 544 481 569 515 q 464 391 519 448 q 378 295 409 334 q 234 93 234 114 q 264 67 234 71 q 445 65 277 65 q 656 81 612 65 q 726 136 700 96 q 789 224 785 224 q 811 207 811 224 q 767 35 811 109 q 659 -16 737 -16 l 630 -16 q 545 -13 621 -16 l 517 -12 l 460 -8 q 313 -5 365 -5 q 233 -5 260 -5 l 177 -7 q 73 1 102 -7 q 43 34 43 9 q 77 104 43 60 q 345 443 270 364 q 682 840 682 797 q 534 863 682 863 q 345 846 387 863 q 275 787 304 829 q 208 718 230 718 q 186 772 186 718 q 204 866 186 826 q 239 918 222 906 q 418 937 265 937 l 617 933 q 705 935 646 933 l 762 937 l 789 939 l 817 939 z "},"[":{"ha":466,"x_min":81,"x_max":510,"o":"m 463 1019 q 510 998 510 1019 q 488 962 510 973 q 417 954 477 958 q 338 942 357 950 q 306 886 319 933 q 240 380 293 840 q 187 -123 187 -79 q 203 -178 187 -167 q 275 -195 220 -189 q 341 -207 330 -201 q 353 -235 353 -213 q 307 -257 353 -257 l 218 -257 q 101 -248 122 -257 q 81 -205 81 -238 q 115 131 81 -126 q 152 416 149 388 l 155 452 q 163 519 158 465 q 171 591 169 574 l 176 625 q 218 940 208 895 q 249 1002 229 986 q 393 1018 269 1018 l 446 1019 l 463 1019 z "},"\\":{"ha":559,"x_min":72,"x_max":502,"o":"m 502 -127 q 470 -157 502 -157 q 422 -115 437 -157 q 114 836 324 149 q 89 912 106 861 q 72 970 72 964 q 104 1000 72 1000 q 151 959 136 1000 q 455 20 262 670 q 478 -54 465 -14 l 502 -127 z "},"]":{"ha":467,"x_min":-16,"x_max":412,"o":"m -16 -231 q 63 -194 -16 -201 q 157 -178 141 -186 q 179 -148 172 -170 q 246 323 185 -127 q 307 852 307 774 q 286 941 307 930 q 202 956 265 952 q 140 989 140 960 q 177 1019 140 1019 l 266 1019 q 391 1009 370 1019 q 412 960 412 999 l 412 945 q 389 715 412 885 q 326 198 366 545 q 277 -178 286 -149 q 235 -247 261 -236 q 77 -257 208 -257 l 42 -258 q -16 -231 -16 -258 z "},"^":{"ha":656,"x_min":121,"x_max":606,"o":"m 299 783 q 402 899 375 899 q 448 861 429 899 q 606 513 606 558 l 606 507 q 566 492 606 492 q 464 636 536 492 q 384 781 391 781 q 336 722 377 781 l 290 653 q 240 578 270 625 q 194 513 210 532 q 150 494 178 494 q 121 507 121 494 q 299 783 121 510 z "},"_":{"ha":672,"x_min":-20,"x_max":593,"o":"m 152 -70 l 172 -70 l 179 -71 l 564 -71 q 577 -72 571 -72 q 593 -91 593 -72 q 569 -142 593 -138 q 273 -144 557 -144 l 266 -144 l 97 -144 l 77 -145 l 30 -145 q -20 -130 -20 -145 l -20 -117 q -7 -76 -20 -83 q 152 -70 6 -70 z "},"`":{"ha":465,"x_min":157,"x_max":367,"o":"m 157 945 l 157 951 q 215 981 157 981 l 219 981 l 222 981 q 278 945 258 981 q 367 751 367 785 l 367 743 q 347 727 367 727 l 344 727 l 340 728 q 258 807 320 728 q 157 945 157 938 z "},"a":{"ha":694,"x_min":47,"x_max":632,"o":"m 495 489 l 495 507 q 475 549 495 532 q 420 566 455 566 l 400 566 q 318 538 366 566 q 237 458 271 511 q 155 206 155 332 l 155 199 q 174 110 155 145 q 229 75 193 75 l 241 75 q 328 117 276 75 q 411 213 379 158 q 469 353 444 267 q 495 489 495 439 m 515 602 l 602 613 q 623 586 623 613 q 579 385 623 558 q 536 163 536 211 q 580 116 536 116 l 605 119 q 632 106 632 119 l 632 99 q 584 46 632 74 q 502 19 536 19 q 454 36 467 19 q 430 96 441 52 l 425 123 q 418 140 421 140 q 330 75 412 140 q 183 9 248 9 l 171 9 q 80 54 114 9 q 47 170 47 98 l 47 184 q 75 330 47 248 q 269 576 131 488 q 403 620 338 620 l 416 620 q 464 611 435 620 q 515 602 494 602 z "},"b":{"ha":694,"x_min":57,"x_max":654,"o":"m 191 147 l 191 128 q 209 77 191 92 q 283 50 240 50 l 290 50 l 296 51 q 382 80 338 51 q 517 271 476 141 q 540 385 540 342 l 540 420 q 514 513 540 479 q 454 548 489 548 l 441 548 q 357 513 408 548 q 274 425 307 478 q 216 289 241 372 q 191 147 191 205 m 191 10 q 57 81 57 10 q 85 214 57 113 q 167 580 113 316 q 221 871 221 844 q 195 918 221 899 q 155 958 155 947 q 172 980 155 969 q 271 1005 214 1005 q 348 947 348 1005 q 311 749 348 918 q 273 544 273 579 q 284 509 273 509 q 321 526 296 509 l 346 544 q 504 605 436 605 q 613 562 572 605 q 654 447 654 519 l 654 413 q 623 271 654 347 q 429 44 557 114 q 293 4 355 4 l 277 4 l 191 10 z "},"c":{"ha":578,"x_min":56,"x_max":568,"o":"m 263 -12 l 249 -12 q 108 52 161 -12 q 56 205 56 115 q 165 506 56 385 q 417 627 274 627 q 528 603 488 627 q 568 536 568 578 l 568 524 q 553 485 568 505 q 524 466 537 466 q 471 516 498 466 q 398 566 444 566 q 311 538 353 566 q 237 463 269 510 q 172 224 172 366 q 209 113 172 157 q 294 69 245 69 q 409 103 344 69 q 485 136 475 136 q 496 125 496 136 q 414 37 496 86 q 263 -12 332 -12 z "},"d":{"ha":728,"x_min":46,"x_max":715,"o":"m 715 943 q 642 570 715 897 q 570 185 570 243 q 584 115 570 127 q 624 99 597 103 q 651 85 651 95 q 631 52 651 68 q 522 10 579 10 l 508 10 q 451 66 481 10 q 412 123 420 123 q 370 96 404 123 q 196 12 265 12 q 86 58 127 12 q 46 184 46 103 q 78 346 46 265 q 167 489 111 426 q 284 578 224 552 q 432 604 344 604 q 543 640 520 604 q 576 770 556 659 q 595 886 595 880 q 557 920 595 905 q 519 951 519 935 q 530 971 519 962 q 660 1002 569 1002 q 715 957 715 1002 l 715 943 m 247 70 l 259 70 q 328 96 281 70 q 477 318 427 152 q 503 452 503 406 l 505 471 l 506 497 l 506 503 q 484 547 506 528 q 422 566 461 566 l 401 566 q 329 542 373 566 q 246 468 284 519 q 184 352 208 417 q 160 229 160 288 l 160 195 q 184 106 160 143 q 247 70 209 70 z "},"e":{"ha":597,"x_min":54,"x_max":576,"o":"m 401 580 l 381 580 q 256 505 322 580 q 190 361 190 431 l 191 358 q 203 340 191 340 l 212 340 q 400 402 286 340 q 469 487 469 440 l 469 499 q 450 558 469 536 q 401 580 430 580 m 54 205 l 54 231 q 85 387 54 313 q 285 606 151 540 q 408 636 346 636 l 420 636 q 534 597 492 636 q 576 503 576 559 q 519 388 576 427 q 286 307 437 330 q 201 286 221 296 q 171 209 171 271 q 209 110 171 147 q 312 73 248 73 q 396 96 349 73 q 436 120 403 100 q 481 140 469 140 q 500 122 500 140 q 415 38 500 84 q 263 -9 330 -9 l 237 -9 q 108 53 163 -9 q 54 205 54 115 z "},"f":{"ha":447,"x_min":-64,"x_max":643,"o":"m 522 1009 l 542 1009 q 615 993 588 1009 q 643 950 643 977 q 626 903 643 923 q 590 882 610 882 q 538 908 570 882 q 475 935 505 935 q 380 852 426 935 q 334 667 334 770 q 391 619 334 633 q 448 588 448 604 q 381 550 448 582 q 298 482 313 519 q 236 189 296 476 q 150 -142 175 -99 q 86 -208 125 -184 q 6 -231 47 -231 q -55 -211 -35 -231 q -64 -186 -64 -202 q -30 -157 -64 -157 q 43 -100 4 -157 q 83 -13 68 -64 q 133 234 98 39 q 168 472 168 430 q 147 546 168 513 q 126 593 126 578 q 159 629 126 608 q 205 673 191 651 q 249 778 207 677 q 339 924 291 878 q 436 989 387 969 q 522 1009 485 1009 z "},"g":{"ha":625,"x_min":-58,"x_max":628,"o":"m 189 345 q 209 273 189 296 q 247 251 229 251 l 260 251 q 362 319 307 251 q 418 462 418 387 l 420 476 l 421 500 l 421 525 q 400 588 421 565 q 351 611 380 611 l 346 611 l 341 610 q 235 533 280 610 q 190 373 190 455 l 189 363 l 189 345 m 217 9 l 201 9 q 94 -36 138 9 q 49 -124 49 -81 l 49 -134 q 103 -217 49 -184 q 225 -250 157 -250 l 258 -250 q 275 -249 269 -249 q 390 -211 339 -249 q 440 -129 440 -173 l 440 -119 q 369 -30 440 -68 q 217 9 298 9 m 568 586 q 527 497 527 586 q 452 303 527 382 q 334 228 400 249 q 211 164 211 189 q 240 112 211 134 q 361 57 270 90 q 496 -15 453 23 q 538 -102 538 -53 q 455 -252 538 -198 q 230 -305 372 -305 q 15 -258 87 -305 q -58 -140 -58 -212 q 38 -3 -58 -69 q 86 49 73 22 q 137 202 137 155 q 127 229 137 210 q 101 301 117 248 q 86 401 86 354 q 117 502 86 449 q 416 659 210 659 l 418 659 l 497 653 q 531 655 511 653 l 564 659 l 579 659 q 628 627 628 659 l 628 615 q 568 586 628 586 z "},"h":{"ha":732,"x_min":58,"x_max":640,"o":"m 117 -1 q 58 57 58 -1 q 92 194 58 82 q 147 422 125 305 q 224 848 224 825 q 204 900 224 871 q 183 941 183 928 q 205 975 183 954 q 266 996 227 996 q 349 908 349 996 q 313 712 349 876 q 277 522 277 548 q 294 496 277 496 q 350 532 304 496 q 434 587 395 567 q 527 606 474 606 q 610 565 580 606 q 640 466 640 523 l 640 444 q 612 286 640 423 q 585 126 585 149 q 599 78 585 103 q 604 59 607 59 q 593 57 601 59 l 566 50 q 493 40 518 40 q 467 79 467 40 q 494 240 467 118 q 520 422 520 361 q 495 510 520 483 q 439 536 469 536 q 438 536 439 536 q 370 507 409 536 q 229 241 281 440 q 211 139 221 210 q 195 54 201 68 q 117 -1 170 -1 z "},"i":{"ha":406,"x_min":77,"x_max":381,"o":"m 379 848 q 357 807 379 829 q 311 785 334 785 l 297 785 q 256 802 274 785 q 239 839 239 820 l 237 852 l 237 860 l 237 862 l 237 867 q 239 873 239 871 q 261 915 239 892 q 311 937 284 937 l 319 937 q 361 920 344 937 q 379 886 379 902 l 381 871 l 381 862 l 380 860 l 380 855 q 379 848 379 850 m 114 524 q 95 545 95 524 q 121 573 95 555 q 273 625 200 625 l 281 625 q 319 575 319 625 q 275 356 319 526 q 231 138 231 186 q 262 89 231 89 q 294 96 276 89 q 322 103 311 103 q 330 94 330 103 l 330 88 q 292 52 330 73 q 127 -5 196 -5 q 77 38 77 -5 l 77 47 q 98 112 77 60 q 156 301 119 163 q 192 482 192 438 q 151 526 192 526 q 114 524 121 524 z "},"j":{"ha":383,"x_min":-143,"x_max":385,"o":"m 243 854 l 243 873 q 245 891 245 880 q 266 923 245 902 q 302 943 286 943 l 314 945 l 326 945 q 367 927 349 945 q 385 881 385 909 l 385 873 l 382 855 q 361 818 382 839 q 327 797 340 797 q 320 795 323 795 l 309 794 l 307 795 l 300 795 l 290 796 q 260 813 277 796 q 243 854 243 830 m -94 -200 l -37 -210 q 83 -73 36 -210 q 154 242 115 16 q 194 474 194 469 q 176 521 194 505 q 129 528 168 528 q 90 541 90 528 q 115 568 90 554 q 271 626 214 626 q 315 568 315 626 l 315 545 q 266 258 315 532 q 178 -104 217 -16 q 70 -244 138 -193 q -64 -294 2 -294 l -76 -294 q -143 -255 -143 -294 l -143 -244 q -126 -214 -143 -229 q -94 -200 -109 -200 z "},"k":{"ha":708,"x_min":70,"x_max":645,"o":"m 179 555 q 204 693 179 555 q 229 872 229 831 q 218 924 229 913 q 181 948 208 935 q 155 974 155 962 q 169 994 155 986 q 303 1017 209 1017 l 324 1017 q 354 983 354 1017 q 311 710 354 970 q 269 432 269 450 q 286 369 269 369 q 423 497 292 369 q 484 545 449 522 q 532 584 519 567 l 535 590 q 592 593 539 593 q 645 568 645 593 q 591 517 645 555 q 527 469 538 479 q 427 336 427 375 q 545 115 427 298 q 609 68 574 68 q 621 70 616 68 l 598 59 q 511 35 545 35 q 452 68 477 35 q 425 121 439 83 q 315 305 350 305 q 260 245 284 305 q 233 136 243 206 q 210 50 223 66 q 119 15 179 15 q 84 32 98 15 q 70 67 70 49 q 77 103 70 85 l 94 141 q 118 227 105 175 q 179 555 130 279 z "},"l":{"ha":388,"x_min":73,"x_max":373,"o":"m 252 91 l 307 106 q 316 94 316 106 q 278 60 316 83 q 124 -3 175 -3 q 73 46 73 -3 l 73 57 q 105 202 73 71 q 158 439 138 333 q 212 700 178 546 q 246 887 246 854 q 206 933 246 920 q 166 962 166 946 q 177 975 166 969 q 332 1002 231 1002 l 345 1002 q 373 966 373 1002 l 373 954 q 339 789 373 937 q 260 399 306 640 q 214 151 214 158 q 252 91 214 91 z "},"m":{"ha":1102,"x_min":121,"x_max":1000,"o":"m 899 42 q 837 136 837 42 q 851 270 837 178 q 865 408 865 363 q 850 486 865 452 q 814 519 836 519 q 675 378 743 519 q 609 181 642 309 q 566 37 576 54 q 471 -2 543 -2 q 439 21 439 -2 q 460 104 439 45 q 510 289 481 164 q 538 455 538 413 q 522 511 538 496 q 471 526 505 526 q 386 479 437 526 q 308 387 335 433 q 240 195 281 340 q 170 49 199 49 q 151 62 161 49 q 121 193 121 106 l 121 215 q 134 290 121 243 q 146 350 146 336 q 142 390 146 363 q 137 463 137 417 q 157 539 137 509 q 196 569 176 569 q 244 541 204 569 q 275 500 254 535 q 299 487 283 487 q 351 531 302 487 q 447 599 399 574 q 544 623 494 623 q 619 585 595 623 q 639 524 627 572 q 665 475 651 475 q 665 475 665 475 q 716 511 675 475 q 891 594 812 594 q 972 561 944 594 q 1000 476 1000 528 q 978 319 1000 424 q 956 175 956 214 q 972 101 956 135 q 986 68 989 68 l 973 72 l 964 66 l 949 60 q 899 42 909 42 z "},"n":{"ha":760,"x_min":104,"x_max":682,"o":"m 546 456 q 477 549 546 549 q 424 525 457 549 q 254 229 309 444 l 240 170 l 220 96 l 213 61 l 210 45 q 161 12 199 12 q 122 39 140 12 q 104 123 104 66 l 104 140 q 136 253 104 174 q 168 375 168 332 q 143 452 168 418 q 119 488 119 486 q 138 564 119 536 q 213 606 166 606 q 281 553 260 606 q 286 496 286 540 q 288 452 286 452 q 346 505 292 452 q 557 622 465 622 l 576 622 q 643 594 615 622 q 671 510 671 566 q 636 309 671 454 q 600 134 600 164 q 613 92 600 104 q 655 80 626 80 l 682 86 q 651 66 682 84 q 525 16 567 16 q 493 33 508 16 q 479 94 479 50 q 512 264 479 102 q 546 456 546 427 z "},"o":{"ha":660,"x_min":56,"x_max":622,"o":"m 404 579 l 390 579 q 311 551 354 579 q 237 473 268 524 q 168 232 168 360 l 168 218 q 200 96 168 141 q 283 50 233 50 l 290 51 l 296 51 q 366 76 326 51 q 437 151 405 102 q 511 391 511 267 l 511 413 q 480 533 511 488 q 404 579 448 579 m 394 638 l 425 638 q 564 573 505 638 q 622 412 622 509 l 622 373 q 593 235 622 305 q 404 23 534 90 q 285 -9 342 -9 l 255 -9 q 114 58 172 -9 q 56 216 56 125 l 56 256 q 86 395 56 324 q 266 602 148 539 q 394 638 336 638 z "},"p":{"ha":726,"x_min":-14,"x_max":680,"o":"m 231 157 l 231 132 q 258 83 231 100 q 317 65 285 65 l 337 65 q 420 94 376 65 q 496 168 464 123 q 573 402 573 277 l 573 416 q 544 527 573 484 q 469 570 515 570 l 457 570 q 380 537 420 570 q 252 294 296 469 q 231 157 231 210 m 216 -272 q 73 -317 216 -317 l 56 -317 q 3 -302 19 -317 q -14 -281 -14 -288 l -14 -271 q 8 -226 -14 -262 q 42 -159 30 -191 q 76 -33 54 -127 q 165 453 165 342 q 138 516 165 492 q 111 546 111 541 q 157 591 111 570 q 248 613 202 613 q 279 589 263 613 l 283 585 l 286 580 l 290 575 q 313 583 294 575 q 405 605 331 591 q 503 619 479 619 q 631 568 583 619 q 680 431 680 517 l 680 414 q 645 259 680 338 q 556 124 611 179 q 445 47 502 70 q 310 25 389 25 q 196 -24 231 25 q 161 -170 161 -73 q 172 -213 161 -197 q 200 -244 183 -228 q 216 -272 216 -261 z "},"q":{"ha":703,"x_min":55,"x_max":667,"o":"m 251 81 l 263 81 q 369 132 307 81 q 495 352 450 199 q 520 506 520 435 l 520 512 q 496 562 520 543 q 434 581 473 581 l 420 581 q 331 552 379 581 q 243 468 282 524 q 183 348 203 413 q 163 237 163 283 l 163 209 q 188 116 163 151 q 251 81 214 81 m 441 99 q 437 110 441 110 q 351 67 433 110 q 203 24 270 24 q 96 73 136 24 q 55 198 55 122 l 55 233 q 90 378 55 299 q 298 602 160 533 q 408 629 352 629 l 424 629 q 491 615 452 629 q 543 601 530 601 q 585 611 555 601 q 624 621 614 621 q 667 578 667 621 q 647 505 667 555 q 603 335 627 454 l 574 193 q 506 -206 506 -131 q 524 -262 506 -239 q 543 -290 543 -284 q 431 -321 543 -321 q 330 -296 360 -321 q 317 -273 317 -286 q 350 -209 317 -260 q 399 -107 382 -157 q 441 99 441 24 z "},"r":{"ha":554,"x_min":98,"x_max":557,"o":"m 155 -3 q 98 86 98 -3 l 98 98 q 138 232 98 100 q 178 414 178 363 q 154 483 178 464 q 108 530 108 518 q 146 589 108 561 q 216 617 184 617 q 270 601 249 617 q 290 552 290 585 l 287 490 q 295 465 287 465 q 344 511 303 465 q 421 584 385 557 q 507 611 457 611 q 557 566 557 611 l 557 559 q 539 520 557 538 q 487 503 520 503 l 421 514 q 314 384 370 514 q 257 136 257 254 l 258 116 q 258 94 258 105 q 236 24 258 51 q 168 -3 213 -3 l 155 -3 z "},"s":{"ha":529,"x_min":31,"x_max":505,"o":"m 31 88 q 79 165 31 165 q 114 125 91 165 q 162 67 137 86 q 237 47 188 47 q 317 74 287 47 q 347 139 347 100 q 325 204 347 179 q 240 276 303 230 q 151 360 177 323 q 125 458 125 397 q 184 574 125 519 q 338 629 243 629 l 353 629 q 461 610 417 629 q 505 549 505 591 q 485 487 505 507 q 462 477 476 477 q 404 532 448 477 q 324 572 372 572 q 251 547 276 572 q 226 486 226 521 q 249 425 226 451 q 336 353 272 398 q 427 271 401 307 q 452 170 452 234 q 388 47 452 105 q 230 -11 323 -11 l 200 -11 q 63 23 125 -11 q 31 88 31 41 z "},"t":{"ha":465,"x_min":107,"x_max":453,"o":"m 107 98 l 107 124 q 138 313 107 171 q 170 495 170 455 q 143 558 170 534 q 117 585 117 581 q 189 640 117 589 q 252 747 210 655 q 317 805 279 805 q 346 765 346 805 l 342 727 q 338 679 338 694 q 387 629 338 646 q 453 591 453 607 q 376 559 453 559 q 293 479 320 559 q 224 155 224 272 q 269 101 224 101 q 318 115 281 101 q 376 129 355 129 q 391 102 391 129 q 335 43 391 76 q 206 -6 250 -6 q 135 21 162 -6 q 107 98 107 49 z "},"u":{"ha":757,"x_min":89,"x_max":658,"o":"m 232 161 q 286 77 232 77 q 344 100 309 77 q 538 467 481 192 q 557 554 554 545 q 602 597 572 597 q 630 571 614 597 q 646 467 646 545 q 630 372 646 458 q 614 257 614 286 q 636 175 614 229 q 658 111 658 121 q 631 38 658 66 q 571 10 604 10 q 514 39 538 10 q 490 132 490 68 l 491 149 l 492 167 q 488 188 492 188 q 434 134 483 188 q 327 41 385 80 q 215 2 269 2 l 197 2 q 134 29 161 2 q 107 109 107 56 q 143 311 107 161 q 178 494 178 461 q 134 536 178 536 l 118 535 l 96 532 q 89 535 89 532 q 115 554 89 538 q 241 606 198 606 q 274 585 254 606 q 293 524 293 564 q 262 348 293 484 q 232 161 232 213 z "},"v":{"ha":699,"x_min":72,"x_max":692,"o":"m 623 628 q 692 557 692 628 q 656 461 692 534 q 502 181 557 256 q 389 59 447 105 q 292 12 332 12 q 237 50 252 12 q 223 225 223 88 q 207 412 223 361 q 159 497 191 463 q 107 515 143 515 q 72 531 72 515 q 104 568 72 547 q 239 621 186 621 q 294 561 265 621 q 323 435 323 501 l 322 418 q 321 387 321 402 l 320 354 q 319 313 319 338 l 319 256 q 339 140 319 140 q 371 157 347 140 q 484 273 433 201 q 566 475 566 389 q 553 529 566 496 q 539 573 539 561 q 564 607 539 585 q 623 628 589 628 z "},"w":{"ha":1028,"x_min":102,"x_max":1003,"o":"m 346 151 q 369 163 357 151 q 449 290 416 210 q 490 426 483 371 q 513 553 505 539 q 586 604 544 604 q 640 585 627 604 q 652 505 652 566 q 673 227 652 349 q 713 155 686 155 q 739 172 724 155 q 843 331 802 242 q 884 485 884 419 q 903 579 884 551 q 944 608 922 608 q 985 592 967 608 q 1003 551 1003 576 l 1003 531 q 969 446 1003 525 q 798 116 883 247 q 710 26 757 52 q 672 14 686 14 q 605 69 631 14 q 567 204 595 91 q 527 317 540 317 q 472 232 523 317 q 399 132 431 169 q 285 43 320 43 q 218 178 229 43 q 174 410 208 313 q 157 441 170 424 l 146 454 q 125 479 127 476 q 102 554 102 515 q 131 594 102 571 q 192 617 160 617 q 283 568 253 617 q 300 479 300 541 l 296 432 q 346 151 296 151 z "},"x":{"ha":694,"x_min":26,"x_max":673,"o":"m 516 456 q 425 297 425 356 q 488 142 425 239 q 572 90 521 90 l 585 91 l 606 94 q 615 84 615 94 q 589 57 615 75 q 463 4 510 4 q 415 34 434 4 q 365 144 397 64 q 320 223 332 223 q 221 113 308 223 q 114 2 134 2 q 49 22 72 2 q 26 53 26 42 q 46 91 26 79 q 90 98 47 92 q 168 141 132 104 q 294 328 294 271 q 230 488 294 385 q 170 530 204 530 l 155 528 l 131 526 l 114 529 q 151 571 114 547 q 254 616 221 616 q 311 576 286 616 q 352 486 323 557 q 390 416 382 416 q 492 518 415 416 q 592 621 570 621 q 654 601 634 621 q 673 566 673 581 q 610 522 673 536 q 516 456 568 513 z "},"y":{"ha":665,"x_min":-3,"x_max":661,"o":"m 599 613 q 642 602 623 613 q 661 564 661 591 q 604 425 661 552 q 353 -49 469 123 q 203 -225 291 -142 q 75 -309 115 -309 l 58 -309 q -3 -269 -3 -309 q 65 -222 -3 -235 q 183 -159 133 -210 q 273 30 273 -68 q 259 96 273 42 q 213 312 245 151 q 178 481 181 473 q 114 529 161 521 q 89 534 89 534 l 111 546 q 218 587 185 587 q 332 323 289 587 q 376 168 357 168 q 475 304 412 168 q 538 507 538 439 l 528 575 q 599 613 528 613 z "},"z":{"ha":645,"x_min":50,"x_max":621,"o":"m 557 142 q 578 93 578 142 q 546 9 578 43 q 445 -24 514 -24 l 427 -24 q 290 -1 389 -24 q 168 22 191 22 q 118 18 144 22 l 102 16 q 72 12 75 12 q 50 24 50 12 l 50 33 q 98 129 50 71 q 298 338 147 187 q 449 511 449 489 q 290 532 449 532 q 204 507 234 532 q 139 461 149 461 q 115 498 115 461 q 159 602 115 560 q 257 627 186 627 l 275 627 q 379 613 307 627 q 483 599 451 599 q 552 609 515 599 q 596 620 588 620 q 621 594 621 620 q 461 404 621 568 q 277 210 302 241 q 218 98 218 139 q 410 77 218 77 q 487 92 463 77 q 529 124 511 106 q 557 142 547 142 z "},"{":{"ha":473,"x_min":84,"x_max":513,"o":"m 513 1005 q 453 959 513 977 q 372 903 393 941 q 350 721 350 865 q 320 513 350 576 q 235 413 290 450 q 205 387 205 393 q 233 362 205 382 q 278 311 260 343 q 296 222 296 279 q 269 54 296 165 q 242 -98 242 -56 q 258 -157 242 -140 q 317 -191 275 -174 q 359 -222 359 -209 q 323 -251 359 -251 q 189 -211 230 -251 q 147 -90 147 -171 q 172 59 147 -39 q 196 221 196 157 q 175 313 196 286 q 119 353 155 340 q 84 390 84 366 q 118 417 84 403 q 161 438 151 431 q 226 522 200 464 q 252 733 252 580 q 312 959 252 886 q 477 1019 362 1019 q 513 1005 513 1019 z "},"|":{"ha":362,"x_min":131,"x_max":277,"o":"m 187 751 q 194 878 189 791 q 198 984 198 964 q 209 1012 198 1004 q 249 1020 220 1020 q 277 994 277 1020 l 265 804 l 262 751 l 260 724 l 259 697 q 258 671 258 672 l 256 644 q 254 590 254 604 l 243 400 q 239 341 243 391 q 233 237 235 291 l 230 183 q 228 156 228 158 l 224 76 q 219 -12 224 54 q 214 -100 215 -77 l 212 -127 l 211 -140 l 209 -167 q 208 -219 208 -194 q 197 -253 208 -245 q 158 -262 186 -262 q 131 -235 131 -262 l 131 -222 q 150 105 131 -143 q 168 428 168 354 l 179 616 l 180 630 l 182 657 q 183 684 183 675 l 187 751 z "},"}":{"ha":479,"x_min":6,"x_max":434,"o":"m 199 1021 q 333 979 292 1021 q 374 857 374 938 q 350 715 374 821 q 326 547 326 610 q 389 422 326 450 q 434 392 434 404 q 381 345 434 373 q 305 271 328 316 q 269 58 269 199 l 269 41 q 268 7 268 24 q 214 -180 268 -112 q 56 -249 161 -249 l 39 -249 q 6 -234 6 -249 q 66 -189 6 -208 q 148 -131 127 -169 q 168 42 168 -92 q 190 233 168 176 q 247 326 212 290 q 284 357 256 335 q 312 385 312 378 q 286 408 312 391 q 223 542 223 452 q 251 713 223 606 q 279 867 279 821 q 260 930 279 913 q 201 961 242 947 q 159 993 159 975 q 199 1021 159 1021 z "},"~":{"ha":741,"x_min":101,"x_max":702,"o":"m 532 365 l 511 365 q 380 408 463 365 q 255 452 298 452 q 178 424 212 452 q 150 393 168 416 q 120 371 132 371 q 101 392 101 371 q 174 500 101 444 q 278 536 220 536 l 285 536 q 422 492 335 536 q 551 448 510 448 q 623 477 593 448 q 683 528 678 528 q 702 507 702 528 q 645 412 702 459 q 532 365 588 365 z "},"":{"ha":352,"x_min":0,"x_max":0,"o":""},"":{"ha":366,"x_min":41,"x_max":351,"o":"m 199 673 q 201 690 199 673 q 223 726 201 700 q 273 753 245 753 l 290 753 q 330 734 311 753 q 349 699 349 715 q 350 692 350 695 l 351 683 l 351 677 q 326 621 351 646 q 277 595 301 595 l 258 595 q 250 597 252 597 q 216 619 234 597 q 199 661 199 641 l 199 670 l 199 673 m 236 483 l 243 483 q 260 460 260 483 l 260 452 q 233 257 260 420 q 193 -3 205 95 q 170 -143 180 -100 q 86 -220 152 -220 l 79 -220 q 41 -189 41 -220 l 41 -182 l 41 -174 q 193 422 41 -96 q 236 483 210 483 z "},"":{"ha":589,"x_min":86,"x_max":568,"o":"m 191 293 l 191 276 q 229 141 191 203 q 257 115 244 115 q 275 157 270 115 q 279 178 277 167 q 284 210 280 190 l 290 237 q 297 275 291 243 q 313 347 303 308 q 325 397 323 387 q 330 414 328 407 q 335 433 331 420 l 344 464 q 348 478 347 473 q 354 499 349 483 q 364 533 359 515 q 375 568 369 550 q 380 588 380 585 l 380 591 q 373 594 380 594 q 321 564 366 594 q 254 496 277 533 q 191 293 191 398 m 568 557 q 529 506 568 506 q 489 532 520 506 q 450 559 458 559 q 402 480 425 559 q 323 136 323 212 q 353 107 323 107 q 421 127 376 107 q 476 147 466 147 q 486 138 486 147 q 421 70 486 111 q 373 43 417 67 q 314 6 328 19 q 280 -53 299 -7 q 236 -98 262 -98 q 224 -51 224 -98 q 218 7 224 -4 q 170 53 212 18 q 86 251 86 124 q 150 472 86 377 q 306 618 214 567 q 370 659 360 650 q 401 718 379 667 q 441 768 422 768 q 465 732 465 768 q 516 645 465 696 q 568 557 568 593 z "},"":{"ha":785,"x_min":27,"x_max":770,"o":"m 624 949 l 648 949 q 736 924 703 949 q 770 856 770 899 q 753 798 770 813 q 721 782 737 782 q 654 820 683 782 q 582 859 626 859 q 496 831 537 859 q 428 757 455 803 q 364 501 364 650 q 397 440 364 457 l 414 435 l 458 429 q 505 401 505 418 q 431 358 505 384 q 328 290 356 333 q 295 210 311 264 q 269 133 279 157 q 259 96 259 109 q 300 29 259 44 q 407 20 328 20 q 531 43 486 20 q 591 94 577 66 q 646 149 619 149 q 680 102 680 149 q 662 13 680 55 q 614 -53 644 -28 q 505 -78 585 -78 l 481 -78 q 344 -59 445 -78 q 214 -39 243 -39 q 138 -58 185 -39 q 59 -77 92 -77 q 27 -43 27 -77 q 83 27 27 -9 q 174 102 162 79 q 218 294 218 189 q 168 348 218 332 q 117 378 117 363 q 168 421 117 399 q 227 464 218 442 l 232 485 l 236 509 q 286 699 260 633 q 458 904 340 839 q 624 949 541 949 z "},"":{"ha":720,"x_min":77,"x_max":692,"o":"m 358 261 l 374 261 q 496 320 441 261 q 550 452 550 379 l 550 458 q 508 560 550 518 q 418 602 467 602 l 396 602 q 271 541 322 602 q 220 410 220 479 l 220 399 q 250 316 220 352 q 358 261 294 261 m 610 554 q 617 513 610 549 q 625 445 625 477 q 608 370 625 412 l 573 286 q 602 239 573 271 q 630 186 630 208 q 588 154 630 154 q 538 190 570 154 q 488 225 506 225 q 458 216 481 225 q 413 200 435 207 q 353 193 392 193 q 270 210 313 193 q 224 227 227 227 q 168 190 210 227 q 117 153 127 153 q 77 186 77 153 q 119 240 77 199 q 161 306 161 281 q 153 342 161 313 q 145 409 145 371 q 170 506 145 452 q 193 576 193 560 q 166 624 193 592 q 138 677 138 656 q 184 705 138 705 q 230 671 200 705 q 282 637 260 637 q 331 653 283 637 q 415 669 378 669 q 495 652 452 669 q 552 635 539 635 q 604 671 564 635 q 653 707 644 707 q 692 674 692 707 q 651 620 692 655 q 610 554 610 584 z "},"":{"ha":870,"x_min":165,"x_max":915,"o":"m 915 892 q 864 854 915 883 q 779 785 813 826 q 679 646 718 713 q 640 554 640 578 q 644 516 640 530 l 652 503 q 661 477 661 486 q 627 426 661 444 q 568 368 568 393 q 605 335 568 358 q 642 295 642 311 q 588 261 642 279 q 504 203 535 242 q 473 107 473 163 q 509 61 473 90 q 545 15 545 32 q 489 -1 545 -1 l 458 -1 l 279 -1 q 231 23 231 -1 q 271 57 231 33 q 319 92 312 81 q 338 160 338 120 q 315 235 338 200 q 273 263 306 247 q 239 291 239 279 q 291 332 239 311 q 343 384 343 353 q 308 423 343 414 q 273 442 273 431 q 296 492 273 474 q 335 550 335 522 q 310 672 335 579 q 264 798 284 765 q 205 851 244 830 q 165 878 165 872 q 261 895 165 895 q 357 882 357 895 q 349 865 357 879 q 340 841 340 851 q 375 771 340 830 q 450 633 410 713 q 497 554 490 554 q 621 675 522 554 q 717 787 663 727 q 770 856 770 847 q 762 883 770 865 q 761 901 753 901 l 783 900 q 834 903 794 900 l 895 907 q 915 892 915 907 z "},"":{"ha":360,"x_min":117,"x_max":267,"o":"m 224 1003 l 241 1003 q 267 979 267 1003 l 267 962 l 267 957 l 267 945 l 265 928 l 264 905 l 262 888 l 252 727 l 250 692 l 248 669 l 248 658 l 247 641 l 247 629 l 244 595 l 242 566 l 241 543 q 205 496 241 496 l 199 496 l 194 497 q 163 520 163 497 l 163 531 l 163 537 l 163 549 l 165 595 l 168 623 q 170 652 170 646 l 172 686 l 172 698 l 174 726 q 174 738 174 732 l 175 744 l 176 749 l 178 784 l 178 795 l 180 841 l 181 847 l 183 882 q 185 910 185 900 l 186 933 q 193 989 186 975 q 224 1003 199 1003 m 142 185 q 180 238 142 238 l 197 238 q 220 223 220 238 l 220 184 l 220 178 l 218 138 l 216 126 l 214 92 q 214 79 214 85 l 210 22 l 208 -7 l 207 -30 q 205 -47 205 -41 l 199 -153 l 199 -164 l 199 -170 l 198 -176 l 195 -219 q 195 -231 195 -225 q 159 -273 195 -273 l 142 -273 q 117 -254 117 -273 l 117 -208 l 125 -98 l 125 -87 l 125 -75 l 127 -47 l 129 -23 q 130 -5 130 -12 l 136 98 q 138 127 138 117 l 139 133 l 140 138 l 142 174 q 142 185 142 180 z "},"":{"ha":698,"x_min":108,"x_max":616,"o":"m 518 320 l 518 341 q 460 504 518 409 q 380 589 440 535 q 345 608 359 608 l 341 608 q 272 560 305 608 q 239 471 239 513 l 239 456 q 284 357 239 407 q 380 277 303 336 q 460 218 458 218 l 464 218 q 498 246 479 218 q 518 320 518 275 m 508 848 q 438 877 487 877 q 363 844 389 877 q 338 766 338 810 q 372 680 338 722 q 470 597 387 661 q 584 485 552 533 q 616 363 616 437 q 568 229 616 290 q 519 101 519 168 q 445 -100 519 -24 q 256 -176 370 -176 l 237 -176 q 145 -149 183 -176 q 108 -80 108 -122 q 153 -16 108 -16 q 203 -60 174 -16 q 288 -103 233 -103 q 374 -75 342 -103 q 406 3 406 -47 q 367 100 406 54 q 288 166 361 106 q 186 273 214 227 q 159 386 159 318 q 207 525 159 454 q 255 615 255 595 l 254 630 l 251 646 l 248 664 q 245 720 245 679 q 309 871 245 807 q 461 935 373 935 l 480 935 q 569 913 540 935 q 598 866 598 892 q 556 800 598 800 q 508 848 543 800 z "},"":{"ha":578,"x_min":163,"x_max":540,"o":"m 294 852 l 293 835 q 273 806 293 826 q 233 786 253 786 l 218 786 q 181 803 198 786 q 163 846 163 821 l 163 852 l 166 869 q 183 900 166 878 q 220 921 200 921 q 226 922 224 922 l 235 923 l 256 920 q 279 904 263 920 q 295 865 295 888 l 295 854 l 294 852 m 467 786 q 424 806 440 786 q 408 846 408 827 l 408 853 l 410 870 q 427 900 410 880 q 460 921 444 921 l 464 922 l 479 924 l 481 924 l 498 921 q 524 904 510 921 q 538 876 538 886 l 540 863 l 540 857 l 539 855 l 539 852 l 537 840 q 520 810 537 831 q 489 789 503 789 q 481 787 483 787 l 471 786 l 467 786 z "},"":{"ha":1083,"x_min":106,"x_max":1041,"o":"m 168 460 l 168 421 q 199 273 168 346 q 422 66 264 124 q 550 45 482 45 l 576 45 q 725 80 648 45 q 941 296 871 146 q 980 458 980 380 l 980 498 q 946 647 980 575 q 749 844 880 788 q 598 876 675 876 l 585 876 q 304 760 424 876 q 207 619 245 703 q 168 460 168 535 m 715 208 q 580 171 654 171 q 461 189 506 171 q 381 243 418 206 q 309 439 309 315 q 383 652 309 562 q 479 724 423 699 q 596 749 536 749 l 610 749 q 759 724 722 749 q 782 658 782 707 l 782 646 q 763 595 782 595 q 707 636 744 595 q 666 678 670 676 q 588 697 631 697 q 445 608 498 697 q 407 445 407 545 q 458 289 407 345 q 586 232 509 232 q 684 274 636 232 q 751 317 732 317 q 763 291 763 317 q 715 208 763 237 m 1041 492 l 1041 476 q 1006 299 1041 392 q 903 136 972 207 q 743 27 835 66 q 563 -12 652 -12 l 548 -12 q 235 113 364 -12 q 106 428 106 239 l 107 443 l 107 458 q 146 631 107 538 q 251 789 186 724 q 587 933 395 933 l 588 933 q 908 810 781 933 q 1003 665 966 753 q 1041 492 1041 577 z "},"":{"ha":566,"x_min":111,"x_max":522,"o":"m 414 833 l 414 840 q 367 885 414 885 l 354 885 q 238 814 288 885 q 188 663 188 743 l 188 659 q 203 603 188 620 q 235 585 218 585 l 239 585 q 357 666 300 585 q 414 833 414 747 m 483 928 q 498 891 498 928 q 474 764 498 853 q 450 645 450 674 q 472 615 450 615 l 505 618 q 522 601 522 618 q 489 559 522 584 q 426 534 457 534 q 377 571 394 534 q 357 608 361 608 q 335 598 353 608 q 304 578 317 587 q 193 532 243 532 l 184 532 q 132 558 153 532 q 111 634 111 585 q 201 844 111 731 q 280 912 239 891 q 345 933 321 933 l 360 933 l 420 922 l 448 924 l 483 928 z "},"":{"ha":631,"x_min":71,"x_max":592,"o":"m 357 578 q 374 559 374 578 q 279 441 374 549 q 184 323 184 333 q 235 222 184 314 q 286 107 286 131 q 265 84 286 84 l 260 84 q 203 147 250 84 q 114 259 156 210 q 71 321 71 308 l 71 327 q 185 437 71 345 q 209 458 201 451 q 227 473 216 465 l 262 504 l 271 513 q 357 578 347 578 m 570 569 l 574 569 q 592 554 592 569 q 504 438 592 540 q 416 328 416 337 q 463 226 416 319 q 509 113 509 133 q 490 92 509 92 l 484 92 q 391 202 478 92 q 303 325 303 311 q 436 454 303 339 q 570 569 568 569 z "},"":{"ha":774,"x_min":90,"x_max":708,"o":"m 619 221 q 627 315 627 270 q 577 376 627 361 q 361 380 564 380 l 334 379 l 308 379 l 299 380 l 281 380 l 273 380 l 229 380 l 202 380 l 140 378 q 90 399 90 378 q 112 442 90 436 q 397 448 134 448 l 458 448 l 485 448 l 494 448 l 644 448 l 661 448 q 708 391 708 448 l 707 382 l 707 374 q 682 193 707 263 q 658 178 676 178 l 650 178 q 619 221 619 178 z "},"":{"ha":494,"x_min":81,"x_max":435,"o":"m 415 391 q 435 371 435 391 l 435 367 l 435 362 q 389 306 435 306 l 373 304 l 365 304 l 360 303 l 352 303 l 335 302 l 326 302 l 313 301 l 305 301 l 288 300 l 275 300 l 244 298 l 231 298 l 227 297 l 218 297 l 214 296 l 205 296 l 200 296 l 192 296 l 183 295 l 175 295 l 170 294 l 153 294 l 145 294 l 124 294 l 113 293 l 100 293 q 81 309 81 293 l 81 321 q 106 376 81 370 q 276 386 140 386 l 383 391 l 415 391 z "},"":{"ha":943,"x_min":111,"x_max":903,"o":"m 440 634 q 465 621 440 621 l 486 621 q 568 646 538 621 q 598 709 598 671 l 598 725 q 571 785 598 762 q 503 807 544 807 l 484 807 q 450 785 450 807 q 448 776 448 779 l 447 767 l 447 758 l 446 752 l 446 746 l 446 743 l 446 737 l 445 732 l 445 726 l 444 722 q 444 711 444 717 l 444 705 l 444 699 l 443 690 l 443 684 l 442 675 l 442 669 l 441 666 l 441 660 l 440 640 l 440 634 m 479 254 l 513 254 q 640 286 574 254 q 817 467 766 347 q 849 604 849 545 l 849 625 q 823 747 849 685 q 663 920 772 871 q 525 951 595 951 l 503 951 q 382 922 445 951 q 195 727 253 865 q 166 589 166 656 l 166 567 q 264 345 166 442 q 369 277 309 299 q 479 254 428 254 m 470 392 q 391 376 470 376 q 311 393 311 376 q 332 412 311 401 q 355 431 352 422 q 368 589 368 466 l 372 659 q 376 755 376 728 q 364 794 376 783 q 334 833 334 823 q 466 843 334 843 l 513 844 l 524 844 q 629 811 589 844 q 670 731 670 779 q 609 614 670 663 q 585 582 585 595 q 623 506 585 569 q 672 434 661 444 q 699 414 682 425 q 715 396 715 404 q 660 376 715 376 l 648 376 q 597 404 615 376 q 557 484 588 418 q 512 567 526 551 q 460 584 497 584 q 434 504 434 584 l 433 481 q 451 424 433 451 q 470 392 470 396 m 506 203 l 481 203 q 347 229 414 203 q 142 422 203 283 q 111 568 111 492 l 111 581 q 230 877 111 749 q 367 971 288 940 q 522 1002 445 1002 l 534 1002 q 794 894 677 1002 q 870 779 836 855 q 903 635 903 703 l 903 610 q 870 454 903 533 q 652 235 806 303 q 506 203 578 203 z "},"":{"ha":559,"x_min":161,"x_max":549,"o":"m 465 869 q 549 852 549 869 l 549 848 q 506 800 549 800 l 235 800 q 161 817 161 800 l 161 825 q 199 869 161 869 l 359 869 l 363 868 l 443 869 l 465 869 z "},"":{"ha":466,"x_min":138,"x_max":477,"o":"m 328 913 l 302 913 q 222 865 263 913 q 199 795 199 839 l 199 785 q 201 767 201 774 q 230 711 201 741 q 296 682 259 682 l 302 682 l 306 683 q 381 717 347 683 q 416 796 416 751 l 416 811 q 388 881 416 850 q 328 913 360 913 m 307 969 l 334 969 q 432 925 388 969 q 477 821 477 880 l 477 805 q 475 788 475 794 q 420 676 475 726 q 302 626 365 626 l 291 626 l 286 627 q 182 671 226 627 q 138 768 138 715 l 138 796 q 189 913 138 858 q 307 969 240 969 z "},"":{"ha":750,"x_min":74,"x_max":699,"o":"m 307 143 l 334 143 l 340 142 l 380 142 q 673 128 673 142 l 673 116 q 644 70 673 75 q 360 68 631 68 l 175 68 l 155 67 l 136 67 q 74 83 74 67 l 74 89 l 75 96 q 103 141 75 136 q 307 143 115 143 m 443 550 q 463 517 443 521 q 570 517 466 517 q 678 516 674 517 q 699 482 699 513 q 667 444 699 451 q 559 443 665 443 q 446 437 454 443 q 424 326 424 421 q 415 216 424 231 q 375 202 406 202 l 364 202 q 345 231 345 202 l 349 312 l 351 334 l 354 379 l 356 401 q 340 439 356 432 q 218 441 334 441 q 102 465 102 441 l 102 476 q 128 513 102 506 q 243 516 138 516 q 358 527 349 516 q 373 635 368 537 q 384 748 379 733 q 416 762 389 762 q 454 718 454 762 l 444 583 q 443 550 443 561 z "},"":{"ha":492,"x_min":114,"x_max":473,"o":"m 155 473 q 114 496 114 473 q 210 600 114 518 q 335 718 305 682 q 386 838 386 780 q 366 891 386 867 q 301 914 345 914 q 232 869 258 914 q 184 825 206 825 q 176 844 176 825 q 219 933 176 897 q 326 970 263 970 l 338 970 q 437 937 400 970 q 473 848 473 903 q 421 729 473 793 q 314 631 397 699 q 231 547 231 562 q 275 540 231 540 q 359 546 318 540 q 407 555 399 552 q 428 566 414 558 q 450 574 441 574 q 458 566 458 574 q 428 488 458 526 q 376 473 416 473 l 363 473 l 351 473 l 339 473 l 227 477 l 155 473 z "},"":{"ha":480,"x_min":110,"x_max":453,"o":"m 349 740 q 376 718 350 734 q 438 612 438 678 q 378 490 438 544 q 237 435 319 435 l 224 435 q 144 453 178 435 q 110 497 110 470 q 138 524 110 524 q 183 505 151 524 q 231 485 215 485 q 316 518 279 485 q 354 598 354 551 q 334 664 354 644 q 273 697 314 684 q 232 720 232 709 q 275 752 232 731 q 342 802 317 774 q 366 859 366 829 q 348 904 366 888 q 303 920 330 920 q 239 892 277 920 q 193 865 202 865 q 176 882 176 865 q 216 951 176 927 q 319 975 255 975 l 331 975 q 430 941 388 975 q 453 884 453 923 q 376 770 453 831 q 349 740 349 749 z "},"":{"ha":471,"x_min":210,"x_max":459,"o":"m 239 725 l 232 725 q 210 741 210 725 l 210 744 q 317 899 210 762 q 399 971 373 971 l 409 971 q 459 942 459 971 l 459 939 q 353 819 459 913 q 239 725 247 725 z "},"":{"ha":773,"x_min":29,"x_max":684,"o":"m 287 574 q 250 384 287 538 q 212 183 212 231 q 298 87 212 87 q 300 87 299 87 q 370 113 323 87 q 517 347 468 165 q 567 521 558 499 q 614 570 588 570 q 635 475 635 570 q 621 385 635 455 q 608 258 608 315 q 646 175 608 201 q 684 102 684 149 q 654 30 684 56 q 586 3 625 3 q 507 55 529 3 l 500 72 l 494 87 q 464 118 477 118 q 415 89 451 118 q 374 57 379 60 q 261 25 323 25 q 146 -16 171 25 q 121 -112 130 -43 q 106 -201 113 -181 q 57 -269 87 -269 l 53 -269 q 29 -180 29 -269 q 93 132 29 -176 q 156 459 156 440 q 152 504 156 479 l 145 540 q 169 593 145 571 q 240 616 193 616 q 287 574 287 616 z "},"":{"ha":785,"x_min":155,"x_max":768,"o":"m 532 -92 q 501 -54 501 -92 q 522 102 501 -31 q 553 397 542 235 q 570 599 564 559 q 585 680 576 639 q 593 736 593 720 q 554 757 593 757 q 503 730 515 757 q 492 661 498 716 q 438 350 487 606 q 385 75 390 94 q 327 1 364 1 q 296 44 296 1 l 300 88 q 307 224 307 173 q 282 468 307 378 q 228 555 273 501 q 169 638 182 610 q 155 727 155 667 q 189 845 155 787 q 278 938 224 903 q 550 996 368 996 l 576 996 q 760 973 726 996 l 768 966 q 739 896 768 950 q 703 802 710 841 q 676 622 695 762 q 647 409 658 481 q 609 154 635 337 q 579 -46 583 -30 q 532 -92 570 -92 z "},"":{"ha":311,"x_min":100,"x_max":255,"o":"m 255 428 l 252 411 q 230 372 252 395 q 189 349 207 349 l 174 347 l 165 347 q 121 368 142 347 q 100 414 100 389 l 100 429 q 125 483 100 458 q 178 508 150 508 l 188 508 q 233 488 213 508 q 253 450 253 468 l 255 435 l 255 428 z "},"":{"ha":514,"x_min":92,"x_max":319,"o":"m 233 -6 l 241 -6 q 247 -36 247 -6 q 283 -95 247 -66 q 319 -163 319 -124 l 319 -169 l 318 -174 q 264 -266 318 -229 q 158 -303 211 -303 l 142 -303 q 92 -281 92 -303 q 131 -254 92 -254 q 194 -236 170 -254 q 218 -193 218 -219 q 191 -150 218 -166 q 165 -105 165 -134 q 199 -25 165 -76 q 233 -6 212 -6 z "},"":{"ha":424,"x_min":139,"x_max":375,"o":"m 311 477 l 269 477 l 261 477 l 236 477 l 203 477 l 195 477 q 139 495 139 477 l 139 500 q 184 530 139 508 q 222 576 212 543 q 262 857 262 719 q 223 895 262 895 q 188 908 188 895 q 201 927 188 920 q 351 973 294 973 l 357 973 q 375 954 375 973 q 357 891 375 948 q 334 792 338 833 q 323 717 329 751 l 315 667 q 308 619 313 648 q 303 567 303 591 q 333 527 303 544 q 363 500 363 510 q 311 477 363 477 z "},"":{"ha":528,"x_min":109,"x_max":511,"o":"m 425 799 q 397 871 425 842 q 343 899 368 899 l 330 899 q 236 839 279 899 q 192 706 192 779 l 192 682 q 193 669 193 673 q 222 590 193 622 q 286 558 251 558 l 290 559 q 386 622 346 559 q 427 752 427 685 l 427 785 q 425 799 425 794 m 328 941 l 355 941 q 467 893 422 941 q 511 776 511 846 l 511 762 q 446 594 511 669 q 367 536 412 554 q 286 517 322 517 l 266 517 q 156 564 202 517 q 109 676 109 610 l 109 703 q 178 867 109 793 q 328 941 247 941 z "},"":{"ha":635,"x_min":55,"x_max":576,"o":"m 55 114 q 143 227 55 119 q 231 341 231 334 q 185 439 231 348 q 139 547 139 531 q 163 570 139 570 q 259 457 174 570 q 344 336 344 343 l 344 330 q 239 232 344 316 q 150 153 214 212 q 73 93 86 93 q 55 109 55 93 l 55 114 m 461 339 q 411 444 461 343 q 361 553 361 544 q 385 578 361 578 q 487 458 397 578 q 576 336 576 338 q 438 204 576 324 q 297 85 300 85 l 292 85 q 274 103 274 85 q 368 222 274 122 q 461 339 461 322 z "},"":{"ha":1082,"x_min":134,"x_max":986,"o":"m 867 433 q 865 436 867 436 q 758 325 857 436 q 659 210 659 213 q 712 208 659 208 l 817 208 q 840 254 840 208 l 848 302 q 854 351 854 340 l 859 383 q 865 417 865 410 l 867 427 l 867 433 m 261 816 q 223 843 261 839 q 185 863 185 847 q 207 878 185 870 q 343 919 317 919 l 349 919 q 367 890 367 919 q 357 848 367 882 q 342 798 347 814 q 319 654 338 782 q 300 501 300 526 q 330 452 300 477 q 359 422 359 427 q 227 404 359 404 l 210 404 l 184 403 q 134 419 134 403 q 171 448 134 430 q 216 493 207 466 q 243 666 226 520 q 261 816 261 812 m 858 915 q 908 947 884 947 q 932 930 932 947 q 766 697 932 927 q 580 442 600 467 q 529 372 561 416 l 492 324 q 461 280 481 309 q 405 202 441 250 q 286 41 368 155 q 222 -1 255 -1 q 203 13 203 -1 q 243 81 203 28 q 619 595 486 404 q 858 915 753 785 m 907 83 q 911 49 911 69 q 880 11 911 28 q 806 -7 850 -7 l 798 -7 q 780 21 780 -7 q 795 58 780 31 q 811 112 811 85 q 789 146 811 138 q 714 150 777 150 q 591 178 591 150 l 591 184 q 747 367 591 195 q 932 538 903 538 l 939 538 q 951 515 951 538 q 939 417 951 492 q 926 293 926 342 q 937 229 926 243 q 962 215 939 225 q 986 193 986 205 l 986 189 q 971 170 986 182 q 931 129 956 157 q 907 83 907 102 z "},"":{"ha":1137,"x_min":146,"x_max":1047,"o":"m 253 618 q 263 684 253 618 q 274 785 274 750 q 242 823 274 819 q 200 843 200 827 q 218 861 200 853 q 362 905 326 905 l 369 905 q 384 885 384 905 q 371 827 384 866 l 366 812 q 335 644 355 777 q 315 484 315 511 q 338 443 315 458 q 376 413 376 420 q 321 390 376 390 l 313 390 l 304 391 l 245 391 q 146 404 146 391 l 146 410 q 183 437 146 419 q 229 479 220 454 q 253 618 232 487 m 918 935 q 949 918 949 935 q 926 877 949 908 l 830 744 q 718 591 731 609 q 623 461 704 573 q 397 164 542 349 q 250 -20 252 -20 q 218 -6 218 -20 q 658 608 218 8 q 918 935 897 935 m 708 13 q 677 37 677 13 q 775 142 677 60 q 901 258 873 223 q 959 376 959 330 q 875 469 959 469 q 798 421 825 469 q 752 374 770 374 q 741 401 741 374 q 792 490 741 453 q 908 526 842 526 q 1010 492 973 526 q 1047 402 1047 458 q 1001 287 1047 347 q 885 178 974 252 q 797 88 797 104 q 871 81 797 81 q 982 99 946 81 q 1021 117 1018 117 q 1032 103 1032 117 q 997 21 1032 44 q 924 14 985 14 l 808 16 l 783 16 q 746 15 760 15 l 720 13 l 708 13 z "},"":{"ha":1157,"x_min":106,"x_max":1033,"o":"m 910 435 q 804 324 903 435 q 705 210 705 213 q 769 208 705 208 l 863 208 q 887 258 887 208 q 890 280 890 275 l 894 302 q 904 361 901 341 q 907 391 906 382 q 910 408 909 399 q 911 420 911 416 l 913 427 l 913 434 l 911 435 l 910 435 m 170 825 q 307 921 170 921 q 416 900 380 921 q 452 845 452 879 l 452 835 q 372 717 452 781 q 341 684 341 693 q 373 659 341 678 q 440 544 440 618 q 375 417 440 470 q 226 363 311 363 l 213 363 q 132 385 157 363 q 106 415 106 406 l 106 423 q 140 445 106 445 q 182 430 151 445 q 252 414 212 414 q 325 453 292 414 q 358 539 358 492 q 324 613 358 586 q 268 637 308 627 q 229 656 229 648 q 271 692 229 665 q 339 747 314 719 q 363 808 363 774 q 298 866 363 866 q 234 838 268 866 q 182 809 199 809 q 170 825 170 809 m 960 947 q 977 930 977 947 q 654 479 977 906 q 332 41 561 357 q 269 -1 301 -1 q 250 16 250 -1 q 896 905 250 44 q 960 947 928 947 m 852 -7 q 826 21 826 -7 q 842 58 826 31 q 858 109 858 85 q 844 141 858 132 q 761 150 831 150 q 637 178 637 150 l 637 184 q 797 371 637 203 q 979 538 957 538 l 984 538 q 998 513 998 538 q 985 413 998 488 q 972 291 972 338 q 980 233 972 244 q 1001 218 988 222 q 1033 189 1033 208 q 1010 163 1032 183 q 954 83 954 109 l 957 59 q 927 10 957 28 q 852 -7 897 -7 z "},"":{"ha":564,"x_min":33,"x_max":469,"o":"m 314 675 q 316 694 316 682 q 341 731 316 707 q 389 756 366 756 l 406 756 q 448 735 427 756 q 469 689 469 714 l 469 680 q 444 623 469 648 q 393 598 419 598 l 378 598 q 333 621 353 598 q 314 663 314 644 l 314 675 m 151 -44 q 245 -135 151 -135 q 329 -85 288 -135 q 405 -36 370 -36 q 425 -80 425 -36 q 369 -166 425 -124 q 228 -208 313 -208 l 215 -208 q 83 -163 134 -208 q 33 -47 33 -119 l 33 -35 q 67 83 33 30 q 176 208 101 136 q 265 297 252 281 q 309 397 309 349 l 298 458 q 332 494 298 494 q 378 454 359 494 q 391 384 391 428 q 365 298 391 340 q 269 176 339 257 q 175 49 199 95 q 151 -44 151 3 z "},"":{"ha":970,"x_min":-42,"x_max":869,"o":"m 431 418 l 534 418 q 647 447 647 418 l 647 458 l 645 479 l 643 505 q 637 571 637 553 l 633 606 q 626 660 627 652 l 624 678 q 621 713 621 709 q 599 802 621 802 l 597 802 l 533 703 q 370 428 370 448 q 431 418 370 418 m 480 1204 l 480 1217 q 533 1251 480 1251 l 547 1251 q 642 1162 565 1251 q 720 1053 720 1074 l 720 1049 l 719 1046 q 705 1031 719 1031 l 698 1031 q 634 1066 673 1031 q 553 1128 594 1101 q 480 1204 480 1176 m 635 341 q 479 357 622 357 q 307 331 337 357 q 230 225 276 305 q 184 122 184 144 q 197 71 184 99 q 210 26 210 43 q 57 4 210 4 l 37 3 q -42 23 -42 3 l -42 35 q 5 68 -42 50 q 76 116 53 87 q 147 224 79 119 q 233 356 216 329 q 262 401 250 384 l 273 419 q 301 462 286 437 q 330 506 317 488 q 353 542 343 525 q 380 583 363 558 q 414 635 397 607 q 504 773 432 664 q 582 892 575 883 q 669 952 627 952 q 693 937 682 952 q 729 843 720 903 q 758 471 738 782 q 787 125 778 160 q 818 77 796 90 q 869 38 869 49 q 831 6 869 6 l 704 6 q 568 20 568 6 q 614 72 568 43 q 660 145 660 101 q 635 341 660 312 z "},"":{"ha":970,"x_min":-42,"x_max":869,"o":"m 431 418 l 534 418 q 647 447 647 418 l 647 458 l 645 479 l 643 505 q 637 571 637 553 l 633 606 q 626 660 627 652 l 624 678 q 621 713 621 709 q 599 802 621 802 l 597 802 l 533 703 q 370 428 370 448 q 431 418 370 418 m 0 0 m 670 1221 q 726 1250 686 1250 l 732 1250 q 785 1217 785 1250 l 785 1215 l 784 1211 q 679 1112 784 1194 q 539 1030 574 1030 l 532 1030 q 517 1044 517 1030 l 517 1050 q 568 1111 517 1053 q 665 1216 619 1170 l 670 1221 m 635 341 q 479 357 622 357 q 307 331 337 357 q 230 225 276 305 q 184 122 184 144 q 197 71 184 99 q 210 26 210 43 q 57 4 210 4 l 37 3 q -42 23 -42 3 l -42 35 q 5 68 -42 50 q 76 116 53 87 q 147 224 79 119 q 233 356 216 329 q 262 401 250 384 l 273 419 q 301 462 286 437 q 330 506 317 488 q 353 542 343 525 q 380 583 363 558 q 414 635 397 607 q 504 773 432 664 q 582 892 575 883 q 669 952 627 952 q 693 937 682 952 q 729 843 720 903 q 758 471 738 782 q 787 125 778 160 q 818 77 796 90 q 869 38 869 49 q 831 6 869 6 l 704 6 q 568 20 568 6 q 614 72 568 43 q 660 145 660 101 q 635 341 660 312 z "},"":{"ha":970,"x_min":-44,"x_max":867,"o":"m 418 414 l 545 414 l 550 415 l 595 417 q 606 418 601 418 q 645 439 645 418 l 645 454 l 644 459 l 643 480 q 640 510 641 496 q 638 534 639 523 q 635 558 637 545 q 634 579 634 572 l 617 727 q 597 798 617 798 l 595 798 l 534 704 q 368 425 368 444 q 418 414 368 414 m 707 1246 l 721 1246 q 768 1197 741 1246 q 817 1113 783 1168 q 851 1054 851 1058 q 830 1032 851 1032 q 756 1089 808 1032 q 687 1147 703 1147 q 601 1090 683 1147 q 503 1034 519 1034 q 487 1048 487 1034 q 585 1148 487 1050 q 707 1246 684 1246 m 182 102 q 195 67 182 94 q 208 22 208 41 q 77 1 208 1 l 35 0 q -44 31 -44 0 q 4 65 -44 46 q 68 106 52 84 q 184 277 111 161 q 296 453 258 394 q 369 564 335 511 q 418 641 403 617 q 497 764 433 665 q 568 871 562 863 q 667 949 623 949 q 699 924 680 949 q 736 750 726 888 l 739 710 q 742 660 741 671 q 747 588 743 650 l 755 485 q 789 103 785 119 q 830 65 793 87 q 867 35 867 43 l 867 22 q 717 3 867 3 q 567 28 567 3 q 613 68 567 41 q 659 142 659 96 q 633 337 659 309 q 477 354 618 354 q 301 323 336 354 q 229 223 276 302 q 182 102 182 144 z "},"":{"ha":970,"x_min":-45,"x_max":892,"o":"m 644 460 q 633 580 633 547 l 628 621 l 626 633 l 624 652 q 616 728 616 725 q 596 799 616 799 l 593 799 q 478 613 589 799 q 367 426 367 428 l 367 422 q 439 415 367 415 l 520 415 q 644 439 644 415 l 644 460 m 598 1200 l 614 1200 q 693 1170 644 1200 q 776 1141 743 1141 q 841 1169 810 1141 q 876 1198 872 1198 q 892 1181 892 1198 q 846 1103 892 1145 q 759 1061 800 1061 l 739 1061 q 656 1090 705 1061 q 574 1120 606 1120 q 508 1093 541 1120 q 474 1065 475 1065 q 458 1077 458 1065 l 458 1086 q 519 1170 458 1122 q 598 1200 558 1200 m 181 104 q 194 68 181 94 q 207 23 207 41 q 54 1 207 1 l 13 1 q -45 32 -45 1 q 2 66 -45 47 q 73 114 50 85 q 213 328 75 116 q 374 576 351 540 l 386 593 q 419 646 398 612 q 500 772 440 680 q 567 873 561 865 q 666 950 621 950 q 690 935 679 950 q 726 833 716 902 q 733 750 726 832 q 743 631 740 668 l 749 548 l 751 528 q 767 323 751 524 q 786 113 784 121 q 815 75 792 88 q 866 35 866 46 l 866 23 q 716 3 866 3 q 566 30 566 3 q 611 70 566 41 q 657 143 657 98 q 632 338 657 309 q 476 355 618 355 q 300 325 334 355 q 228 224 275 304 q 181 104 181 144 z "},"":{"ha":970,"x_min":-7,"x_max":870,"o":"m 635 439 l 635 454 l 635 460 l 633 481 q 631 499 632 490 q 630 518 631 507 q 628 540 629 529 q 627 557 627 551 l 623 591 q 620 614 623 594 l 615 657 q 610 699 610 686 l 606 739 q 587 798 606 798 l 585 798 q 553 751 582 798 q 519 694 525 704 q 358 425 358 444 q 436 414 358 414 l 512 414 l 517 415 l 569 416 l 591 418 q 635 439 635 418 m 557 1201 q 595 1183 578 1201 q 613 1146 613 1166 l 613 1131 l 610 1114 q 590 1085 610 1104 q 553 1065 571 1065 l 534 1065 l 521 1068 q 483 1112 483 1068 q 481 1118 481 1116 l 481 1126 l 481 1131 l 484 1147 q 506 1182 484 1165 q 540 1200 528 1200 l 548 1201 l 557 1201 m 802 1036 l 793 1036 q 785 1038 787 1038 l 779 1040 l 770 1040 l 767 1041 l 761 1041 l 755 1042 l 749 1042 q 709 1053 709 1042 l 694 1072 q 682 1097 682 1086 q 726 1156 682 1125 q 805 1187 770 1187 l 815 1187 q 845 1146 845 1187 q 846 1138 846 1141 l 848 1126 l 848 1112 l 845 1082 q 824 1054 845 1071 q 802 1036 804 1036 m 639 363 q 487 379 625 379 q 320 355 349 379 q 248 252 292 331 q 203 150 203 174 q 217 102 203 127 q 230 63 230 77 q 127 41 230 41 l 66 41 q -7 61 -7 41 l -7 72 q 37 104 -7 85 q 96 139 81 124 q 192 287 110 154 q 319 491 273 419 q 440 684 365 562 q 568 884 516 806 q 665 961 619 961 q 721 844 701 961 q 756 488 732 777 q 793 151 781 199 q 835 106 800 124 q 870 63 870 88 q 752 43 870 43 l 693 43 q 629 44 674 44 q 583 67 583 44 q 625 106 583 79 q 667 177 667 134 q 639 363 667 332 z "},"":{"ha":979,"x_min":-33,"x_max":879,"o":"m 685 1066 l 697 1066 q 743 1089 720 1066 q 766 1141 766 1112 l 766 1158 q 747 1201 766 1181 q 705 1221 727 1221 l 695 1221 q 648 1198 670 1221 q 625 1157 625 1176 l 624 1153 l 624 1148 l 623 1143 l 623 1136 l 624 1133 q 643 1085 624 1103 q 685 1066 661 1066 m 458 421 l 538 421 q 663 450 663 421 l 663 461 l 662 467 l 660 497 q 657 524 658 513 q 655 545 656 534 q 652 585 652 578 l 646 638 q 637 715 637 691 q 614 802 637 802 l 612 802 q 549 705 607 802 l 385 432 q 458 421 385 421 m 570 1126 l 570 1138 q 607 1225 570 1183 q 695 1267 644 1267 l 715 1267 q 728 1265 724 1265 q 790 1232 760 1265 q 821 1161 821 1198 l 821 1149 q 775 1055 821 1090 q 690 1020 730 1020 l 678 1020 q 604 1050 637 1020 q 570 1126 570 1080 m 195 107 q 207 72 195 99 q 219 24 219 45 q 112 3 219 3 l 28 3 q -33 33 -33 3 q 15 68 -33 50 q 89 120 63 87 q 177 250 115 152 q 332 488 239 348 l 355 523 q 392 578 367 541 q 464 691 416 616 q 585 873 511 766 q 684 951 640 951 q 708 936 695 951 q 747 836 736 904 q 772 478 749 817 q 801 115 794 139 q 830 78 808 92 q 879 36 879 48 q 755 6 879 6 l 692 6 q 654 7 672 7 q 581 20 581 7 q 634 76 581 41 q 673 150 673 102 q 648 345 673 317 q 493 362 633 362 q 320 334 353 362 q 241 225 288 307 q 195 107 195 144 z "},"":{"ha":1285,"x_min":-14,"x_max":1277,"o":"m 739 821 l 739 830 q 733 835 739 835 q 584 649 727 835 q 441 450 441 463 q 522 441 441 441 l 545 441 l 551 441 q 666 454 656 441 q 692 563 675 466 q 724 725 709 661 q 739 821 739 789 m 849 751 q 837 714 849 751 q 825 628 825 678 q 856 556 825 578 q 921 534 888 534 q 990 547 954 534 l 1016 558 q 1063 576 1057 576 q 1110 506 1110 576 q 1072 392 1110 435 l 1052 377 q 998 414 1036 377 q 913 450 960 450 q 793 410 830 450 q 755 319 777 393 q 733 178 733 245 q 756 86 733 110 q 846 63 779 63 q 1027 82 968 63 q 1144 145 1086 102 q 1196 176 1185 176 q 1197 176 1196 176 q 1202 171 1202 176 q 1183 107 1202 154 q 1130 30 1165 60 q 968 1 1095 1 l 930 1 l 853 1 q 578 14 627 1 q 528 52 528 26 q 563 109 528 56 q 612 208 597 162 q 627 330 627 254 q 598 364 627 350 q 510 378 570 378 q 345 318 408 378 q 232 169 305 281 q 203 90 203 124 l 213 69 l 229 50 l 241 33 q 212 6 241 12 q 91 3 196 3 q -14 21 -14 3 q 41 77 -14 43 q 139 163 96 112 q 586 741 182 214 q 636 833 625 791 q 654 898 648 875 q 661 924 659 920 q 774 955 681 955 l 811 955 l 846 954 q 918 951 899 951 l 1033 952 q 1245 933 1214 952 q 1277 864 1277 915 l 1277 833 q 1255 791 1277 791 q 1230 815 1253 791 q 1171 855 1206 840 q 1008 890 1086 890 q 894 848 930 890 q 849 751 873 823 z "},"":{"ha":937,"x_min":62,"x_max":950,"o":"m 62 380 l 62 405 q 108 618 62 509 q 409 919 198 836 q 614 958 509 958 l 637 958 q 802 930 710 958 q 902 897 895 902 q 930 840 909 892 q 950 772 950 787 q 916 709 950 709 q 865 774 912 709 q 772 847 842 805 q 610 889 702 889 q 308 747 424 889 q 192 390 192 605 q 288 132 192 231 q 511 47 370 47 q 656 77 586 47 q 748 141 690 92 l 781 168 l 796 182 q 827 210 823 208 q 850 196 850 219 q 814 109 850 173 q 755 32 778 44 q 500 -25 644 -25 l 453 -25 q 450 -25 452 -25 q 304 5 375 -25 q 92 217 151 70 q 62 380 62 294 m 533 -143 l 533 -155 q 487 -243 533 -201 q 376 -284 440 -284 l 364 -284 q 342 -276 342 -284 l 342 -270 q 399 -227 342 -258 q 441 -161 441 -203 q 425 -129 441 -148 l 401 -102 q 420 -61 401 -87 q 448 -34 439 -34 l 455 -33 l 466 -33 q 477 -52 477 -33 q 505 -87 477 -59 q 533 -143 533 -115 z "},"":{"ha":848,"x_min":20,"x_max":846,"o":"m 393 1208 l 393 1214 q 450 1251 393 1251 l 456 1251 q 539 1181 486 1251 q 632 1056 632 1057 l 632 1046 q 617 1031 632 1031 l 614 1031 q 485 1112 576 1031 q 393 1208 393 1192 m 381 733 q 369 691 381 733 q 357 617 357 648 q 380 559 357 587 q 449 532 402 532 q 518 540 496 532 q 571 569 540 549 q 609 590 602 590 q 651 572 642 590 q 660 500 660 555 q 641 410 660 446 q 587 375 621 375 q 564 402 582 375 q 523 445 547 430 q 454 460 498 460 q 316 407 347 460 q 285 293 307 391 q 264 148 264 195 q 279 86 264 102 q 411 62 302 62 q 575 80 520 62 q 663 125 629 98 q 720 175 696 152 q 754 198 744 198 q 764 182 764 198 q 707 33 764 98 q 612 2 680 2 l 524 2 l 493 3 l 402 2 l 371 3 l 73 3 q 20 29 20 3 q 76 60 20 37 q 122 110 109 74 q 208 484 136 145 q 279 846 279 823 q 241 890 279 869 q 203 932 203 911 q 432 954 203 954 l 521 954 q 581 955 551 955 l 644 956 l 765 957 q 831 937 817 957 q 846 871 846 918 q 816 777 846 777 q 786 813 809 777 q 713 872 764 850 q 528 895 663 895 q 420 842 455 895 q 381 733 406 819 z "},"":{"ha":848,"x_min":19,"x_max":846,"o":"m 517 1044 l 517 1050 q 604 1151 517 1051 q 726 1250 691 1250 l 732 1250 q 785 1217 785 1250 l 785 1215 l 784 1211 q 679 1112 784 1194 q 539 1030 574 1030 l 532 1030 q 517 1044 517 1030 m 846 871 q 816 777 846 777 q 785 813 807 777 q 713 873 763 850 q 528 895 663 895 q 420 841 455 895 q 381 731 405 817 q 357 616 357 645 q 380 559 357 587 q 456 531 404 531 q 558 560 508 531 q 625 589 608 589 q 659 505 659 589 q 623 385 659 421 l 606 374 q 547 426 597 374 q 454 460 513 460 q 316 406 346 460 q 283 287 303 383 q 264 146 264 191 q 278 86 264 101 q 410 62 302 62 q 584 84 517 62 q 714 169 651 106 q 753 198 743 198 q 763 182 763 198 q 707 33 763 99 q 612 1 680 1 l 583 2 l 339 3 q 46 5 55 3 q 19 28 19 11 q 76 60 19 37 q 122 110 108 73 q 208 488 136 146 q 279 843 279 830 q 241 889 279 868 q 203 932 203 911 q 461 954 203 954 l 764 957 q 831 937 816 957 q 846 871 846 916 z "},"":{"ha":848,"x_min":20,"x_max":846,"o":"m 627 1249 q 676 1195 643 1249 q 757 1056 757 1064 l 757 1052 q 736 1034 757 1034 q 662 1092 715 1034 q 593 1149 610 1149 q 575 1139 588 1149 q 556 1126 563 1130 l 512 1096 q 464 1064 509 1093 q 406 1036 419 1036 q 393 1048 393 1036 q 496 1155 393 1061 q 617 1249 600 1249 l 622 1249 l 627 1249 m 381 732 q 369 689 381 732 q 357 615 357 646 q 380 557 357 585 q 455 530 402 530 q 558 559 507 530 q 626 588 610 588 q 660 516 660 588 q 641 409 660 444 q 602 373 621 373 q 572 387 583 373 l 561 406 q 524 444 547 429 q 454 458 500 458 q 316 405 347 458 q 285 290 306 388 q 264 139 264 191 q 295 74 264 87 q 432 60 326 60 q 595 86 538 60 q 701 154 652 111 q 752 196 749 196 q 764 180 764 196 q 707 32 764 98 q 612 0 680 0 l 524 0 l 493 1 l 402 0 l 371 1 l 73 1 q 20 27 20 1 q 76 58 20 35 q 122 107 109 72 q 208 482 136 142 q 279 844 279 822 q 241 888 279 867 q 203 930 203 909 q 461 951 203 951 l 613 954 l 644 954 l 735 955 l 765 956 q 831 936 816 956 q 846 869 846 916 q 816 774 846 774 q 787 811 809 774 q 714 870 764 847 q 528 893 665 893 q 420 840 455 893 q 381 732 406 817 z "},"":{"ha":848,"x_min":16,"x_max":843,"o":"m 394 1136 q 415 1181 394 1160 q 461 1202 437 1202 l 467 1202 q 506 1187 487 1202 q 524 1156 524 1173 l 526 1143 l 526 1134 q 506 1089 526 1109 q 473 1069 486 1069 q 467 1067 469 1067 l 457 1066 l 453 1066 l 436 1069 q 397 1109 397 1069 q 395 1115 395 1113 l 394 1123 l 394 1136 m 774 1133 q 750 1086 774 1105 q 711 1067 726 1067 l 696 1067 q 661 1083 680 1067 q 641 1122 641 1099 l 641 1137 q 661 1181 641 1161 q 699 1202 682 1202 l 710 1203 l 716 1203 q 729 1201 722 1201 q 754 1187 736 1201 q 772 1156 772 1173 l 774 1146 l 774 1133 m 843 870 q 813 775 843 775 q 782 812 804 775 q 710 871 760 849 q 525 894 660 894 q 418 840 452 894 q 378 729 402 815 q 354 614 354 644 q 377 557 354 585 q 453 530 401 530 q 556 559 505 530 q 623 588 607 588 q 656 504 656 588 q 621 384 656 420 l 604 373 q 544 425 594 373 q 452 459 510 459 q 313 405 342 459 q 281 287 301 384 q 261 144 261 189 q 275 85 261 100 q 407 60 299 60 q 582 82 515 60 q 711 168 648 104 q 750 197 741 197 q 760 180 760 197 q 704 32 760 98 q 609 0 677 0 l 580 1 l 336 1 q 43 3 52 1 q 16 27 16 9 q 73 59 16 36 q 119 108 105 72 q 205 487 134 144 q 277 841 277 829 q 239 888 277 867 q 201 931 201 909 q 458 952 201 952 l 762 956 q 828 935 813 956 q 843 870 843 915 z "},"":{"ha":475,"x_min":11,"x_max":528,"o":"m 189 1208 l 189 1214 q 245 1251 189 1251 l 252 1251 q 335 1181 282 1251 q 428 1056 428 1057 l 428 1046 q 413 1031 428 1031 l 410 1031 q 262 1128 387 1031 q 189 1208 189 1185 m 45 -1 q 11 11 11 -1 l 11 22 q 63 53 11 39 q 129 101 115 66 q 195 394 142 135 q 268 739 248 654 q 288 844 288 824 q 247 895 288 882 q 192 933 192 913 q 332 953 192 953 l 408 954 l 422 954 l 498 956 q 528 944 528 956 l 528 935 q 463 899 528 920 q 409 845 423 887 q 324 455 395 804 q 253 101 253 106 q 290 59 253 71 q 347 23 347 40 q 209 2 347 2 l 180 2 l 136 1 l 60 -1 l 45 -1 z "},"":{"ha":476,"x_min":11,"x_max":591,"o":"m 323 1044 l 323 1050 q 410 1151 323 1051 q 529 1250 497 1250 l 539 1250 q 591 1217 591 1250 l 591 1215 l 591 1211 q 486 1112 591 1194 q 346 1030 380 1030 l 339 1030 q 323 1044 323 1030 m 288 844 q 247 895 288 881 q 192 932 192 912 q 333 952 192 952 l 422 954 l 437 954 l 499 956 q 528 944 528 956 l 528 935 q 463 899 528 920 q 412 853 425 886 q 361 631 400 819 l 355 601 l 349 571 l 342 541 l 336 511 q 284 271 316 413 q 253 100 253 128 q 291 59 253 73 q 347 23 347 39 q 195 2 347 2 l 165 2 l 91 0 l 75 -1 l 45 -1 q 11 11 11 -1 q 65 53 11 40 q 132 110 119 66 q 214 490 140 136 q 288 844 288 843 z "},"":{"ha":476,"x_min":14,"x_max":568,"o":"m 423 1249 l 433 1249 q 487 1194 456 1249 q 543 1100 518 1140 q 568 1056 568 1059 q 546 1034 568 1034 q 473 1092 530 1034 q 408 1149 416 1149 q 319 1092 401 1149 q 221 1036 237 1036 q 204 1049 204 1036 q 302 1150 204 1052 q 423 1249 401 1249 m 48 -2 q 14 9 14 -2 l 14 20 q 66 51 14 39 q 131 96 118 64 q 195 375 148 138 q 267 717 243 612 q 292 843 292 823 q 250 893 292 880 q 195 931 195 911 q 336 951 195 951 l 396 951 l 471 953 l 502 954 q 532 943 532 954 l 532 933 q 466 897 532 918 q 416 852 427 885 q 330 463 405 819 q 256 100 256 106 q 294 58 256 71 q 350 22 350 37 q 212 1 350 1 l 183 1 l 79 -2 l 48 -2 z "},"":{"ha":475,"x_min":11,"x_max":587,"o":"m 273 1203 l 288 1203 q 322 1187 302 1203 q 342 1148 342 1172 l 342 1133 q 323 1091 342 1114 q 279 1067 304 1067 l 264 1067 q 228 1083 244 1067 q 212 1112 212 1099 l 210 1122 l 210 1139 l 213 1152 q 233 1183 213 1164 q 273 1203 252 1203 m 517 1204 l 532 1204 q 569 1186 552 1204 q 587 1149 587 1169 l 587 1134 q 585 1117 585 1126 q 565 1089 585 1108 q 532 1069 546 1069 l 519 1067 l 511 1067 q 474 1084 494 1067 q 454 1125 454 1100 l 454 1136 l 456 1151 q 476 1184 456 1165 q 517 1204 495 1204 m 288 856 q 240 895 288 880 q 193 930 193 910 q 333 951 193 951 l 408 951 l 422 952 l 499 954 q 528 943 528 954 l 528 933 q 463 897 528 920 q 413 852 425 884 q 361 629 401 821 l 353 585 q 342 537 349 564 q 334 495 336 511 q 328 465 331 479 l 321 435 l 315 404 q 253 99 253 126 q 291 58 253 71 q 347 22 347 38 q 195 1 347 1 l 165 0 l 136 0 l 106 -1 l 45 -3 q 11 9 11 -3 q 65 51 11 37 q 132 108 119 65 q 244 630 170 229 q 253 670 245 639 q 263 718 260 702 l 266 732 l 269 747 q 288 856 288 836 z "},"":{"ha":998,"x_min":42,"x_max":979,"o":"m 292 260 q 279 189 292 260 q 265 95 265 117 q 284 65 265 73 q 368 56 303 56 l 383 56 q 555 89 471 56 q 707 190 640 121 q 812 356 774 259 q 850 541 850 452 l 850 570 q 763 813 850 724 q 663 877 723 854 q 546 899 604 899 l 532 899 q 420 854 442 899 q 380 695 406 826 q 355 546 355 564 q 370 522 355 528 q 450 517 385 517 q 568 486 568 517 q 540 454 568 461 q 436 451 529 451 q 327 418 343 451 q 292 260 319 402 m 42 18 l 42 30 q 88 67 42 45 q 149 125 134 89 q 170 241 164 161 l 177 327 q 189 393 180 358 q 197 431 197 428 q 160 457 197 452 q 123 488 123 463 q 181 530 123 513 q 237 575 218 541 q 266 820 266 628 q 246 869 266 859 q 199 904 199 896 q 212 922 199 916 q 521 956 302 956 l 541 956 q 725 928 638 956 q 979 559 979 843 q 931 330 979 437 q 597 33 831 107 q 353 -1 492 -1 l 277 -1 l 87 3 q 42 18 42 3 z "},"":{"ha":1065,"x_min":23,"x_max":1117,"o":"m 610 1201 l 625 1201 q 705 1172 652 1201 q 787 1142 758 1142 q 851 1171 817 1142 q 888 1199 886 1199 q 903 1182 903 1199 l 903 1177 q 858 1104 903 1146 q 770 1062 812 1062 l 750 1062 q 667 1092 717 1062 q 585 1122 618 1122 q 519 1094 552 1122 q 485 1066 486 1066 q 469 1089 469 1066 q 513 1156 469 1112 q 610 1201 558 1201 m 197 918 q 260 948 197 948 q 372 924 323 948 q 450 859 421 900 q 621 531 461 844 q 803 218 781 218 l 812 238 q 867 485 818 252 q 916 795 916 717 q 898 865 916 812 q 879 931 879 918 q 958 951 879 951 q 1117 934 1117 951 q 1095 906 1117 917 q 1019 859 1028 871 q 1000 810 1010 847 q 954 604 989 773 q 893 324 918 435 q 853 108 868 214 q 827 3 838 3 q 686 142 779 3 q 519 460 675 157 q 346 762 363 762 q 326 719 336 762 q 217 156 217 250 q 238 81 217 110 l 255 62 l 273 45 q 286 18 286 31 q 222 -4 286 -4 q 43 6 79 -4 q 23 35 23 12 l 39 47 l 85 73 q 132 149 113 94 q 211 492 151 205 q 272 831 272 779 q 248 873 272 851 l 227 888 q 197 918 197 912 z "},"":{"ha":1000,"x_min":92,"x_max":989,"o":"m 865 570 l 865 594 q 798 819 865 733 q 627 905 732 905 l 614 905 q 465 865 538 905 q 243 567 314 782 q 215 389 215 479 l 215 376 l 216 364 q 282 142 216 231 q 454 52 349 52 l 479 52 q 614 90 545 52 q 742 205 684 128 q 832 380 800 283 q 865 570 865 477 m 684 1031 l 678 1031 q 533 1128 663 1031 q 460 1211 460 1183 l 460 1213 q 513 1251 460 1251 l 527 1251 q 606 1181 554 1251 q 700 1049 700 1056 q 684 1031 700 1031 m 92 404 q 137 617 92 509 q 260 808 183 726 q 434 929 337 890 q 623 968 532 968 q 781 936 713 967 q 960 744 909 876 q 989 583 989 665 l 989 553 q 947 349 989 456 q 833 162 905 242 q 665 36 762 83 q 467 -12 568 -12 l 452 -12 q 311 16 378 -12 q 121 213 172 73 q 92 358 92 291 l 92 404 z "},"":{"ha":1000,"x_min":85,"x_max":984,"o":"m 859 570 l 859 606 q 791 819 859 733 q 621 905 724 905 l 608 905 q 478 875 547 905 q 350 775 409 845 q 250 603 290 705 q 210 401 210 501 l 210 364 q 277 141 210 231 q 448 52 343 52 q 449 52 448 52 l 473 52 q 622 98 552 52 q 744 215 692 144 q 827 382 795 287 q 859 570 859 477 m 587 1043 l 587 1049 q 674 1150 587 1050 q 793 1249 762 1249 l 803 1249 q 814 1248 810 1248 q 855 1217 855 1248 l 855 1214 l 854 1211 q 783 1137 854 1185 q 610 1029 622 1029 l 606 1029 q 587 1043 587 1029 m 85 389 q 125 601 85 492 q 242 794 165 709 q 415 923 318 878 q 607 968 512 968 q 882 862 779 968 q 984 568 984 756 q 944 357 984 466 q 829 165 904 248 q 659 36 754 82 q 477 -11 563 -11 l 431 -11 q 296 20 363 -11 q 110 227 159 83 q 85 374 85 298 l 85 389 z "},"":{"ha":1000,"x_min":92,"x_max":989,"o":"m 627 902 l 602 902 q 455 857 528 902 q 341 755 382 812 q 215 385 215 580 l 215 373 l 216 361 q 237 227 216 288 q 363 70 277 112 q 454 49 406 49 l 467 49 q 745 207 631 49 q 833 379 801 283 q 865 566 865 475 l 865 591 q 798 816 865 730 q 627 902 730 902 m 680 1246 l 694 1246 q 744 1192 713 1246 q 800 1097 775 1137 q 825 1054 825 1056 q 803 1032 825 1032 q 730 1089 787 1032 q 661 1147 673 1147 q 575 1090 657 1147 q 477 1034 494 1034 q 460 1047 460 1034 q 559 1148 460 1050 q 680 1246 657 1246 m 614 964 l 629 964 q 779 935 710 964 q 960 741 908 878 q 989 580 989 661 l 989 550 q 947 344 989 451 q 831 157 904 237 q 660 31 758 76 q 467 -14 562 -14 l 437 -14 q 307 15 373 -14 q 121 210 171 74 q 92 355 92 290 l 92 401 q 135 609 92 504 q 251 794 179 715 q 418 919 322 873 q 614 964 515 964 z "},"":{"ha":1000,"x_min":91,"x_max":989,"o":"m 626 903 l 602 903 q 465 863 535 903 q 255 599 321 781 q 215 398 215 489 l 215 361 q 281 139 215 228 q 454 50 348 50 l 478 50 q 738 198 621 50 q 830 374 797 273 q 864 567 864 474 l 864 604 q 844 726 864 665 q 718 882 806 839 q 626 903 675 903 m 577 1203 l 592 1203 q 672 1174 620 1203 q 755 1144 725 1144 q 820 1173 786 1144 q 854 1201 854 1201 q 871 1184 871 1201 l 871 1179 q 825 1106 871 1148 q 737 1064 779 1064 l 717 1064 q 635 1094 684 1064 q 552 1124 585 1124 q 486 1096 519 1124 q 452 1068 453 1068 q 436 1091 436 1068 q 481 1158 436 1114 q 577 1203 526 1203 m 614 965 l 629 965 q 773 937 708 965 q 964 728 909 880 q 989 562 989 659 q 951 358 989 464 q 681 41 873 145 q 482 -14 579 -14 l 436 -14 q 301 18 369 -14 q 115 224 164 81 q 91 371 91 295 l 91 386 q 131 598 91 489 q 245 789 171 707 q 416 918 320 871 q 614 965 512 965 z "},"":{"ha":1000,"x_min":90,"x_max":988,"o":"m 214 399 l 214 363 q 233 240 214 302 q 361 73 270 118 q 478 51 406 51 q 618 92 549 51 q 743 207 686 133 q 831 381 799 281 q 863 581 863 481 l 863 593 l 863 606 q 842 727 863 666 q 612 905 783 904 q 347 766 465 905 q 254 602 294 704 q 214 399 214 500 m 529 1200 l 538 1200 q 554 1198 544 1198 q 580 1180 565 1198 q 595 1139 595 1161 l 595 1135 l 592 1118 q 573 1085 592 1104 q 536 1065 553 1065 l 523 1064 l 521 1064 l 505 1067 q 476 1085 491 1067 q 462 1125 462 1103 l 462 1128 l 465 1149 q 483 1178 465 1156 q 529 1200 501 1200 m 779 1065 l 764 1065 q 730 1080 749 1065 q 711 1109 711 1095 q 710 1116 710 1114 l 709 1126 l 709 1131 l 711 1147 q 730 1180 711 1161 q 757 1199 749 1198 q 768 1200 766 1200 l 776 1201 l 785 1201 q 826 1181 810 1201 q 842 1142 842 1161 l 842 1135 l 842 1133 l 842 1131 l 840 1118 q 820 1085 840 1105 q 779 1065 800 1065 m 612 966 l 643 966 q 780 935 712 966 q 968 715 918 871 q 988 558 988 651 q 949 359 988 465 q 666 37 867 134 q 465 -12 566 -12 l 450 -12 q 186 100 292 -12 q 115 222 140 149 q 90 372 90 296 l 90 388 q 129 600 90 491 q 244 790 169 708 q 415 920 319 873 q 612 966 511 966 z "},"":{"ha":723,"x_min":119,"x_max":633,"o":"m 600 611 q 633 568 633 611 q 536 466 633 557 q 438 363 438 376 q 522 260 438 351 q 606 156 606 170 q 563 121 606 121 q 466 212 547 121 q 370 304 384 304 q 267 212 366 304 q 153 119 168 119 q 119 161 119 119 q 215 263 119 173 q 312 366 312 353 q 231 467 312 380 q 149 574 149 555 q 193 608 149 608 q 288 516 206 608 q 385 425 369 425 l 485 518 q 600 611 585 611 z "},"":{"ha":1003,"x_min":103,"x_max":979,"o":"m 214 389 l 214 368 q 236 229 214 294 q 277 163 258 163 l 284 163 q 532 468 316 163 q 748 807 748 773 l 748 815 q 702 882 748 852 q 629 900 673 900 l 598 900 q 463 861 534 900 q 335 748 393 821 q 246 575 278 675 q 214 389 214 476 m 853 631 l 853 660 q 831 772 853 737 q 811 787 822 787 q 672 599 800 787 q 489 340 545 412 q 334 121 334 142 l 334 113 q 359 69 334 85 q 418 53 384 53 l 427 53 q 583 100 507 53 q 720 235 659 148 q 818 433 782 321 q 853 631 853 544 m 342 -5 q 302 -3 318 -3 q 250 -13 287 -3 l 204 -27 l 195 -26 l 186 -26 q 155 7 155 -26 q 161 42 155 11 q 168 91 168 74 q 135 198 168 109 q 103 348 103 287 l 103 401 q 155 625 103 509 q 291 821 207 741 q 465 932 374 900 q 669 965 555 965 l 775 956 q 873 970 813 956 q 914 956 905 970 q 922 916 922 942 q 922 910 922 913 q 921 878 921 879 q 949 751 921 834 q 979 562 978 669 q 935 349 979 459 q 810 152 890 237 q 421 -11 656 -10 l 342 -5 z "},"":{"ha":1018,"x_min":163,"x_max":1074,"o":"m 696 1055 l 696 1046 q 676 1030 696 1030 q 533 1125 655 1030 q 457 1207 457 1184 l 457 1210 l 458 1213 q 514 1251 458 1251 l 521 1251 q 619 1162 542 1251 q 696 1055 696 1074 m 252 828 q 224 877 252 863 q 168 923 168 906 q 435 951 168 951 q 473 929 473 951 q 430 894 473 921 q 376 826 388 867 q 354 708 370 807 q 308 470 338 608 q 277 252 277 331 q 335 120 277 173 q 484 67 393 67 q 747 228 659 67 q 828 507 780 290 q 877 795 877 725 q 845 877 877 835 q 812 930 812 918 q 874 954 812 954 l 900 954 q 1074 922 1074 954 q 1034 880 1074 902 q 981 832 994 859 q 907 526 968 805 q 801 173 846 248 q 671 49 757 98 q 477 -1 586 -1 l 448 -1 q 243 66 324 0 q 163 247 163 133 l 163 275 q 196 536 163 329 l 205 591 q 235 752 219 686 q 252 828 252 819 z "},"":{"ha":1018,"x_min":163,"x_max":1074,"o":"m 637 1029 l 627 1029 q 611 1042 611 1029 l 611 1046 q 698 1150 611 1050 q 820 1249 785 1249 l 823 1249 l 827 1249 q 879 1217 879 1249 l 879 1214 l 878 1211 q 800 1132 878 1184 q 637 1029 646 1029 m 252 828 q 224 876 252 862 q 168 923 168 905 q 409 951 168 951 q 473 929 473 951 q 430 894 473 921 q 376 826 388 867 q 354 710 370 807 q 308 470 338 612 q 277 251 277 328 q 335 121 277 174 q 484 67 393 67 q 747 228 661 67 q 828 506 779 289 q 877 794 877 722 q 845 877 877 836 q 812 930 812 918 q 874 954 812 954 l 900 954 q 1074 922 1074 954 q 1034 880 1074 901 q 982 833 994 858 q 907 528 970 809 q 801 172 845 246 q 671 49 757 98 q 477 -1 586 -1 l 448 -1 q 337 16 391 -1 q 184 144 226 52 q 163 246 163 192 l 163 275 q 196 536 163 329 l 205 591 q 235 750 218 682 q 252 828 252 818 z "},"":{"ha":1018,"x_min":163,"x_max":1074,"o":"m 706 1248 l 715 1248 q 767 1198 739 1248 q 785 1166 778 1179 q 796 1147 792 1153 q 806 1131 800 1141 l 831 1090 q 850 1055 850 1059 l 850 1050 q 832 1034 850 1034 q 756 1091 813 1034 q 690 1148 699 1148 q 602 1092 690 1148 q 500 1035 513 1035 q 486 1047 486 1035 q 590 1154 486 1060 q 706 1248 693 1248 m 252 827 q 224 875 252 861 q 168 922 168 904 q 409 949 168 949 q 473 927 473 949 q 430 892 473 920 q 376 825 388 865 q 354 708 370 806 q 308 469 338 611 q 277 250 277 327 q 335 119 277 173 q 484 66 393 66 q 747 227 661 66 q 828 504 779 288 q 877 793 877 721 q 845 875 877 834 q 812 928 812 916 q 874 952 812 952 l 900 952 q 1074 921 1074 952 q 1034 878 1074 900 q 982 832 994 857 q 907 526 970 808 q 801 171 845 245 q 671 47 757 97 q 477 -2 586 -2 l 448 -2 q 337 15 391 -2 q 184 142 226 50 q 163 245 163 191 l 163 273 q 196 534 163 328 l 205 589 q 236 753 220 690 q 252 827 252 817 z "},"":{"ha":1018,"x_min":157,"x_max":1069,"o":"m 486 1123 l 486 1134 q 510 1183 486 1164 q 553 1202 534 1202 l 562 1202 q 577 1200 568 1200 q 602 1184 585 1200 q 618 1149 618 1167 l 618 1130 l 616 1118 q 597 1087 616 1106 q 570 1068 578 1069 q 559 1067 562 1067 l 549 1066 l 545 1066 l 528 1069 q 501 1087 515 1069 q 486 1123 486 1105 m 868 1133 l 866 1120 q 846 1087 866 1107 q 805 1067 826 1067 l 791 1067 q 753 1085 771 1067 q 735 1124 735 1103 l 735 1135 q 755 1181 735 1161 q 788 1200 774 1200 q 794 1202 792 1202 l 804 1203 l 811 1203 q 851 1185 833 1203 q 869 1143 869 1168 l 869 1137 l 868 1135 l 868 1133 m 246 826 q 219 874 246 860 q 162 921 162 904 q 404 949 162 949 q 467 927 467 949 q 425 892 467 918 q 373 832 382 866 q 347 697 363 798 q 301 460 331 597 q 272 248 272 323 q 330 119 272 173 q 479 65 388 65 q 741 226 658 65 q 826 517 779 298 q 872 785 872 736 q 840 875 872 833 q 807 928 807 916 q 869 951 807 951 l 895 951 q 1069 920 1069 951 q 1029 878 1069 900 q 978 832 989 857 q 903 527 966 808 q 796 171 841 245 q 666 47 751 96 q 472 -3 581 -3 l 444 -3 q 224 78 306 -3 q 157 264 157 143 q 191 534 157 322 l 204 616 q 230 749 214 681 q 246 826 246 817 z "},"":{"ha":891,"x_min":155,"x_max":941,"o":"m 543 1042 l 543 1048 q 630 1149 543 1050 q 752 1249 718 1249 l 755 1249 l 759 1248 q 811 1216 811 1248 l 811 1213 l 810 1210 q 735 1133 810 1192 q 569 1029 601 1029 l 559 1029 q 543 1042 543 1029 m 389 411 q 352 582 389 449 q 221 861 283 827 l 189 876 q 155 893 155 890 l 155 898 q 181 901 155 901 l 195 902 l 210 903 q 262 905 241 905 q 312 912 283 905 q 341 919 340 919 q 364 903 364 919 q 354 884 364 895 q 344 862 344 873 q 390 774 344 861 q 468 620 436 688 q 511 552 500 552 q 652 710 525 552 q 779 871 779 869 q 771 891 779 882 q 764 908 764 901 q 785 920 764 920 l 798 920 l 812 918 l 826 917 l 869 917 q 941 905 941 917 q 893 879 941 892 q 812 827 846 865 q 559 465 722 724 q 499 299 528 415 q 471 143 471 184 q 481 89 471 103 q 524 56 491 75 q 556 24 556 37 q 412 3 556 3 l 321 2 l 298 1 l 275 1 q 226 26 226 1 q 276 61 226 34 q 340 121 327 87 q 389 411 389 241 z "},"":{"ha":792,"x_min":26,"x_max":796,"o":"m 382 263 q 497 289 446 263 q 579 349 549 315 q 657 551 657 439 l 657 566 q 601 687 657 631 q 493 728 560 728 l 480 728 q 377 678 393 728 q 359 595 371 661 q 324 435 347 530 q 301 314 301 340 l 301 289 q 335 264 301 264 l 347 263 l 382 263 m 63 7 q 26 22 26 7 q 80 60 26 44 q 150 118 134 75 q 240 497 165 161 q 315 859 315 832 q 279 898 315 886 q 220 931 220 918 q 329 955 220 955 l 400 955 l 436 957 q 471 958 460 958 q 526 935 526 958 q 482 895 526 922 q 438 817 438 867 q 555 769 438 790 q 712 720 673 749 q 796 542 796 660 q 764 410 796 473 q 674 303 732 347 q 553 241 616 260 q 377 223 489 223 l 357 224 l 340 225 q 286 197 302 225 q 263 113 263 157 q 304 67 263 83 q 345 32 345 52 q 239 9 345 9 l 203 10 l 168 10 l 81 7 l 63 7 z "},"":{"ha":755,"x_min":-96,"x_max":704,"o":"m 519 975 q 650 931 597 975 q 704 817 704 888 q 629 664 704 746 q 555 518 555 582 q 619 378 555 475 q 684 205 684 281 q 663 118 684 160 q 435 -9 601 -9 q 345 14 388 -9 q 301 68 301 37 q 317 115 301 99 q 357 130 333 130 q 399 96 366 130 q 480 62 432 62 q 564 115 528 62 q 587 195 587 150 q 517 357 587 269 q 447 508 447 445 q 505 641 447 572 q 592 804 592 745 q 570 864 592 838 q 500 890 547 890 q 407 839 454 890 q 323 692 359 787 q 239 309 288 596 q 135 -90 190 22 q -33 -224 68 -224 q -96 -172 -96 -224 q -47 -134 -96 -143 q 14 -113 1 -124 q 113 189 65 -68 q 140 379 138 331 q 166 544 142 427 q 224 722 191 661 q 519 975 361 975 z "},"":{"ha":693,"x_min":50,"x_max":635,"o":"m 232 79 l 243 79 q 331 120 279 79 q 414 215 382 161 q 472 357 446 270 q 498 505 498 445 l 498 511 q 478 553 498 536 q 423 570 458 570 l 404 570 q 317 539 362 570 q 243 466 273 508 q 160 236 160 345 l 159 222 l 159 189 q 180 108 159 138 q 232 79 202 79 m 477 727 l 471 727 q 375 830 455 727 q 295 949 295 932 l 296 951 q 352 984 296 984 l 355 983 q 406 951 388 983 q 496 752 496 788 l 496 743 q 477 727 496 727 m 518 605 l 605 616 q 625 591 625 616 q 582 390 625 566 q 539 155 539 213 q 583 119 539 119 l 600 122 l 615 121 q 635 101 635 121 q 590 51 635 80 q 505 22 545 22 q 452 46 465 22 q 431 107 439 71 q 420 143 424 143 q 393 127 416 143 q 356 98 369 111 q 331 77 344 86 q 186 13 244 13 l 174 13 q 82 58 115 13 q 50 173 50 103 l 50 187 q 50 190 50 189 q 50 193 50 191 q 50 195 50 194 q 80 339 50 259 q 283 586 144 505 q 394 623 349 623 q 470 614 440 623 q 518 605 499 605 z "},"":{"ha":693,"x_min":42,"x_max":654,"o":"m 490 496 l 490 514 q 469 556 490 540 q 409 573 448 573 l 396 573 q 394 573 395 573 q 309 543 353 573 q 172 337 217 479 q 151 226 151 273 l 151 193 q 172 113 151 144 q 224 82 193 82 l 236 82 q 309 113 260 82 q 464 358 410 175 q 490 496 490 446 m 654 949 l 654 939 q 554 827 654 927 q 430 728 454 728 q 405 745 405 728 q 507 894 405 762 q 592 974 570 974 l 606 974 q 654 949 654 974 m 511 608 l 597 619 q 618 594 618 619 q 575 393 618 570 q 532 158 532 216 q 575 122 532 122 l 592 125 q 627 112 627 125 l 627 106 q 580 53 627 81 q 498 25 533 25 q 448 44 463 25 q 425 104 433 62 q 414 146 416 146 q 325 81 408 146 q 178 16 243 16 l 166 16 q 75 61 107 16 q 42 176 42 106 l 42 191 q 73 343 42 261 q 157 489 104 425 q 277 589 210 552 q 388 627 344 627 q 461 617 432 627 q 511 608 490 608 z "},"":{"ha":693,"x_min":51,"x_max":637,"o":"m 500 512 q 479 554 500 537 q 418 571 458 571 l 412 571 q 329 546 376 571 q 243 465 282 522 q 182 338 204 408 q 160 217 160 269 l 160 197 q 180 112 160 145 q 233 79 199 79 l 245 79 q 246 79 245 79 q 328 117 277 79 q 475 362 431 193 q 498 487 498 450 l 500 500 l 500 512 m 397 890 q 498 983 469 983 q 543 951 528 983 q 625 761 625 787 q 605 734 625 734 l 600 734 q 534 804 585 734 q 481 875 484 875 q 397 806 479 875 q 300 736 315 736 q 286 749 286 736 l 286 753 q 324 804 286 762 q 397 890 363 846 m 521 606 l 606 617 q 627 588 627 617 q 584 387 627 559 q 541 168 541 215 q 584 120 541 120 q 609 123 602 123 q 637 103 637 123 q 589 51 637 79 q 507 23 542 23 q 459 39 471 23 q 434 99 448 55 q 417 144 420 144 q 393 128 414 144 q 356 97 372 112 q 322 70 340 82 q 187 14 241 14 l 176 14 q 84 58 118 14 q 51 174 51 102 l 51 188 q 80 335 51 253 q 163 482 109 416 q 284 586 217 547 q 408 624 351 624 l 420 624 q 470 615 439 624 q 521 606 500 606 z "},"":{"ha":693,"x_min":50,"x_max":675,"o":"m 498 503 l 498 515 q 476 558 498 543 q 423 574 453 574 l 404 574 q 318 543 363 574 q 182 345 227 479 q 159 214 159 275 l 159 200 q 177 118 159 153 q 232 83 196 83 l 244 83 q 334 126 279 83 q 416 222 388 170 q 498 503 498 378 m 387 907 l 407 907 q 483 878 437 907 q 559 848 528 848 q 626 878 591 848 q 663 907 661 907 q 675 890 675 907 l 675 885 q 630 811 675 853 q 542 770 585 770 l 527 770 q 445 800 501 770 q 363 829 389 829 q 321 818 337 829 q 289 789 305 806 q 264 773 273 773 q 251 789 251 773 l 251 793 q 297 865 251 823 q 387 907 343 907 m 519 610 l 605 621 q 625 592 625 621 q 582 391 625 563 q 539 171 539 218 q 583 123 539 123 l 608 126 q 635 113 635 126 l 635 106 q 588 54 635 82 q 506 26 541 26 q 454 48 471 26 q 431 109 437 71 q 420 147 425 147 q 333 82 416 147 q 186 17 251 17 l 174 17 q 83 61 117 17 q 50 177 50 104 l 50 205 q 83 349 50 269 q 284 590 150 515 q 406 627 351 627 l 418 627 q 468 618 438 627 q 519 610 498 610 z "},"":{"ha":693,"x_min":48,"x_max":655,"o":"m 496 519 q 475 561 496 544 q 421 578 454 578 l 401 578 q 323 552 368 578 q 242 475 279 526 q 182 355 205 424 q 159 251 159 286 l 157 237 l 157 217 l 157 204 q 176 121 157 155 q 230 87 195 87 l 242 87 q 327 126 277 87 q 408 217 376 166 q 468 355 440 268 q 495 494 495 442 l 496 507 l 496 519 m 412 848 l 410 831 q 390 802 410 822 q 350 782 370 782 l 335 782 q 299 799 316 782 q 281 842 281 817 l 281 848 l 284 865 q 301 895 284 874 q 333 916 317 916 q 339 917 337 917 l 348 918 l 357 918 q 371 916 363 916 q 396 900 380 916 q 412 861 412 884 l 412 850 l 412 848 m 655 865 l 655 848 q 634 803 655 825 q 591 782 612 782 l 582 782 q 543 799 559 782 q 526 828 526 815 l 524 838 l 524 853 q 528 870 528 863 q 544 897 528 877 q 578 917 560 917 l 591 919 l 599 919 q 612 917 607 917 q 652 876 652 917 q 655 865 655 867 m 518 614 l 604 625 q 624 596 624 625 q 580 395 623 567 q 537 175 537 222 q 581 127 537 127 l 606 130 q 633 111 633 130 q 588 59 633 87 q 505 31 542 31 q 456 46 467 31 q 429 112 435 73 q 420 151 423 151 l 329 85 q 184 21 242 21 l 172 21 q 81 65 115 21 q 48 168 48 109 l 48 209 q 78 346 48 264 q 282 594 139 511 q 404 631 347 631 l 416 631 q 467 623 435 631 q 518 614 498 614 z "},"":{"ha":693,"x_min":48,"x_max":634,"o":"m 479 944 l 468 944 q 420 921 444 944 q 397 869 397 897 l 397 856 l 397 854 l 397 849 q 399 834 399 844 q 417 807 399 825 q 458 789 435 789 l 470 789 q 518 815 498 789 q 539 864 539 841 l 539 881 q 537 898 537 889 q 518 925 537 907 q 479 944 500 944 m 497 507 l 497 519 q 476 562 497 545 q 422 578 455 578 l 402 578 q 316 547 361 578 q 178 342 222 483 q 157 224 157 276 l 157 198 q 179 117 157 146 q 231 87 201 87 l 242 87 q 318 120 266 87 q 404 210 370 153 q 475 381 454 295 q 497 507 497 468 m 593 876 l 592 855 q 551 778 592 814 q 467 741 509 741 l 446 741 q 373 775 403 741 q 342 849 342 809 l 342 861 q 380 949 342 907 q 473 992 418 992 l 481 992 q 559 961 524 992 q 594 880 594 930 l 593 876 m 517 614 l 604 625 q 624 595 624 625 q 581 396 624 592 q 538 174 538 200 q 581 127 538 127 l 598 131 l 614 130 q 634 109 634 130 q 588 59 634 88 q 503 31 542 31 q 449 58 463 31 q 429 118 434 85 q 420 152 423 152 l 330 85 q 184 22 243 22 l 173 22 q 81 66 115 22 q 48 182 48 110 l 48 196 q 81 354 49 273 q 271 588 146 513 q 405 632 344 632 q 468 623 439 632 q 517 614 498 614 z "},"":{"ha":878,"x_min":50,"x_max":863,"o":"m 227 100 l 243 100 q 301 125 262 100 q 361 184 340 151 q 426 345 381 218 q 471 505 471 472 q 406 545 471 545 l 401 545 l 395 545 q 325 517 368 545 q 244 433 282 490 q 187 309 207 377 q 167 208 167 241 l 167 177 q 186 121 167 142 q 227 100 206 100 m 566 338 q 602 345 597 345 q 697 416 647 345 q 747 531 747 488 l 747 543 q 715 574 747 574 l 703 575 l 686 575 q 580 501 632 575 q 528 374 528 427 l 528 369 q 551 338 528 338 l 566 338 m 401 144 q 338 98 385 144 q 251 30 291 53 q 161 7 212 7 q 80 51 110 7 q 50 164 50 94 q 86 320 50 234 q 182 469 121 407 q 304 564 243 532 q 444 596 366 596 q 500 600 481 596 l 526 610 q 551 614 541 614 q 579 605 561 614 q 607 595 597 595 q 660 607 617 595 q 740 618 703 618 l 755 618 q 834 589 806 618 q 863 524 863 561 l 863 508 q 796 388 863 437 q 703 340 749 353 q 607 316 657 327 q 538 296 557 306 q 506 220 506 278 q 628 87 506 87 q 710 115 657 87 q 776 142 764 142 q 788 135 788 142 q 710 53 788 99 q 574 7 633 7 q 433 90 477 7 q 401 144 406 144 z "},"":{"ha":589,"x_min":42,"x_max":575,"o":"m 155 244 q 300 64 155 64 q 423 112 351 64 q 469 134 457 134 q 501 113 501 134 q 489 92 501 106 q 388 14 454 48 q 260 -20 323 -20 l 246 -20 q 100 40 158 -20 q 42 199 42 100 l 42 229 q 73 375 42 301 q 260 590 134 521 q 399 628 330 628 l 425 628 q 522 601 468 628 q 575 549 575 573 l 575 537 q 562 490 575 512 q 529 469 549 469 q 468 514 522 469 q 373 559 415 559 q 222 466 289 559 q 155 244 155 372 m 243 -35 l 250 -35 q 265 -54 265 -35 q 292 -88 265 -61 q 319 -149 319 -115 l 319 -153 q 274 -241 319 -201 q 170 -281 229 -281 l 151 -281 q 134 -271 134 -281 q 181 -228 134 -254 q 228 -161 228 -201 q 209 -126 228 -140 q 191 -101 191 -111 q 219 -48 191 -91 q 243 -35 228 -35 z "},"":{"ha":568,"x_min":50,"x_max":551,"o":"m 180 366 l 180 351 q 191 342 180 342 l 203 342 q 375 405 277 342 q 451 503 451 453 l 451 507 l 450 511 q 434 565 450 543 q 387 586 417 586 l 370 586 q 252 516 306 586 q 180 366 180 425 m 427 726 l 417 726 q 325 822 408 726 q 241 945 241 918 l 241 947 l 241 951 q 291 983 241 983 l 304 983 q 355 945 334 983 q 442 751 442 787 l 442 745 l 441 742 q 427 726 441 726 m 392 640 l 416 640 q 513 603 475 640 q 551 513 551 566 q 341 329 551 388 q 267 312 335 327 q 189 290 199 296 q 160 211 160 271 q 196 115 160 151 q 278 79 231 79 q 359 96 326 79 q 418 131 393 113 q 459 149 444 149 q 474 136 474 149 q 448 91 474 122 q 360 29 422 60 q 240 -1 299 -1 l 227 -1 q 100 58 151 -1 q 50 205 50 117 l 50 230 q 79 373 50 300 q 264 602 140 532 q 392 640 332 640 z "},"":{"ha":568,"x_min":48,"x_max":612,"o":"m 178 368 l 178 353 q 193 345 178 345 l 197 345 q 380 412 284 345 q 449 505 449 460 l 449 509 l 448 513 q 430 568 448 547 q 376 589 412 589 l 372 588 q 250 518 304 588 q 178 368 178 427 m 612 950 l 612 940 q 513 828 612 928 q 388 728 413 728 q 363 743 363 728 l 363 746 q 468 898 363 764 q 551 975 528 975 l 565 975 q 576 973 572 973 q 612 950 612 973 m 390 642 l 414 642 q 512 605 474 642 q 549 507 549 567 q 494 405 549 448 q 351 335 439 361 q 260 313 323 327 q 187 292 197 298 q 158 213 158 273 q 194 117 158 153 q 276 81 229 81 q 357 98 323 81 q 416 133 391 115 q 457 151 442 151 q 472 138 472 151 q 391 50 472 100 q 238 1 310 1 l 225 1 q 98 60 149 1 q 48 207 48 119 l 48 232 q 80 386 48 307 q 162 522 111 465 q 273 610 213 578 q 390 642 332 642 z "},"":{"ha":568,"x_min":55,"x_max":578,"o":"m 185 366 l 185 351 q 200 342 185 342 l 203 342 q 387 409 291 342 q 456 503 456 457 l 456 507 l 455 510 q 437 565 455 545 q 387 586 419 586 l 383 586 l 379 585 q 256 515 311 585 q 185 366 185 424 m 453 983 l 458 983 q 498 947 481 983 q 578 760 578 777 l 578 755 q 553 734 578 734 q 487 804 532 734 q 432 875 442 875 q 350 806 431 875 q 253 737 269 737 q 238 749 238 737 l 238 753 q 333 871 238 758 q 453 983 429 983 m 397 640 l 421 640 q 518 602 481 640 q 556 504 556 564 q 500 400 556 443 q 357 332 444 357 q 267 310 330 324 q 194 289 204 296 q 165 210 165 270 q 200 114 165 150 q 283 79 236 79 q 364 96 330 79 q 423 131 397 113 q 464 149 449 149 q 479 135 479 149 q 398 47 479 97 q 245 -2 317 -2 l 232 -2 q 105 57 155 -2 q 55 204 55 117 l 55 229 q 173 524 55 386 q 278 607 216 574 q 397 640 339 640 z "},"":{"ha":568,"x_min":56,"x_max":604,"o":"m 186 370 l 186 361 q 201 349 186 349 l 205 349 q 387 416 281 349 q 456 503 456 460 l 456 522 q 439 571 456 549 q 388 593 422 593 l 380 593 q 249 512 312 593 q 186 370 186 431 m 231 838 l 231 853 q 249 896 231 872 q 292 919 268 919 l 309 919 q 342 903 326 919 q 359 874 359 886 l 361 863 l 361 846 l 358 834 q 341 806 358 827 q 307 785 324 785 l 294 783 l 286 783 l 284 783 l 279 783 q 269 785 275 785 q 247 801 262 785 q 231 838 231 817 m 473 854 l 475 868 q 493 897 475 875 q 535 920 511 920 l 552 920 q 588 901 573 920 q 602 873 602 883 l 604 860 l 604 854 l 604 851 l 604 849 l 602 837 q 582 803 602 823 q 541 783 562 783 l 527 783 q 493 799 513 783 q 473 841 473 815 l 473 852 l 473 854 m 397 647 l 422 647 q 519 610 482 647 q 557 512 557 572 q 359 340 557 399 q 268 317 331 332 q 195 296 204 302 q 166 217 166 278 q 202 121 166 155 q 287 87 237 87 q 369 104 337 87 q 426 139 401 122 q 462 156 450 156 q 479 134 479 156 q 375 41 479 97 q 246 5 307 5 l 233 5 q 103 69 150 5 q 56 224 56 132 l 56 237 l 56 250 q 91 397 57 320 q 280 615 159 551 q 397 647 342 647 z "},"":{"ha":380,"x_min":73,"x_max":315,"o":"m 298 723 l 288 723 q 192 826 272 723 q 112 945 112 928 l 113 947 q 162 979 113 979 l 176 979 q 222 947 205 979 q 313 748 313 784 l 313 742 l 313 739 q 298 723 313 723 m 106 519 q 83 538 83 519 q 144 592 83 557 q 260 626 204 626 q 300 572 300 626 q 276 450 300 556 q 240 301 252 343 q 216 195 229 259 q 203 130 203 131 q 229 93 203 93 q 267 104 241 93 q 304 115 293 115 q 315 108 315 115 l 315 102 q 245 40 315 81 q 124 -2 175 -2 l 115 -2 q 73 38 73 -2 l 73 46 q 92 117 73 48 q 145 329 111 186 q 180 485 180 473 q 149 524 180 524 l 106 519 z "},"":{"ha":380,"x_min":73,"x_max":475,"o":"m 252 723 l 246 723 q 226 737 226 723 l 226 741 q 359 932 226 761 q 420 969 388 969 l 423 968 q 475 941 475 968 l 475 937 q 473 928 473 930 q 367 816 473 909 q 252 723 261 723 m 106 520 q 84 539 84 520 q 144 593 84 559 q 261 627 205 627 q 300 573 300 627 q 276 451 300 557 q 228 251 252 345 q 203 126 203 158 q 229 94 203 94 q 268 105 241 94 q 304 116 294 116 q 315 109 315 116 l 315 104 q 245 41 315 83 q 125 -1 176 -1 l 115 -1 q 73 47 73 -1 q 95 128 73 50 q 149 339 117 207 q 180 486 180 471 q 149 526 180 526 l 106 520 z "},"":{"ha":380,"x_min":77,"x_max":437,"o":"m 216 895 q 313 979 288 979 q 353 952 338 979 q 437 751 437 796 q 417 730 437 730 l 412 730 q 349 797 400 730 l 292 871 q 248 838 280 871 q 206 798 215 806 q 113 732 128 732 q 98 745 98 732 l 98 749 q 216 895 98 755 m 102 520 q 87 539 87 520 q 144 592 87 557 q 256 627 201 627 l 264 627 q 303 579 303 627 q 255 343 303 531 q 206 124 206 155 q 232 94 206 94 q 270 105 243 94 q 307 116 296 116 q 318 109 318 116 l 318 104 q 243 38 318 77 q 122 -1 168 -1 q 77 39 77 -1 l 77 47 q 96 124 77 56 q 150 332 116 193 q 183 486 183 471 q 146 525 183 525 l 102 520 z "},"":{"ha":380,"x_min":74,"x_max":467,"o":"m 156 778 q 117 795 134 778 q 100 833 100 812 l 100 848 q 121 893 100 873 q 162 914 142 914 l 177 914 q 212 899 193 914 q 231 854 231 883 l 231 848 l 229 831 q 210 799 229 818 q 176 780 191 780 l 164 778 l 156 778 m 467 844 q 465 827 467 844 q 445 799 465 819 q 407 779 425 779 l 390 779 q 352 799 368 779 q 336 836 336 819 l 336 847 q 355 891 336 868 q 398 915 374 915 l 413 915 q 448 899 429 915 q 467 859 467 884 l 467 846 l 467 844 m 85 545 q 149 601 85 569 q 262 633 214 633 q 300 586 300 633 q 252 350 300 538 q 203 131 203 162 q 229 100 203 100 q 268 111 241 100 q 304 122 294 122 q 315 115 315 122 l 315 110 q 243 46 315 86 q 125 5 171 5 l 116 5 q 74 45 74 5 l 74 54 q 86 106 74 67 q 102 159 99 146 q 106 179 104 172 l 122 237 l 127 257 l 130 267 q 180 492 180 477 q 149 532 180 532 l 106 526 q 85 545 85 526 z "},"":{"ha":663,"x_min":51,"x_max":633,"o":"m 269 46 l 290 46 q 370 75 329 46 q 446 160 412 104 q 517 408 517 277 l 517 416 q 483 531 517 494 q 396 568 449 568 l 389 568 q 308 543 349 568 q 180 357 220 488 q 160 239 160 290 l 160 210 q 194 94 160 142 q 269 46 228 46 m 615 964 q 624 964 615 964 q 633 946 633 964 q 588 892 633 929 q 542 825 542 856 q 572 744 542 808 q 616 616 602 680 q 631 457 631 552 q 526 132 631 269 q 413 33 482 74 q 276 -8 344 -8 l 257 -8 q 107 53 164 -8 q 51 220 51 115 l 51 240 q 81 375 51 302 q 163 500 112 448 q 272 579 215 553 q 406 606 329 606 l 439 606 q 465 606 454 606 q 490 654 490 606 q 467 736 490 703 q 408 769 444 769 q 363 762 398 769 l 304 751 q 266 767 266 751 q 315 813 266 783 q 364 869 364 844 q 322 934 364 893 q 280 979 280 975 q 308 1000 280 1000 l 322 1000 q 410 961 355 1000 q 483 922 465 922 q 548 943 500 922 q 615 964 597 964 z "},"":{"ha":738,"x_min":101,"x_max":685,"o":"m 401 900 l 411 900 q 490 870 441 900 q 571 840 540 840 q 633 869 602 840 q 671 899 665 899 q 685 882 685 899 q 637 801 685 841 q 546 762 590 762 l 541 762 q 453 792 510 762 q 370 822 397 822 q 309 793 343 822 q 273 765 274 765 q 260 781 260 765 q 307 858 260 815 q 401 900 353 900 m 206 613 q 277 504 277 613 q 279 448 277 448 q 332 502 280 448 q 555 626 451 626 l 557 626 q 651 514 651 626 q 612 316 651 472 q 573 138 573 160 q 610 92 573 92 q 643 99 625 92 q 660 100 660 105 q 602 58 660 94 q 519 21 545 21 q 461 98 461 21 q 496 283 461 127 q 530 475 530 439 q 471 555 530 555 q 418 532 452 555 q 215 144 279 435 l 203 87 q 197 52 198 54 q 160 18 186 18 q 118 40 135 18 q 101 92 101 61 q 133 265 101 180 q 165 411 165 351 q 139 462 165 437 q 113 496 113 487 q 142 575 113 537 q 206 613 172 613 z "},"":{"ha":631,"x_min":60,"x_max":601,"o":"m 401 583 l 381 583 q 308 556 350 583 q 237 481 267 529 q 166 256 166 366 l 165 243 l 165 208 q 197 95 165 135 q 268 55 229 55 l 281 55 q 354 82 315 55 q 424 159 393 109 q 498 404 498 279 l 498 418 q 477 526 498 486 q 401 583 446 583 m 465 743 q 446 727 465 727 l 442 727 q 365 802 423 727 q 264 942 264 932 l 264 951 q 310 983 264 983 l 317 984 l 323 984 l 327 983 q 374 951 354 983 q 465 749 465 805 l 465 746 l 465 743 m 60 222 l 60 252 q 86 385 60 310 q 159 514 112 459 q 267 605 207 570 q 386 640 328 640 l 415 640 q 548 575 495 640 q 601 415 601 510 l 601 395 l 600 386 q 575 252 600 325 q 500 121 549 178 q 266 -3 395 -3 l 256 -3 q 115 62 170 -3 q 60 222 60 126 z "},"":{"ha":631,"x_min":54,"x_max":620,"o":"m 388 587 l 374 587 q 299 557 340 587 q 227 478 257 528 q 158 232 158 366 l 158 218 q 188 102 158 146 q 261 58 218 58 l 275 58 q 341 81 302 58 q 410 150 380 104 q 491 399 491 275 l 491 429 q 462 543 491 499 q 388 587 433 587 m 397 728 l 391 728 q 371 743 371 728 l 371 746 q 477 901 371 764 q 558 974 534 974 l 572 974 q 620 946 620 974 l 620 943 l 619 939 q 514 822 619 916 q 397 728 408 728 m 54 226 l 54 255 q 79 385 54 313 q 264 610 132 538 q 380 644 326 644 l 409 644 q 541 578 488 644 q 594 428 594 513 l 594 389 q 563 239 594 313 q 368 26 500 89 q 260 1 315 1 l 250 1 q 107 67 160 1 q 54 226 54 134 z "},"":{"ha":631,"x_min":61,"x_max":602,"o":"m 395 584 l 382 584 q 309 556 351 584 q 237 481 267 529 q 165 236 165 364 l 165 215 q 193 103 165 150 q 269 56 221 56 l 282 56 q 356 84 316 56 q 429 165 396 112 q 497 383 497 277 l 498 397 l 498 426 q 469 540 498 496 q 395 584 440 584 m 246 753 q 341 870 246 758 q 463 983 437 983 q 504 951 488 983 q 586 760 586 787 q 566 733 586 733 l 561 733 q 497 800 549 733 l 440 874 q 358 805 439 874 q 261 736 276 736 q 246 749 246 736 l 246 753 m 61 223 l 61 252 q 86 382 61 311 q 272 608 140 536 q 387 641 333 641 l 416 641 q 549 576 496 641 q 602 416 602 511 l 602 387 q 570 236 602 312 q 383 27 507 86 q 267 -2 322 -2 l 257 -2 q 117 60 174 -2 q 61 223 61 123 z "},"":{"ha":631,"x_min":58,"x_max":638,"o":"m 399 587 l 379 587 q 304 558 345 587 q 235 484 262 530 q 163 239 163 367 l 163 218 q 192 103 163 149 q 266 58 221 58 l 279 58 q 418 156 349 58 q 473 274 452 203 q 494 379 494 345 l 496 399 l 496 421 q 475 529 496 489 q 399 587 444 587 m 350 906 l 370 906 q 444 877 395 906 q 525 847 493 847 q 588 876 556 847 q 625 905 621 905 q 638 889 638 905 l 638 884 q 591 808 638 848 q 505 768 545 768 l 490 768 q 409 798 465 768 q 326 828 353 828 q 283 815 300 828 q 252 787 266 802 q 225 772 237 772 q 214 787 214 772 l 214 792 q 260 864 214 821 q 350 906 306 906 m 58 226 l 58 255 q 84 388 58 313 q 159 520 110 463 q 404 644 264 644 q 545 581 490 644 q 599 418 599 517 l 599 389 q 567 239 599 315 q 380 30 504 89 q 264 1 319 1 l 254 1 q 113 65 168 1 q 58 226 58 130 z "},"":{"ha":631,"x_min":59,"x_max":614,"o":"m 400 591 l 380 591 q 307 565 348 591 q 235 489 265 538 q 163 243 163 372 l 163 222 q 191 111 163 158 q 267 63 219 63 l 280 63 q 357 93 318 63 q 427 173 396 123 q 495 391 495 285 l 496 404 l 496 433 q 468 546 496 501 q 400 591 440 591 m 241 852 l 243 863 q 264 899 243 882 q 294 916 286 916 l 307 918 l 318 918 q 351 904 333 918 q 370 871 370 889 l 372 859 l 372 850 q 353 805 372 829 q 309 782 334 782 l 294 782 q 259 799 275 782 q 242 831 242 815 l 241 842 l 241 850 l 241 852 m 614 848 l 612 834 q 595 806 612 827 q 562 785 578 785 q 556 783 558 783 l 545 782 l 541 782 q 499 802 515 782 q 483 842 483 823 l 483 849 l 486 865 q 505 900 486 880 q 545 919 524 919 l 560 919 q 597 902 580 919 q 614 863 614 884 l 614 850 l 614 848 m 59 231 l 59 260 q 91 409 59 336 q 286 623 161 568 q 404 649 345 649 q 545 585 491 649 q 600 423 600 522 l 600 394 q 568 244 600 320 q 381 35 505 94 q 264 5 320 5 l 255 5 q 115 68 172 5 q 59 231 59 130 z "},"":{"ha":724,"x_min":98,"x_max":687,"o":"m 393 536 q 354 557 370 536 q 338 591 338 577 l 338 608 q 340 626 340 616 q 359 654 340 635 q 387 674 378 673 q 399 675 396 675 l 410 676 l 412 676 l 434 673 q 461 653 446 673 q 477 614 477 634 l 477 608 l 474 590 q 455 558 474 577 q 420 538 435 538 l 408 536 l 393 536 m 161 355 q 98 381 98 355 l 99 388 l 99 395 q 143 429 99 425 l 411 429 l 508 431 q 687 410 687 431 l 687 397 q 672 362 687 369 q 616 355 657 355 l 551 355 l 544 355 l 512 355 l 493 356 l 434 356 l 421 355 l 342 355 l 323 355 l 161 355 m 365 109 q 349 111 355 111 q 326 128 343 111 q 308 163 308 146 l 308 180 q 330 226 308 204 q 372 248 351 248 l 391 248 q 429 230 412 248 q 446 195 446 213 l 448 183 l 448 181 l 447 178 q 426 129 447 150 q 374 108 405 108 l 372 109 l 365 109 z "},"":{"ha":629,"x_min":60,"x_max":602,"o":"m 164 246 l 164 217 q 180 147 164 147 q 280 267 189 147 q 449 524 449 486 l 449 530 q 433 568 449 552 q 396 583 418 583 l 391 583 l 385 583 q 306 555 346 583 q 235 479 266 527 q 164 246 164 369 m 250 58 l 259 58 q 330 88 289 58 q 475 336 417 154 q 496 454 496 406 l 496 458 q 489 494 496 494 l 407 367 q 286 198 355 286 q 216 102 216 110 l 216 98 q 250 58 216 58 m 432 640 q 473 636 450 640 q 530 656 498 636 q 585 676 562 676 q 602 654 602 676 l 602 646 q 594 628 602 644 q 580 597 587 612 q 574 560 574 581 q 583 497 574 538 q 591 392 591 456 q 561 251 591 328 q 361 26 500 96 q 239 0 309 0 l 187 4 q 131 -17 162 4 q 79 -37 100 -37 q 60 -9 60 -37 q 77 30 60 -5 q 93 74 93 65 q 82 133 93 83 q 71 247 71 183 q 103 389 72 311 q 290 606 165 540 q 432 640 353 640 z "},"":{"ha":734,"x_min":85,"x_max":633,"o":"m 286 941 l 286 947 q 335 979 286 979 l 349 979 q 397 944 376 979 q 487 745 487 801 l 487 742 q 471 723 487 723 l 461 723 q 365 825 445 723 q 286 941 286 928 m 475 175 q 477 192 475 175 q 473 210 479 210 q 444 180 468 210 q 390 116 420 150 q 304 44 360 82 q 199 5 248 5 q 98 116 98 5 q 136 309 98 153 q 174 500 174 465 q 147 535 174 535 q 108 529 131 535 q 85 528 85 523 q 141 575 85 540 q 225 610 195 610 q 227 610 226 610 q 284 522 283 610 q 251 348 284 487 q 217 160 217 209 q 230 96 217 111 q 264 80 242 80 q 334 113 286 80 q 427 218 381 145 q 532 492 498 331 q 550 574 549 570 q 593 602 562 602 q 610 580 597 602 q 623 473 623 559 q 604 362 623 454 q 585 248 585 270 q 609 192 585 225 q 633 121 633 159 q 610 47 633 82 q 549 13 587 13 q 487 50 512 13 q 472 106 472 71 q 475 175 472 141 z "},"":{"ha":734,"x_min":83,"x_max":642,"o":"m 419 722 l 413 722 q 393 736 393 722 l 393 740 q 526 931 393 760 q 587 968 555 968 l 590 968 q 642 940 642 968 l 642 937 q 640 927 640 930 q 534 815 640 908 q 419 722 428 722 m 122 32 q 109 45 122 32 q 96 104 96 58 q 134 309 96 151 q 172 494 172 466 q 132 536 172 536 q 106 530 129 536 q 83 529 83 524 q 139 576 83 541 q 225 611 195 611 q 282 523 282 611 q 249 351 282 490 q 216 146 216 211 q 253 81 216 81 q 335 117 290 81 q 534 511 472 224 q 548 576 547 571 q 591 604 560 604 q 600 595 593 604 q 621 475 621 567 q 602 363 621 455 q 583 249 583 271 q 607 194 583 227 q 631 122 631 161 q 608 49 631 83 q 547 14 585 14 q 485 51 510 14 q 470 105 470 73 q 473 174 470 138 q 471 211 476 211 q 444 183 466 211 q 391 121 422 156 q 304 46 360 86 q 198 7 248 7 q 122 32 149 7 z "},"":{"ha":734,"x_min":84,"x_max":633,"o":"m 395 897 q 493 981 467 981 q 534 950 520 981 q 616 753 616 774 q 596 732 616 732 l 591 732 q 528 799 579 732 l 471 873 q 388 804 464 873 q 295 734 313 734 q 277 747 277 734 l 277 751 q 395 897 277 757 m 98 117 q 136 310 98 142 q 174 493 174 478 q 134 536 174 536 q 108 530 132 536 q 84 528 84 524 q 141 575 84 540 q 227 610 197 610 q 284 522 283 610 q 251 352 284 490 q 217 161 217 213 q 255 81 217 81 q 336 117 292 81 q 532 492 469 223 q 549 575 543 562 q 593 602 562 602 q 609 581 596 602 q 623 474 623 560 q 604 362 623 454 q 585 248 585 271 q 609 193 585 225 q 633 122 633 160 q 610 48 633 83 q 549 14 587 14 q 487 50 511 14 q 472 107 472 73 q 476 176 472 142 q 474 210 479 210 q 444 180 469 210 q 392 118 420 149 q 307 46 363 87 q 200 6 250 6 q 124 32 151 6 q 98 117 98 57 z "},"":{"ha":734,"x_min":83,"x_max":650,"o":"m 277 848 q 278 865 277 848 q 298 893 278 873 q 338 913 318 913 l 355 913 q 388 898 368 913 q 407 854 407 882 l 407 848 q 387 799 407 819 q 353 779 367 779 l 340 777 l 332 777 q 294 794 311 777 q 277 827 277 810 l 276 837 l 276 846 l 277 848 m 649 844 l 648 827 q 628 798 648 818 q 587 778 608 778 l 572 778 q 534 798 551 778 q 518 838 518 819 l 518 844 l 521 861 q 538 892 521 871 q 578 914 556 914 l 598 914 q 633 897 616 914 q 650 859 650 880 l 650 846 l 649 844 m 123 39 q 110 51 123 39 q 97 112 97 64 q 135 316 97 160 q 172 508 172 472 q 145 543 172 543 q 106 537 129 543 q 83 536 83 531 q 138 582 83 547 q 224 618 193 618 q 282 530 282 618 q 249 357 282 494 q 216 169 216 220 q 228 103 216 119 q 262 88 240 88 q 330 119 283 88 q 423 224 376 151 q 530 500 494 334 q 548 582 547 581 q 591 610 560 610 q 608 588 595 610 q 621 481 621 567 q 602 370 621 462 q 583 256 583 278 q 607 200 583 233 q 631 128 631 168 q 608 55 631 89 q 547 21 584 21 q 485 58 510 21 q 470 112 470 79 q 473 181 470 144 q 472 218 476 218 q 419 159 469 218 q 186 14 296 14 q 123 39 149 14 z "},"":{"ha":648,"x_min":-20,"x_max":635,"o":"m 557 973 q 572 973 557 973 q 620 945 620 973 l 620 942 q 513 822 620 916 q 394 727 407 727 q 371 742 371 727 l 371 745 q 405 796 371 745 q 451 862 439 847 q 479 903 463 878 q 557 973 526 973 m 357 181 q 457 311 391 181 q 523 500 523 441 q 519 533 523 515 l 516 549 l 509 576 q 515 603 509 595 q 570 625 534 625 l 585 625 q 621 610 607 625 q 635 578 635 595 q 535 331 635 538 q 348 -6 435 123 q 134 -268 261 -136 q 59 -309 94 -309 l 41 -309 q -20 -268 -20 -309 q 57 -220 -20 -233 q 183 -126 113 -211 q 254 48 254 -42 q 223 247 254 62 q 178 475 193 433 q 144 526 163 517 q 95 538 124 536 l 87 538 q 107 549 93 538 q 207 593 164 593 q 208 593 207 593 q 286 487 245 593 q 329 303 311 425 q 357 181 347 181 z "},"":{"ha":674,"x_min":-52,"x_max":635,"o":"m 200 142 l 200 123 q 225 75 200 93 q 284 58 251 58 l 304 58 q 387 86 345 58 q 461 161 429 115 q 537 385 537 269 l 537 413 q 508 518 537 475 q 435 560 479 560 l 423 560 q 348 529 387 560 q 286 452 309 498 q 221 276 243 366 q 200 142 200 186 m 302 538 q 326 549 307 538 l 343 559 q 378 578 365 572 q 490 601 424 601 q 595 549 555 601 q 635 421 635 497 q 608 271 635 345 q 532 140 581 198 q 420 51 484 81 q 298 15 389 36 q 200 -12 208 -6 q 153 -71 172 -31 q 134 -165 134 -110 q 149 -219 134 -178 q 165 -267 165 -260 q 126 -319 165 -302 q 25 -330 103 -330 q -52 -296 -52 -330 q -30 -256 -52 -279 q 5 -212 -7 -234 q 29 -137 17 -189 q 91 157 41 -85 q 152 479 140 399 q 174 592 164 559 q 206 732 184 625 q 229 877 229 840 l 224 891 l 216 903 q 198 949 198 932 q 223 988 198 965 q 281 1010 248 1010 q 327 987 315 1010 q 340 880 340 963 q 312 718 340 848 q 285 562 285 587 q 302 538 285 538 z "},"":{"ha":647,"x_min":-19,"x_max":636,"o":"m 242 855 q 246 877 246 867 q 268 904 246 887 q 310 922 289 922 l 313 922 l 333 918 q 356 902 340 918 q 372 866 372 886 l 372 851 q 354 810 372 832 q 320 787 336 787 q 314 786 316 786 l 304 785 l 300 785 l 283 787 q 244 830 244 787 l 242 840 l 242 855 m 553 785 l 538 785 q 506 800 524 785 q 488 827 488 814 l 484 844 l 484 857 q 486 873 486 863 q 505 901 486 883 q 532 920 523 920 q 543 921 541 921 l 553 922 l 557 922 l 574 920 q 601 901 586 920 q 616 862 616 882 l 616 856 l 615 854 l 615 851 l 612 837 q 595 807 612 829 q 553 785 577 785 m 207 602 q 287 496 245 602 q 329 315 309 441 q 358 190 349 190 q 457 320 391 190 q 524 509 524 450 q 520 542 524 524 l 517 557 l 509 585 q 529 621 509 610 q 570 633 549 633 l 585 633 q 636 587 636 633 q 593 468 636 566 q 176 -217 391 5 q 59 -300 94 -300 l 41 -300 q -19 -259 -19 -300 q 58 -212 -19 -224 q 184 -118 114 -202 q 254 57 254 -33 q 223 258 254 71 q 179 483 193 446 q 148 533 165 520 q 89 547 131 547 q 109 559 94 549 q 207 602 176 602 z "},"":{"ha":380,"x_min":75,"x_max":317,"o":"m 252 625 l 269 625 q 304 579 304 625 q 255 344 304 534 q 205 131 205 153 q 235 91 205 91 q 269 102 244 91 q 306 113 294 113 q 317 102 317 113 l 317 96 q 242 31 317 70 q 120 -9 166 -9 q 75 37 75 -9 q 94 124 75 55 q 147 335 114 193 q 180 488 180 477 q 143 519 180 519 l 109 515 q 84 538 84 515 q 112 570 84 553 q 252 625 201 625 z "},"":{"ha":821,"x_min":28,"x_max":781,"o":"m 28 19 q 71 54 28 20 q 129 125 113 87 q 173 311 173 229 q 144 345 173 340 q 105 370 105 351 q 147 427 105 389 q 197 480 189 465 q 244 650 205 496 q 283 823 283 804 q 248 883 283 860 q 212 922 212 906 q 326 946 212 946 l 350 945 l 399 946 l 422 946 q 513 919 513 946 q 475 867 513 897 q 420 800 437 838 q 374 578 374 694 q 402 547 374 547 q 489 573 420 547 q 571 599 557 599 q 586 582 586 599 q 476 498 586 553 q 333 387 367 444 q 293 265 319 364 q 267 125 267 165 q 320 66 267 84 q 449 58 346 58 q 602 82 553 58 q 702 163 652 106 q 768 221 751 221 q 781 198 781 221 q 760 109 781 176 q 726 26 739 43 q 649 -3 703 -3 l 528 -3 l 503 -2 l 231 1 l 159 1 l 61 -1 q 28 19 28 -1 z "},"":{"ha":410,"x_min":60,"x_max":425,"o":"m 227 159 q 265 101 227 101 q 266 101 265 101 q 299 107 286 101 q 317 113 312 113 q 321 103 321 113 q 276 62 321 93 q 134 -1 182 -1 l 120 -1 q 70 56 70 -1 q 105 195 70 66 q 141 376 141 323 q 123 395 141 395 l 89 388 q 60 408 60 388 q 108 466 60 437 q 174 543 156 494 q 221 723 191 591 q 252 897 252 854 q 208 921 252 915 q 165 939 165 926 q 174 958 165 951 q 332 991 222 991 q 383 936 383 991 q 352 779 383 930 q 320 604 320 627 q 338 580 320 580 l 374 593 q 412 602 399 602 q 425 578 425 602 q 362 518 425 551 q 287 455 299 486 q 250 307 274 425 q 227 159 227 190 z "},"":{"ha":1062,"x_min":35,"x_max":1120,"o":"m 623 1038 l 623 1045 q 725 1154 623 1064 q 839 1244 828 1244 l 850 1244 q 905 1204 905 1244 l 905 1201 q 832 1128 905 1180 q 642 1020 677 1020 q 623 1038 623 1020 m 224 -2 q 41 22 68 -2 l 35 33 q 90 98 35 46 q 145 203 123 130 q 249 626 153 227 q 276 810 276 738 q 239 881 276 848 q 203 919 203 915 q 269 943 203 943 q 383 922 334 943 q 451 877 431 901 q 621 547 471 853 q 794 240 770 240 q 815 279 805 240 q 921 779 921 688 q 899 864 921 819 q 876 930 876 909 q 935 947 876 947 q 1120 930 1120 947 q 1071 890 1120 913 q 1001 807 1022 867 q 944 578 994 789 l 921 477 q 877 295 909 427 q 844 119 844 162 l 845 89 l 846 62 q 817 8 846 8 q 774 39 806 8 q 656 177 692 115 l 642 206 q 582 325 612 265 l 552 386 q 507 477 517 457 q 359 746 371 746 q 335 698 348 746 q 270 411 321 650 q 218 153 218 172 q 237 75 218 95 l 260 61 q 296 34 291 42 l 299 19 q 257 -2 299 -2 l 224 -2 z "},"":{"ha":752,"x_min":98,"x_max":684,"o":"m 618 968 l 629 968 q 684 939 684 968 l 684 935 q 571 815 684 916 q 439 715 458 715 l 435 715 q 412 732 412 715 l 412 735 q 550 926 412 749 q 618 968 583 968 m 562 625 q 668 525 667 625 q 631 322 668 476 q 595 138 595 168 q 630 92 595 92 q 674 101 651 92 q 678 98 678 101 q 652 76 678 95 q 522 19 571 19 q 474 39 491 19 q 456 93 456 59 q 495 260 457 99 q 533 467 533 422 q 480 549 533 549 l 479 549 q 414 517 456 549 q 329 415 373 485 q 250 212 285 345 q 199 48 215 79 q 146 18 183 18 q 116 39 135 18 q 98 103 98 61 l 98 135 q 130 260 98 170 q 163 402 163 349 q 136 452 163 429 q 110 509 110 475 q 141 575 110 543 q 215 608 173 608 q 276 553 257 608 q 284 460 284 530 q 287 457 284 457 q 342 500 297 457 q 562 625 468 624 z "},"":{"ha":1312,"x_min":96,"x_max":1297,"o":"m 732 808 q 597 879 732 879 q 458 847 526 879 q 248 582 316 781 q 216 388 216 489 l 216 364 q 288 137 216 224 q 465 51 360 51 l 476 52 l 486 52 q 606 125 581 52 q 676 483 620 163 q 732 808 732 803 m 588 -2 q 542 -7 588 -2 q 429 -12 495 -12 q 300 16 363 -12 q 121 207 170 73 q 96 358 96 278 l 96 390 q 137 595 96 489 q 254 779 179 701 q 617 937 405 937 l 859 922 l 890 923 l 951 926 q 1099 927 966 927 q 1249 920 1231 927 q 1297 802 1297 902 q 1266 772 1297 772 l 1257 779 q 1235 802 1237 801 q 987 859 1151 859 q 939 846 957 859 q 899 784 921 832 q 848 591 848 676 q 860 551 848 563 q 943 519 890 519 q 1023 532 997 519 l 1064 559 q 1106 578 1095 578 q 1136 539 1136 578 q 1107 400 1136 453 q 1077 371 1092 371 q 1033 407 1067 371 q 930 442 999 442 q 826 400 861 442 q 790 155 790 357 q 806 92 790 109 q 876 74 823 74 q 1108 100 1044 74 q 1168 144 1132 110 q 1212 178 1205 178 q 1223 156 1223 178 q 1196 85 1223 135 q 1144 18 1168 36 q 917 1 1120 1 l 741 8 q 588 -2 681 8 z "},"":{"ha":993,"x_min":46,"x_max":960,"o":"m 166 233 l 166 219 q 192 101 166 144 q 259 58 217 58 l 273 58 q 349 90 311 58 q 408 165 387 123 q 476 437 476 301 l 476 452 q 450 554 476 519 q 386 589 425 589 l 373 589 q 300 562 337 589 q 234 484 263 534 q 166 233 166 369 m 593 365 q 609 351 593 351 l 612 351 l 616 351 q 792 414 699 351 q 846 506 846 450 l 846 529 q 828 573 846 557 q 786 589 810 589 l 774 589 q 657 517 722 589 q 593 379 593 445 l 592 372 l 593 368 l 593 365 m 238 -5 q 102 58 159 -5 q 46 222 46 121 q 151 526 46 406 q 397 647 256 647 q 494 623 454 647 q 543 584 511 612 q 575 555 574 555 q 617 579 585 555 q 671 613 650 602 q 804 648 734 648 l 822 648 q 921 614 882 648 q 960 527 960 581 q 897 393 960 444 q 692 317 835 342 q 606 300 614 303 q 575 220 575 287 q 611 117 575 153 q 695 81 647 81 q 787 102 743 81 q 828 124 790 103 q 878 146 866 146 q 890 137 890 146 q 795 39 890 96 q 658 -2 726 -2 q 550 22 590 -2 q 508 57 532 33 q 471 81 484 81 q 427 61 457 80 q 257 -5 324 -5 q 256 -5 256 -5 l 238 -5 z "},"":{"ha":703,"x_min":39,"x_max":717,"o":"m 717 1235 l 717 1227 q 620 1127 717 1224 q 487 1029 522 1029 l 482 1029 q 445 1068 466 1029 q 422 1110 424 1107 q 412 1128 421 1113 q 399 1149 403 1143 q 379 1184 396 1156 q 363 1217 363 1213 l 363 1222 q 385 1244 363 1244 q 453 1189 393 1244 q 517 1135 513 1135 q 609 1188 532 1135 q 702 1242 687 1242 q 717 1235 717 1242 m 701 906 l 701 886 q 676 738 701 792 q 651 714 665 714 q 609 770 628 714 q 565 852 591 827 q 453 897 518 897 q 349 869 387 897 q 293 761 293 827 q 338 638 293 694 q 457 538 362 610 q 591 408 551 466 q 631 281 631 350 q 541 73 631 151 q 431 12 492 30 q 315 -7 370 -7 q 65 34 176 -7 q 39 73 39 43 l 39 94 q 64 245 39 199 q 88 263 74 263 q 131 201 114 263 q 178 109 147 138 q 338 54 235 54 q 459 103 406 54 q 513 217 513 152 q 469 337 513 281 q 353 438 450 361 q 217 571 255 515 q 178 713 178 627 q 198 803 178 757 q 354 941 237 897 q 454 960 404 960 q 560 945 505 960 q 634 930 615 930 l 650 934 l 670 937 q 701 906 701 937 z "},"":{"ha":484,"x_min":12,"x_max":555,"o":"m 337 729 l 327 729 q 294 770 314 729 q 216 941 216 926 l 216 945 q 239 962 216 962 q 304 899 250 962 q 361 836 357 836 q 448 899 372 836 q 539 962 524 962 q 555 951 555 962 l 555 947 q 453 830 555 932 q 337 729 352 729 m 12 90 q 60 168 12 168 q 105 126 85 168 q 146 70 125 85 q 209 55 168 55 q 277 83 251 55 q 304 156 304 111 q 235 270 304 201 q 143 376 166 338 q 119 458 119 413 q 168 578 119 531 q 327 643 236 643 l 340 643 q 432 619 398 643 q 467 563 467 595 q 451 515 467 530 q 415 500 436 500 q 366 543 394 500 q 298 586 338 586 q 238 562 259 586 q 216 497 216 538 q 290 381 216 457 q 375 286 363 306 q 404 176 404 240 q 339 55 404 111 q 180 -1 275 -1 l 166 -1 q 56 25 99 -1 q 12 90 12 51 z "},"":{"ha":873,"x_min":150,"x_max":917,"o":"m 535 1112 l 534 1095 q 513 1064 534 1085 q 465 1043 492 1043 l 463 1043 l 460 1044 l 454 1044 q 437 1046 444 1046 q 416 1061 431 1046 q 400 1100 400 1077 l 400 1113 l 403 1128 q 424 1164 403 1143 q 469 1185 444 1185 l 478 1185 q 519 1168 502 1185 q 536 1128 536 1151 l 536 1114 l 535 1112 m 781 1114 l 780 1103 q 760 1066 780 1086 q 726 1046 739 1046 l 715 1044 l 702 1044 q 663 1061 680 1044 q 646 1098 646 1078 l 646 1116 q 664 1160 646 1137 q 701 1183 683 1183 l 714 1185 l 725 1185 q 738 1183 733 1183 q 780 1137 780 1183 l 782 1124 l 782 1116 l 781 1114 m 289 883 q 305 888 289 883 q 336 892 321 892 q 350 882 350 892 q 341 869 350 879 q 332 852 332 860 q 363 794 332 844 q 445 650 394 745 q 515 555 496 555 q 591 640 522 555 q 715 783 660 724 q 771 851 771 841 q 766 866 771 861 q 753 880 753 875 q 774 892 753 892 l 789 890 l 804 888 l 819 886 q 871 885 826 885 q 917 880 917 885 l 917 873 q 869 852 917 868 q 789 800 821 836 q 544 444 690 687 q 489 273 514 394 q 465 117 465 151 q 490 64 465 83 q 551 16 551 16 q 447 -6 551 -6 l 402 -5 l 336 -5 l 269 -7 l 245 -7 q 210 16 210 -7 q 260 54 210 32 q 326 110 310 75 q 361 251 341 144 q 380 396 380 358 q 349 557 380 434 q 207 838 285 804 q 150 863 150 862 l 151 865 q 205 870 155 866 q 289 883 256 873 z "},"":{"ha":850,"x_min":35,"x_max":870,"o":"m 555 1012 q 510 1059 538 1012 q 435 1199 435 1181 l 435 1204 q 454 1223 435 1223 l 458 1223 q 526 1169 471 1223 q 593 1115 580 1115 q 677 1168 606 1115 q 767 1222 749 1222 q 786 1213 786 1222 l 786 1208 q 620 1039 786 1175 q 555 1012 587 1012 m 35 28 q 60 91 35 56 q 334 445 239 341 q 668 827 668 809 q 406 857 668 857 q 306 833 336 857 q 250 752 275 810 q 203 693 224 693 q 183 736 183 693 q 228 901 183 860 q 429 923 252 923 l 456 922 q 512 920 492 920 l 598 920 q 678 922 643 920 q 742 925 713 924 l 770 926 q 870 899 870 926 q 715 702 870 882 q 531 480 561 522 q 458 396 502 438 q 316 229 415 355 q 218 86 218 104 q 347 61 218 61 l 576 53 q 715 144 673 53 q 768 217 750 217 q 795 176 795 217 q 774 78 795 135 q 730 0 754 22 q 631 -21 705 -21 l 603 -21 q 519 -16 585 -21 l 435 -10 q 237 -5 321 -5 l 127 -7 q 35 28 35 -7 z "},"":{"ha":636,"x_min":50,"x_max":618,"o":"m 395 724 l 389 724 q 357 758 374 724 q 278 932 278 917 l 278 936 q 300 954 278 954 q 365 892 313 954 q 426 830 417 830 q 508 892 434 830 q 598 954 582 954 q 614 943 614 954 l 614 939 q 515 824 614 923 q 395 724 416 724 m 237 632 l 255 632 q 370 615 288 632 q 478 598 452 598 q 545 612 505 598 q 591 627 585 627 q 618 601 618 627 q 465 427 618 584 q 291 245 311 270 q 224 118 224 167 q 233 100 224 105 q 450 75 279 75 q 512 113 485 75 q 557 151 538 151 q 569 99 569 151 q 533 11 569 48 q 420 -26 497 -26 q 276 2 377 -26 q 155 31 176 31 q 114 28 135 31 l 98 26 q 61 20 71 20 q 50 29 50 20 q 104 144 50 75 q 278 326 119 162 q 437 512 437 489 q 260 540 437 540 q 183 498 214 540 q 128 457 152 457 q 115 492 115 457 q 159 602 115 557 q 237 632 188 632 z "},"":{"ha":557,"x_min":-130,"x_max":665,"o":"m 544 985 q 619 972 589 985 q 665 924 665 953 q 619 862 665 862 q 564 891 597 862 q 521 921 530 921 q 434 862 470 921 q 374 652 374 764 q 431 611 374 622 q 488 579 488 600 q 421 545 488 559 q 331 472 354 531 q 278 242 325 456 q 213 -38 232 28 q 158 -161 195 -104 q 66 -254 121 -217 q -56 -290 10 -290 q -107 -276 -84 -290 q -130 -237 -130 -261 q -87 -196 -130 -196 q -51 -206 -74 -196 q -16 -216 -27 -216 q 43 -186 15 -216 q 91 -98 71 -157 q 160 194 110 -39 q 211 443 211 427 q 192 526 211 497 q 163 563 173 555 q 153 578 153 572 q 193 609 153 585 q 249 660 233 633 q 282 735 264 686 q 303 795 299 785 q 380 911 335 868 q 544 985 458 985 z "},"":{"ha":545,"x_min":191,"x_max":547,"o":"m 414 994 l 425 994 q 465 958 448 994 q 547 771 547 783 q 522 747 547 747 l 517 747 q 450 814 497 747 q 392 880 402 880 q 308 815 391 880 q 208 750 224 750 q 191 760 191 750 l 191 764 q 245 833 191 770 l 275 867 q 303 902 295 892 q 414 994 374 994 z "},"":{"ha":539,"x_min":224,"x_max":581,"o":"m 350 739 l 339 739 q 307 777 326 739 q 224 949 224 942 q 245 970 224 970 l 254 970 q 320 908 269 970 q 378 846 372 846 q 464 908 384 846 q 562 969 543 969 q 581 956 581 969 q 401 758 581 922 q 350 739 382 739 z "},"":{"ha":552,"x_min":222,"x_max":582,"o":"m 379 749 l 363 749 q 268 788 311 749 q 224 886 224 828 l 222 897 l 222 913 q 249 937 222 937 q 272 902 253 937 q 315 850 290 868 q 387 831 339 831 q 471 854 435 831 q 529 907 507 876 q 558 938 550 938 l 563 938 q 582 923 582 938 q 501 798 582 871 q 379 749 447 749 z "},"":{"ha":456,"x_min":271,"x_max":420,"o":"m 328 773 q 314 774 322 774 q 289 792 307 774 q 271 836 271 810 l 271 840 l 271 843 q 293 902 271 876 q 345 928 314 928 l 359 928 q 402 909 384 928 q 420 868 420 891 l 420 850 q 418 831 418 844 q 396 795 418 818 q 347 772 373 772 l 335 772 l 332 773 l 328 773 z "},"":{"ha":511,"x_min":216,"x_max":470,"o":"m 354 945 l 342 945 q 294 922 317 945 q 271 870 271 899 l 271 860 q 290 811 271 829 q 324 793 308 793 l 338 791 l 340 791 l 342 791 l 345 791 q 391 814 368 791 q 414 866 414 837 l 414 884 q 396 923 414 901 q 354 945 378 945 m 216 865 q 253 952 216 910 q 341 995 291 995 l 361 995 q 438 960 407 995 q 470 879 470 924 l 469 875 q 432 784 469 826 q 336 741 394 741 l 328 741 q 251 771 285 741 q 217 841 217 802 l 216 849 l 216 865 z "},"":{"ha":512,"x_min":98,"x_max":349,"o":"m 214 -304 l 203 -304 q 128 -278 159 -304 q 98 -203 98 -252 l 98 -198 q 159 -78 98 -144 q 304 21 250 21 l 310 21 q 323 11 323 21 q 288 -26 323 7 q 202 -165 202 -106 q 274 -233 202 -233 q 313 -227 288 -233 q 343 -220 338 -220 q 349 -230 349 -220 l 349 -234 q 323 -267 349 -248 q 214 -304 271 -304 z "},"":{"ha":576,"x_min":177,"x_max":613,"o":"m 316 930 l 336 930 q 415 901 357 930 q 500 872 473 872 q 561 901 526 872 q 600 930 595 930 q 613 911 613 930 q 564 827 613 869 q 477 786 515 786 l 456 786 q 375 815 433 786 q 289 844 317 844 q 228 817 262 844 q 191 789 195 789 q 177 813 177 789 q 223 884 177 838 q 316 930 270 930 z "},"":{"ha":637,"x_min":218,"x_max":667,"o":"m 403 987 l 417 987 q 463 957 463 987 l 463 954 q 359 833 463 926 q 245 740 254 740 l 239 740 q 218 756 218 740 l 218 760 q 325 918 218 781 q 403 987 379 987 m 604 987 l 615 987 q 667 957 667 987 l 667 951 q 561 834 667 928 q 437 740 455 740 l 431 740 q 416 755 416 740 l 416 762 q 521 909 416 774 q 604 987 582 987 z "},"":{"ha":734,"x_min":70,"x_max":694,"o":"m 668 385 q 694 368 694 385 l 694 361 q 671 313 694 319 q 370 311 664 311 l 356 310 l 329 310 l 315 309 l 274 309 l 253 310 l 178 310 l 165 309 l 151 309 l 124 308 l 110 308 q 70 326 70 308 l 70 332 q 98 381 70 376 q 393 383 111 383 l 620 385 l 668 385 z "},"":{"ha":1215,"x_min":70,"x_max":1173,"o":"m 1173 370 l 1173 359 q 1143 311 1173 311 l 1120 311 l 1109 310 l 806 310 l 770 309 l 292 309 l 280 309 l 256 309 l 222 309 l 151 309 l 117 307 l 105 307 q 70 332 70 307 q 100 380 70 376 q 637 382 113 382 l 1139 384 l 1150 384 q 1173 370 1173 384 z "},"":{"ha":332,"x_min":146,"x_max":346,"o":"m 231 656 l 222 656 l 216 657 q 166 679 186 657 q 146 738 146 701 l 146 762 q 199 895 146 825 q 326 991 271 991 q 345 972 345 991 l 345 968 q 321 937 346 958 q 252 824 252 874 q 279 779 252 804 q 306 728 306 755 q 283 679 306 702 q 231 656 260 656 z "},"":{"ha":336,"x_min":151,"x_max":355,"o":"m 355 903 l 355 878 q 296 737 355 815 q 222 667 262 692 q 171 642 182 642 l 168 642 q 151 662 151 642 l 151 665 l 209 730 q 247 812 247 772 q 222 853 247 831 q 197 906 197 876 q 223 958 197 937 q 281 979 249 979 l 286 979 q 334 958 314 979 q 355 903 355 938 z "},"":{"ha":338,"x_min":25,"x_max":229,"o":"m 149 159 l 163 159 q 212 133 196 159 q 229 73 229 107 l 229 64 q 177 -75 229 -6 q 101 -148 144 -119 q 45 -176 58 -176 l 41 -176 q 25 -157 25 -176 l 25 -153 q 46 -126 25 -144 q 123 -11 123 -62 q 96 33 123 12 q 69 86 69 55 q 95 138 69 117 q 149 159 121 159 z "},"":{"ha":570,"x_min":148,"x_max":592,"o":"m 148 737 l 148 757 q 214 908 148 827 q 325 988 279 988 q 347 970 347 988 l 347 966 q 324 934 347 954 q 254 819 254 871 q 280 775 254 799 q 307 725 307 752 q 283 675 307 699 q 225 652 260 652 l 220 653 q 165 678 182 653 q 148 737 148 703 m 393 749 q 395 773 393 749 q 456 905 395 823 q 568 987 518 987 l 575 987 q 592 969 592 987 q 571 936 592 953 q 498 816 499 876 q 525 775 498 800 q 552 723 552 751 q 527 673 552 694 q 482 653 503 653 l 463 653 q 412 677 431 653 q 393 745 393 701 l 393 749 z "},"":{"ha":573,"x_min":142,"x_max":591,"o":"m 269 968 l 279 968 l 283 967 q 326 947 306 967 q 346 890 346 927 l 346 871 q 287 726 346 804 q 214 656 253 680 q 161 632 174 632 l 158 632 q 142 648 142 632 l 142 655 q 168 688 142 665 q 201 720 193 711 q 237 802 237 765 q 213 843 237 819 q 189 896 189 867 q 213 946 189 924 q 269 968 238 968 m 591 890 l 591 871 q 535 730 591 804 q 461 659 503 686 q 407 631 420 631 l 403 631 q 387 651 387 631 l 387 654 q 407 682 387 666 q 484 802 484 745 q 459 842 484 820 q 434 895 434 864 q 459 947 434 926 q 518 968 485 968 l 523 967 q 572 946 553 967 q 591 890 591 925 z "},"":{"ha":575,"x_min":18,"x_max":467,"o":"m 18 -157 l 18 -151 q 40 -122 18 -142 q 77 -85 62 -102 q 113 -4 113 -45 q 89 36 113 8 q 64 91 64 64 q 89 140 64 117 q 149 162 113 162 l 155 161 q 201 142 182 161 q 221 84 221 122 l 221 60 q 165 -77 221 -9 q 37 -174 85 -174 l 33 -174 q 18 -157 18 -174 m 465 46 q 398 -93 465 -11 q 283 -175 331 -175 l 279 -175 q 262 -156 262 -175 l 262 -152 q 282 -125 262 -141 q 359 -5 359 -62 q 335 36 359 11 q 310 89 310 60 q 334 139 310 117 q 393 161 359 161 l 398 161 q 448 139 429 161 q 467 71 467 118 q 465 46 465 54 z "},"":{"ha":663,"x_min":99,"x_max":643,"o":"m 431 672 l 582 688 q 643 646 643 688 l 643 633 q 566 590 643 590 l 479 597 q 417 576 434 597 q 400 507 400 555 l 401 489 q 401 437 401 471 q 388 308 401 404 q 360 57 375 213 q 336 -148 345 -100 q 295 -197 327 -197 q 262 -151 262 -197 l 271 -37 q 280 88 271 -35 q 290 303 290 211 q 302 456 290 395 q 314 543 314 517 q 299 581 314 569 q 237 593 284 593 l 149 585 q 99 629 99 585 q 120 668 99 650 q 180 686 141 686 l 285 670 q 332 689 323 670 q 340 790 340 709 l 335 903 q 355 958 335 942 q 405 974 375 974 l 422 974 q 452 948 452 974 q 432 827 452 923 q 412 701 412 730 q 431 672 412 672 z "},"":{"ha":686,"x_min":62,"x_max":659,"o":"m 309 402 q 320 461 309 406 q 332 550 332 517 q 316 593 332 583 q 264 604 300 604 l 241 602 l 217 600 q 151 594 157 594 q 115 637 115 594 q 136 679 115 663 q 182 694 157 694 q 236 690 208 694 q 288 683 264 686 l 312 680 q 348 693 337 680 q 359 747 359 707 l 357 842 l 355 865 q 353 911 353 888 q 372 954 353 935 q 431 974 391 974 q 471 944 471 974 q 449 830 471 927 q 427 713 427 734 q 473 682 427 682 l 587 697 q 644 683 628 697 q 659 639 659 669 q 589 598 659 598 l 477 606 q 429 581 442 606 q 415 484 415 556 l 416 460 q 416 420 416 436 q 403 333 416 404 q 389 233 389 263 q 438 182 389 182 l 572 195 q 614 157 614 195 q 535 93 614 93 q 474 100 529 93 q 396 107 420 107 q 365 -2 365 107 l 366 -26 l 368 -75 q 370 -126 370 -110 q 353 -163 370 -143 q 294 -182 336 -182 q 252 -155 252 -182 l 297 75 q 248 105 297 105 q 190 98 239 105 q 111 91 140 91 q 62 134 62 91 l 62 153 q 141 191 62 191 l 252 180 q 300 200 289 180 q 311 284 311 220 l 309 330 q 309 402 309 353 z "},"":{"ha":529,"x_min":121,"x_max":448,"o":"m 446 404 q 397 303 446 353 q 287 254 347 254 l 260 254 q 166 294 211 254 q 122 389 122 334 l 121 399 l 121 415 q 169 529 121 476 q 281 582 217 582 l 302 582 q 404 538 360 582 q 448 431 448 494 l 448 420 q 446 404 446 410 z "},"":{"ha":1016,"x_min":46,"x_max":901,"o":"m 210 58 q 183 12 210 39 q 127 -14 157 -14 l 117 -14 q 66 10 87 -14 q 46 60 46 35 l 46 68 l 47 71 l 47 76 q 48 83 48 81 q 78 132 48 107 q 132 157 108 157 l 139 157 q 189 134 167 157 q 212 86 212 112 l 212 71 q 210 58 210 62 m 391 71 l 392 84 q 419 129 392 102 q 475 157 447 157 l 483 157 q 535 132 514 157 q 555 86 555 107 l 555 70 l 553 54 q 528 13 553 38 q 486 -12 503 -12 l 468 -14 l 460 -14 q 414 7 435 -14 q 393 45 393 28 q 390 58 390 54 l 390 69 l 391 71 m 901 71 q 876 17 901 47 q 821 -14 851 -14 l 803 -14 q 756 11 777 -14 q 736 61 736 35 l 736 66 l 736 69 q 762 126 736 96 q 819 157 787 157 l 832 157 q 877 137 853 157 q 900 94 900 117 l 901 89 l 901 71 z "},"":{"ha":1434,"x_min":81,"x_max":1345,"o":"m 168 615 q 190 546 168 578 q 248 513 213 513 l 261 513 q 337 556 302 513 q 389 686 389 619 l 389 690 l 390 695 l 391 709 l 391 734 q 369 820 391 785 q 309 854 347 854 l 300 854 l 296 853 q 207 792 246 853 q 168 676 168 730 l 167 667 l 166 652 l 166 629 q 168 615 168 621 m 726 404 l 712 404 q 629 349 664 404 q 583 207 583 276 l 583 178 q 584 165 584 169 q 611 90 584 117 q 669 63 637 63 l 673 63 q 756 110 722 63 q 805 237 805 177 l 806 241 l 806 245 l 807 260 l 807 279 q 785 369 807 335 q 726 404 763 404 m 1181 404 l 1163 404 q 1076 343 1118 404 q 1034 203 1034 283 l 1034 189 q 1056 99 1034 134 q 1111 64 1078 64 l 1133 64 q 1218 125 1179 64 q 1257 241 1257 186 l 1258 251 l 1258 285 q 1236 370 1258 336 q 1181 404 1215 404 m 301 902 l 321 902 q 432 853 387 902 q 477 734 477 805 l 477 714 q 407 540 477 615 q 258 465 336 465 l 237 465 q 126 514 172 465 q 81 634 81 564 l 81 654 q 149 824 81 746 q 301 902 216 902 m 857 903 q 875 884 875 903 q 204 67 875 854 q 129 18 163 18 q 110 38 110 18 q 781 856 110 68 q 857 903 821 903 m 715 452 l 742 452 q 849 404 804 452 q 893 287 893 355 l 893 260 q 826 94 893 172 q 676 16 758 16 l 642 16 q 545 62 591 16 q 498 181 498 109 l 498 208 q 565 374 498 296 q 715 452 633 452 m 1166 452 l 1194 452 q 1305 398 1266 452 q 1345 274 1345 345 l 1344 267 q 1284 103 1344 176 q 1203 37 1248 58 q 1128 16 1159 16 l 1101 16 q 992 67 1036 16 q 949 208 949 119 q 1018 376 949 296 q 1092 432 1049 412 q 1166 452 1135 452 z "},"":{"ha":424,"x_min":84,"x_max":390,"o":"m 367 582 l 372 582 q 390 566 390 582 l 390 562 q 298 445 390 543 q 205 330 205 346 q 257 225 205 323 q 308 108 308 128 q 287 88 308 88 l 281 88 q 178 204 273 88 q 84 329 84 320 q 203 446 84 349 q 301 531 246 481 q 367 582 355 582 z "},"":{"ha":425,"x_min":65,"x_max":371,"o":"m 86 86 q 65 103 65 86 q 158 227 65 121 q 250 344 250 332 q 200 447 250 356 q 150 562 150 537 q 173 581 150 581 q 278 466 186 581 q 371 338 371 350 q 254 227 371 321 q 154 138 210 191 q 86 86 98 86 z "},"":{"ha":456,"x_min":-155,"x_max":608,"o":"m 524 871 q 579 904 550 904 q 608 892 608 904 q -56 5 608 890 q -125 -47 -95 -47 q -155 -26 -155 -47 q -131 12 -155 -22 q 524 871 234 516 z "},"":{"ha":848,"x_min":73,"x_max":815,"o":"m 430 404 q 591 378 591 404 q 544 344 591 356 q 460 334 540 342 q 344 309 381 326 q 307 254 307 291 q 364 138 307 190 q 486 86 421 86 q 617 117 551 86 q 667 143 626 121 q 722 166 707 166 q 737 151 737 166 q 720 107 737 136 q 645 33 690 58 q 451 -7 571 -7 q 343 16 399 -7 q 241 83 286 39 q 145 266 197 127 q 113 326 130 307 q 73 373 73 370 q 92 402 73 390 q 138 439 136 431 q 140 453 140 446 q 117 488 140 476 q 87 519 87 505 q 115 549 87 534 q 175 586 170 580 q 200 628 180 592 q 252 712 219 663 q 342 804 286 760 q 464 869 399 848 q 578 891 529 891 l 606 891 q 788 846 726 891 q 815 770 815 826 q 781 713 815 713 q 704 762 754 713 q 593 810 654 810 q 425 746 486 810 q 364 600 364 682 q 420 558 364 571 q 542 552 446 552 q 638 532 638 552 q 609 498 638 508 q 497 488 581 488 l 358 486 q 294 467 312 486 l 283 450 q 319 407 283 414 q 430 404 333 404 z "},"":{"ha":1289,"x_min":145,"x_max":1274,"o":"m 483 481 q 458 456 483 456 l 447 456 l 397 458 l 310 458 q 273 457 286 457 q 245 479 245 457 q 276 498 245 491 q 317 523 307 506 q 326 653 326 540 l 333 815 q 320 884 333 868 q 271 900 308 900 q 200 861 234 900 q 158 822 166 822 q 145 852 145 822 q 180 952 145 952 q 226 945 214 945 l 486 945 q 583 953 547 945 l 593 953 q 610 869 610 953 l 610 846 q 591 820 610 820 q 567 845 584 820 q 549 871 551 869 q 482 897 522 897 q 431 874 442 897 q 420 766 420 852 l 418 705 l 412 569 q 421 515 412 528 q 457 498 431 503 q 483 481 483 492 m 964 620 q 1035 757 971 620 q 1117 917 1099 895 q 1225 956 1149 956 q 1274 940 1274 956 q 1253 918 1274 930 q 1225 893 1232 905 q 1218 817 1218 882 l 1215 729 l 1215 685 l 1216 621 q 1220 540 1216 551 q 1245 508 1224 529 q 1265 473 1265 488 q 1141 459 1265 459 l 1119 459 q 1084 477 1084 459 l 1093 484 l 1102 495 q 1125 554 1120 516 q 1131 707 1131 592 q 1126 822 1131 822 q 1034 653 1116 822 q 934 484 953 484 q 849 652 916 484 q 772 819 782 819 q 757 587 757 819 q 772 500 757 522 l 780 490 l 789 482 q 743 460 789 460 q 640 478 640 460 q 665 507 640 492 q 694 541 689 522 q 718 863 718 621 q 693 914 718 896 q 669 940 669 932 q 738 952 669 952 q 827 919 806 952 q 900 753 848 886 q 964 620 952 620 z "},"":{"ha":732,"x_min":83,"x_max":684,"o":"m 129 424 l 670 424 q 684 410 684 424 q 675 359 684 372 q 637 347 667 347 l 97 347 q 83 361 83 347 q 91 412 83 400 q 129 424 99 424 z "}}}
